ISO-10303-21;

HEADER;
FILE_DESCRIPTION((' '),'2;1');
FILE_NAME( 'gear shift fork.stp',
           '2026-10-04T07:24:29',
           (' '),
           ('--- Datakit www.datakit.com---'),
           ' Datakit CrossCadWare V2024.1  Dec 21 2023',
           'Mastercam 2025',
           ' ');
FILE_SCHEMA(('AUTOMOTIVE_DESIGN { 1 0 10303 214 1 1 1 1 }'));
ENDSEC;

DATA;
#1=APPLICATION_CONTEXT('core data for automotive mechanical design processes');
#2=APPLICATION_PROTOCOL_DEFINITION('international standard','automotive_design',2000,#1);
#3=(LENGTH_UNIT()NAMED_UNIT(*)SI_UNIT(.MILLI.,.METRE.));
#4=(NAMED_UNIT(*)PLANE_ANGLE_UNIT()SI_UNIT($,.RADIAN.));
#5=( GEOMETRIC_REPRESENTATION_CONTEXT(3)
       GLOBAL_UNCERTAINTY_ASSIGNED_CONTEXT((#6)) GLOBAL_UNIT_ASSIGNED_CONTEXT
  ((#3,#4)) REPRESENTATION_CONTEXT('Context #1',
  '3D Context with UNIT and UNCERTAINTY') );
#6=UNCERTAINTY_MEASURE_WITH_UNIT(LENGTH_MEASURE(0.005),#3,'distance_accuracy_value','Confusion accuracy');
#7=PRODUCT_CONTEXT('',#1,'mechanical');
#8=PRODUCT('gear shift fork','','',(#7));
#9=PRODUCT_DEFINITION_FORMATION('','',#8);
#10=PRODUCT_DEFINITION_CONTEXT('part definition',#1,'design');
#11=PRODUCT_DEFINITION('design','',#9,#10);
#12=PRODUCT_DEFINITION_SHAPE('','',#11);
#13=PRODUCT_CATEGORY('part',$);
#14=PRODUCT_RELATED_PRODUCT_CATEGORY('part',$,(#8));
#15=PRODUCT_CATEGORY_RELATIONSHIP('','',#13,#14);
#16=CARTESIAN_POINT('',(0.0,-12.5,-9.5));
#17=VERTEX_POINT('',#16);
#18=CARTESIAN_POINT('',(0.0,-12.5,-16.5));
#19=VERTEX_POINT('',#18);
#20=CARTESIAN_POINT('',(0.0,-12.5,-7.5));
#21=DIRECTION('',(-0.0,0.0,-1.0));
#22=VECTOR('',#21,1.0);
#23=LINE('',#20,#22);
#24=EDGE_CURVE('no 576',#17,#19,#23,.T.);
#25=ORIENTED_EDGE('',*,*,#24,.T.);
#26=CARTESIAN_POINT('',(68.0380880687,-37.2638388533,-16.5000000001));
#27=VERTEX_POINT('',#26);
#28=CARTESIAN_POINT('',(0.0,-12.5,-16.5));
#29=DIRECTION('',(0.9396926208,-0.3420201433,-0.0));
#30=VECTOR('',#29,1.0);
#31=LINE('',#28,#30);
#32=EDGE_CURVE('no 582',#19,#27,#31,.T.);
#33=ORIENTED_EDGE('',*,*,#32,.T.);
#34=CARTESIAN_POINT('',(68.0380880688,-37.2638388533,-9.5000000001));
#35=VERTEX_POINT('',#34);
#36=CARTESIAN_POINT('',(68.0380880688,-37.2638388533,-7.5000000001));
#37=DIRECTION('',(0.0,0.0,1.0));
#38=VECTOR('',#37,1.0);
#39=LINE('',#36,#38);
#40=EDGE_CURVE('no 588',#27,#35,#39,.T.);
#41=ORIENTED_EDGE('',*,*,#40,.T.);
#42=CARTESIAN_POINT('',(0.0,-12.5,-9.5));
#43=DIRECTION('',(-0.9396926208,0.3420201433,0.0));
#44=VECTOR('',#43,1.0);
#45=LINE('',#42,#44);
#46=EDGE_CURVE('no 592',#35,#17,#45,.T.);
#47=ORIENTED_EDGE('',*,*,#46,.T.);
#48=EDGE_LOOP('',(#25,#33,#41,#47));
#49=FACE_OUTER_BOUND('',#48,.T.);
#50=CARTESIAN_POINT('',(0.0,-12.5,-7.5));
#51=DIRECTION('',(0.3420201433,0.9396926208,-0.0));
#52=DIRECTION('',(-0.9396926208,0.3420201433,0.0));
#53=AXIS2_PLACEMENT_3D('',#50,#51,#52);
#54=PLANE('',#53);
#55=ADVANCED_FACE('no 567',(#49),#54,.F.);
#56=CARTESIAN_POINT('',(75.555629035,25.0000000001,-13.5000000001));
#57=VERTEX_POINT('',#56);
#58=CARTESIAN_POINT('',(75.555629035,25.0000000001,-16.5000000001));
#59=VERTEX_POINT('',#58);
#60=CARTESIAN_POINT('',(75.555629035,25.0000000001,-12.5000000001));
#61=DIRECTION('',(-0.0,0.0,-1.0));
#62=VECTOR('',#61,1.0);
#63=LINE('',#60,#62);
#64=EDGE_CURVE('no 603',#57,#59,#63,.T.);
#65=ORIENTED_EDGE('',*,*,#64,.T.);
#66=CARTESIAN_POINT('',(75.555629035,-24.9999999999,-16.5000000001));
#67=VERTEX_POINT('',#66);
#68=CARTESIAN_POINT('',(75.555629035,-37.2638388533,-16.5000000001));
#69=DIRECTION('',(-0.0,1.0,0.0));
#70=VECTOR('',#69,1.0);
#71=LINE('',#68,#70);
#72=EDGE_CURVE('no 609',#67,#59,#71,.T.);
#73=ORIENTED_EDGE('',*,*,#72,.F.);
#74=CARTESIAN_POINT('',(75.555629035,-24.9999999999,-13.5000000001));
#75=VERTEX_POINT('',#74);
#76=CARTESIAN_POINT('',(75.555629035,-24.9999999999,-12.5000000001));
#77=DIRECTION('',(-0.0,0.0,-1.0));
#78=VECTOR('',#77,1.0);
#79=LINE('',#76,#78);
#80=EDGE_CURVE('no 615',#75,#67,#79,.T.);
#81=ORIENTED_EDGE('',*,*,#80,.F.);
#82=CARTESIAN_POINT('',(75.555629035,-25.9999999999,-12.5000000001));
#83=VERTEX_POINT('',#82);
#84=CARTESIAN_POINT('',(75.555629035,0.0000000001,-38.5000000001));
#85=DIRECTION('',(0.0,-0.7071067812,0.7071067812));
#86=VECTOR('',#85,1.0);
#87=LINE('',#84,#86);
#88=EDGE_CURVE('no 621',#75,#83,#87,.T.);
#89=ORIENTED_EDGE('',*,*,#88,.T.);
#90=CARTESIAN_POINT('',(75.555629035,-29.9999999999,-12.5000000001));
#91=VERTEX_POINT('',#90);
#92=CARTESIAN_POINT('',(75.555629035,-29.9999999999,-12.5000000001));
#93=DIRECTION('',(-0.0,1.0,0.0));
#94=VECTOR('',#93,1.0);
#95=LINE('',#92,#94);
#96=EDGE_CURVE('no 627',#91,#83,#95,.T.);
#97=ORIENTED_EDGE('',*,*,#96,.F.);
#98=CARTESIAN_POINT('',(75.555629035,-29.9999999999,-8.5000000001));
#99=VERTEX_POINT('',#98);
#100=CARTESIAN_POINT('',(75.555629035,-29.9999999999,-30.0000000001));
#101=DIRECTION('',(0.0,0.0,1.0));
#102=VECTOR('',#101,1.0);
#103=LINE('',#100,#102);
#104=EDGE_CURVE('no 633',#91,#99,#103,.T.);
#105=ORIENTED_EDGE('',*,*,#104,.T.);
#106=CARTESIAN_POINT('',(75.555629035,-30.9999999999,-7.5000000001));
#107=VERTEX_POINT('',#106);
#108=CARTESIAN_POINT('',(75.555629035,0.0000000001,-38.5000000001));
#109=DIRECTION('',(0.0,-0.7071067812,0.7071067812));
#110=VECTOR('',#109,1.0);
#111=LINE('',#108,#110);
#112=EDGE_CURVE('no 639',#99,#107,#111,.T.);
#113=ORIENTED_EDGE('',*,*,#112,.T.);
#114=CARTESIAN_POINT('',(75.555629035,-31.9999999999,-7.5000000001));
#115=VERTEX_POINT('',#114);
#116=CARTESIAN_POINT('',(75.555629035,-39.9999999999,-7.5000000001));
#117=DIRECTION('',(-0.0,1.0,0.0));
#118=VECTOR('',#117,1.0);
#119=LINE('',#116,#118);
#120=EDGE_CURVE('no 645',#115,#107,#119,.T.);
#121=ORIENTED_EDGE('',*,*,#120,.F.);
#122=CARTESIAN_POINT('',(75.555629035,-31.9999999999,-16.5000000001));
#123=VERTEX_POINT('',#122);
#124=CARTESIAN_POINT('',(75.555629035,-31.9999999999,-7.5000000001));
#125=DIRECTION('',(-0.0,0.0,-1.0));
#126=VECTOR('',#125,1.0);
#127=LINE('',#124,#126);
#128=EDGE_CURVE('no 651',#115,#123,#127,.T.);
#129=ORIENTED_EDGE('',*,*,#128,.T.);
#130=CARTESIAN_POINT('',(75.555629035,-37.2638388533,-16.5000000001));
#131=VERTEX_POINT('',#130);
#132=CARTESIAN_POINT('',(75.555629035,-37.2638388533,-16.5000000001));
#133=DIRECTION('',(-0.0,1.0,0.0));
#134=VECTOR('',#133,1.0);
#135=LINE('',#132,#134);
#136=EDGE_CURVE('no 657',#131,#123,#135,.T.);
#137=ORIENTED_EDGE('',*,*,#136,.F.);
#138=CARTESIAN_POINT('',(75.555629035,-37.2638388533,-31.5000000001));
#139=VERTEX_POINT('',#138);
#140=CARTESIAN_POINT('',(75.555629035,-37.2638388533,-31.5000000001));
#141=DIRECTION('',(0.0,0.0,1.0));
#142=VECTOR('',#141,1.0);
#143=LINE('',#140,#142);
#144=EDGE_CURVE('no 663',#139,#131,#143,.T.);
#145=ORIENTED_EDGE('',*,*,#144,.F.);
#146=CARTESIAN_POINT('',(75.5556290349,37.2638388535,-31.5000000001));
#147=VERTEX_POINT('',#146);
#148=CARTESIAN_POINT('',(75.555629035,-37.2638388533,-31.5000000001));
#149=DIRECTION('',(-0.0,1.0,0.0));
#150=VECTOR('',#149,1.0);
#151=LINE('',#148,#150);
#152=EDGE_CURVE('no 669',#139,#147,#151,.T.);
#153=ORIENTED_EDGE('',*,*,#152,.T.);
#154=CARTESIAN_POINT('',(75.5556290349,37.2638388535,-16.5000000001));
#155=VERTEX_POINT('',#154);
#156=CARTESIAN_POINT('',(75.5556290349,37.2638388535,-31.5000000001));
#157=DIRECTION('',(0.0,0.0,1.0));
#158=VECTOR('',#157,1.0);
#159=LINE('',#156,#158);
#160=EDGE_CURVE('no 675',#147,#155,#159,.T.);
#161=ORIENTED_EDGE('',*,*,#160,.T.);
#162=CARTESIAN_POINT('',(75.5556290349,32.0000000001,-16.5000000001));
#163=VERTEX_POINT('',#162);
#164=CARTESIAN_POINT('',(75.555629035,-37.2638388533,-16.5000000001));
#165=DIRECTION('',(-0.0,1.0,0.0));
#166=VECTOR('',#165,1.0);
#167=LINE('',#164,#166);
#168=EDGE_CURVE('no 681',#163,#155,#167,.T.);
#169=ORIENTED_EDGE('',*,*,#168,.F.);
#170=CARTESIAN_POINT('',(75.555629035,32.0000000001,-7.5000000001));
#171=VERTEX_POINT('',#170);
#172=CARTESIAN_POINT('',(75.555629035,32.0000000001,-7.5000000001));
#173=DIRECTION('',(0.0,0.0,1.0));
#174=VECTOR('',#173,1.0);
#175=LINE('',#172,#174);
#176=EDGE_CURVE('no 687',#163,#171,#175,.T.);
#177=ORIENTED_EDGE('',*,*,#176,.T.);
#178=CARTESIAN_POINT('',(75.555629035,31.0000000001,-7.5000000001));
#179=VERTEX_POINT('',#178);
#180=CARTESIAN_POINT('',(75.555629035,-39.9999999999,-7.5000000001));
#181=DIRECTION('',(-0.0,1.0,0.0));
#182=VECTOR('',#181,1.0);
#183=LINE('',#180,#182);
#184=EDGE_CURVE('no 693',#179,#171,#183,.T.);
#185=ORIENTED_EDGE('',*,*,#184,.F.);
#186=CARTESIAN_POINT('',(75.555629035,30.0000000001,-8.5000000001));
#187=VERTEX_POINT('',#186);
#188=CARTESIAN_POINT('',(75.555629035,0.0000000001,-38.5000000001));
#189=DIRECTION('',(0.0,-0.7071067812,-0.7071067812));
#190=VECTOR('',#189,1.0);
#191=LINE('',#188,#190);
#192=EDGE_CURVE('no 699',#179,#187,#191,.T.);
#193=ORIENTED_EDGE('',*,*,#192,.T.);
#194=CARTESIAN_POINT('',(75.555629035,30.0000000001,-12.5000000001));
#195=VERTEX_POINT('',#194);
#196=CARTESIAN_POINT('',(75.5556290349,30.0000000001,-30.0000000001));
#197=DIRECTION('',(-0.0,0.0,-1.0));
#198=VECTOR('',#197,1.0);
#199=LINE('',#196,#198);
#200=EDGE_CURVE('no 705',#187,#195,#199,.T.);
#201=ORIENTED_EDGE('',*,*,#200,.T.);
#202=CARTESIAN_POINT('',(75.555629035,26.0000000001,-12.5000000001));
#203=VERTEX_POINT('',#202);
#204=CARTESIAN_POINT('',(75.555629035,25.0000000001,-12.5000000001));
#205=DIRECTION('',(-0.0,1.0,0.0));
#206=VECTOR('',#205,1.0);
#207=LINE('',#204,#206);
#208=EDGE_CURVE('no 711',#203,#195,#207,.T.);
#209=ORIENTED_EDGE('',*,*,#208,.F.);
#210=CARTESIAN_POINT('',(75.555629035,0.0000000001,-38.5000000001));
#211=DIRECTION('',(0.0,-0.7071067812,-0.7071067812));
#212=VECTOR('',#211,1.0);
#213=LINE('',#210,#212);
#214=EDGE_CURVE('no 715',#203,#57,#213,.T.);
#215=ORIENTED_EDGE('',*,*,#214,.T.);
#216=EDGE_LOOP('',(
    #65,#73,#81,#89,#97,#105,#113,#121,#129,#137,
    #145,#153,#161,#169,#177,#185,#193,#201,#209,#215));
#217=FACE_OUTER_BOUND('',#216,.T.);
#218=CARTESIAN_POINT('',(75.555629035,-39.9999999999,-7.5000000001));
#219=DIRECTION('',(-1.0,-0.0,0.0));
#220=DIRECTION('',(0.0,-1.0,0.0));
#221=AXIS2_PLACEMENT_3D('',#218,#219,#220);
#222=PLANE('',#221);
#223=ADVANCED_FACE('no 594',(#217),#222,.F.);
#224=CARTESIAN_POINT('',(68.0380880687,37.2638388535,-9.5000000001));
#225=VERTEX_POINT('',#224);
#226=CARTESIAN_POINT('',(68.0380880687,37.2638388535,-16.5000000001));
#227=VERTEX_POINT('',#226);
#228=CARTESIAN_POINT('',(68.0380880687,37.2638388535,-7.5000000001));
#229=DIRECTION('',(-0.0,0.0,-1.0));
#230=VECTOR('',#229,1.0);
#231=LINE('',#228,#230);
#232=EDGE_CURVE('no 726',#225,#227,#231,.T.);
#233=ORIENTED_EDGE('',*,*,#232,.T.);
#234=CARTESIAN_POINT('',(-0.0,12.5,-16.5));
#235=VERTEX_POINT('',#234);
#236=CARTESIAN_POINT('',(75.5556290349,40.0000000001,-16.5000000001));
#237=DIRECTION('',(-0.9396926208,-0.3420201433,0.0));
#238=VECTOR('',#237,1.0);
#239=LINE('',#236,#238);
#240=EDGE_CURVE('no 732',#227,#235,#239,.T.);
#241=ORIENTED_EDGE('',*,*,#240,.T.);
#242=CARTESIAN_POINT('',(-0.0,12.5,-9.5));
#243=VERTEX_POINT('',#242);
#244=CARTESIAN_POINT('',(-0.0,12.5,-7.5));
#245=DIRECTION('',(-0.0,0.0,-1.0));
#246=VECTOR('',#245,1.0);
#247=LINE('',#244,#246);
#248=EDGE_CURVE('no 738',#243,#235,#247,.T.);
#249=ORIENTED_EDGE('',*,*,#248,.F.);
#250=CARTESIAN_POINT('',(68.0380880687,37.2638388535,-9.5000000001));
#251=DIRECTION('',(0.9396926208,0.3420201433,-0.0));
#252=VECTOR('',#251,1.0);
#253=LINE('',#250,#252);
#254=EDGE_CURVE('no 742',#243,#225,#253,.T.);
#255=ORIENTED_EDGE('',*,*,#254,.T.);
#256=EDGE_LOOP('',(#233,#241,#249,#255));
#257=FACE_OUTER_BOUND('',#256,.T.);
#258=CARTESIAN_POINT('',(75.5556290349,40.0000000001,-7.5000000001));
#259=DIRECTION('',(0.3420201433,-0.9396926208,-0.0));
#260=DIRECTION('',(0.9396926208,0.3420201433,-0.0));
#261=AXIS2_PLACEMENT_3D('',#258,#259,#260);
#262=PLANE('',#261);
#263=ADVANCED_FACE('no 717',(#257),#262,.F.);
#264=CARTESIAN_POINT('',(70.0380880687,35.8634237771,-7.5000000001));
#265=VERTEX_POINT('',#264);
#266=CARTESIAN_POINT('',(90.5907109675,21.4723222933,-7.5000000001));
#267=DIRECTION('',(-0.8191520443,0.5735764363,0.0));
#268=VECTOR('',#267,1.0);
#269=LINE('',#266,#268);
#270=EDGE_CURVE('no 751',#171,#265,#269,.T.);
#271=ORIENTED_EDGE('',*,*,#270,.T.);
#272=CARTESIAN_POINT('',(4.021620678,11.8353946754,-7.5));
#273=VERTEX_POINT('',#272);
#274=CARTESIAN_POINT('',(0.6840402866,10.6206147584,-7.5));
#275=DIRECTION('',(-0.9396926208,-0.3420201433,0.0));
#276=VECTOR('',#275,1.0);
#277=LINE('',#274,#276);
#278=EDGE_CURVE('no 757',#265,#273,#277,.T.);
#279=ORIENTED_EDGE('',*,*,#278,.T.);
#280=CARTESIAN_POINT('',(12.5,0.0,-7.5));
#281=VERTEX_POINT('',#280);
#282=CARTESIAN_POINT('',(-0.0,0.0,-7.5));
#283=DIRECTION('',(-0.0,-0.0,-1.0));
#284=DIRECTION('',(1.0,0.0,-0.0));
#285=AXIS2_PLACEMENT_3D('',#282,#283,#284);
#286=CIRCLE('',#285,12.5);
#287=EDGE_CURVE('no 763',#273,#281,#286,.T.);
#288=ORIENTED_EDGE('',*,*,#287,.T.);
#289=CARTESIAN_POINT('',(4.0216206781,-11.8353946754,-7.5));
#290=VERTEX_POINT('',#289);
#291=CARTESIAN_POINT('',(-0.0,0.0,-7.5));
#292=DIRECTION('',(-0.0,-0.0,-1.0));
#293=DIRECTION('',(1.0,0.0,-0.0));
#294=AXIS2_PLACEMENT_3D('',#291,#292,#293);
#295=CIRCLE('',#294,12.5);
#296=EDGE_CURVE('no 769',#281,#290,#295,.T.);
#297=ORIENTED_EDGE('',*,*,#296,.T.);
#298=CARTESIAN_POINT('',(70.0380880688,-35.8634237769,-7.5000000001));
#299=VERTEX_POINT('',#298);
#300=CARTESIAN_POINT('',(68.7221283554,-35.3844536117,-7.5000000001));
#301=DIRECTION('',(0.9396926208,-0.3420201433,-0.0));
#302=VECTOR('',#301,1.0);
#303=LINE('',#300,#302);
#304=EDGE_CURVE('no 775',#290,#299,#303,.T.);
#305=ORIENTED_EDGE('',*,*,#304,.T.);
#306=CARTESIAN_POINT('',(90.5907109676,-21.4723222931,-7.5000000001));
#307=DIRECTION('',(0.8191520443,0.5735764364,-0.0));
#308=VECTOR('',#307,1.0);
#309=LINE('',#306,#308);
#310=EDGE_CURVE('no 779',#299,#115,#309,.T.);
#311=ORIENTED_EDGE('',*,*,#310,.T.);
#312=ORIENTED_EDGE('',*,*,#120,.T.);
#313=CARTESIAN_POINT('',(75.555629035,0.0000000001,-7.5000000001));
#314=DIRECTION('',(-0.0,-0.0,-1.0));
#315=DIRECTION('',(1.0,0.0,-0.0));
#316=AXIS2_PLACEMENT_3D('',#313,#314,#315);
#317=CIRCLE('',#316,31.0);
#318=EDGE_CURVE('no 785',#107,#179,#317,.T.);
#319=ORIENTED_EDGE('',*,*,#318,.T.);
#320=ORIENTED_EDGE('',*,*,#184,.T.);
#321=EDGE_LOOP('',(#271,#279,#288,#297,#305,#311,#312,#319,#320));
#322=FACE_OUTER_BOUND('',#321,.T.);
#323=CARTESIAN_POINT('',(75.555629035,0.0000000001,-7.5000000001));
#324=DIRECTION('',(0.0,0.0,1.0));
#325=DIRECTION('',(1.0,0.0,-0.0));
#326=AXIS2_PLACEMENT_3D('',#323,#324,#325);
#327=PLANE('',#326);
#328=ADVANCED_FACE('no 744',(#322),#327,.T.);
#329=CARTESIAN_POINT('',(12.5,0.0,0.0));
#330=VERTEX_POINT('',#329);
#331=CARTESIAN_POINT('',(12.5,0.0,0.0));
#332=DIRECTION('',(-0.0,-0.0,-1.0));
#333=VECTOR('',#332,1.0);
#334=LINE('',#331,#333);
#335=EDGE_CURVE('no 797',#330,#281,#334,.T.);
#336=ORIENTED_EDGE('',*,*,#335,.F.);
#337=CARTESIAN_POINT('',(-12.5,-0.0,0.0));
#338=VERTEX_POINT('',#337);
#339=CARTESIAN_POINT('',(0.0,0.0,0.0));
#340=DIRECTION('',(0.0,0.0,1.0));
#341=DIRECTION('',(1.0,0.0,-0.0));
#342=AXIS2_PLACEMENT_3D('',#339,#340,#341);
#343=CIRCLE('',#342,12.5);
#344=EDGE_CURVE('no 803',#338,#330,#343,.T.);
#345=ORIENTED_EDGE('',*,*,#344,.F.);
#346=CARTESIAN_POINT('',(-12.5,-0.0,-16.5));
#347=VERTEX_POINT('',#346);
#348=CARTESIAN_POINT('',(-12.5,-0.0,0.0));
#349=DIRECTION('',(-0.0,0.0,-1.0));
#350=VECTOR('',#349,1.0);
#351=LINE('',#348,#350);
#352=EDGE_CURVE('no 809',#338,#347,#351,.T.);
#353=ORIENTED_EDGE('',*,*,#352,.T.);
#354=CARTESIAN_POINT('',(-0.0,0.0,-16.5));
#355=DIRECTION('',(0.0,0.0,1.0));
#356=DIRECTION('',(1.0,0.0,-0.0));
#357=AXIS2_PLACEMENT_3D('',#354,#355,#356);
#358=CIRCLE('',#357,12.5);
#359=EDGE_CURVE('no 813',#347,#19,#358,.T.);
#360=ORIENTED_EDGE('',*,*,#359,.T.);
#361=ORIENTED_EDGE('',*,*,#24,.F.);
#362=CARTESIAN_POINT('',(0.0,0.0,2.2461577598));
#363=DIRECTION('',(-0.2418447626,-0.6644630244,0.7071067812));
#364=DIRECTION('',(-0.2418447626,-0.6644630244,-0.7071067812));
#365=AXIS2_PLACEMENT_3D('',#362,#363,#364);
#366=ELLIPSE('',#365,17.6776695297,12.5);
#367=EDGE_CURVE('no 819',#17,#290,#366,.T.);
#368=ORIENTED_EDGE('',*,*,#367,.T.);
#369=ORIENTED_EDGE('',*,*,#296,.F.);
#370=EDGE_LOOP('',(#336,#345,#353,#360,#361,#368,#369));
#371=FACE_OUTER_BOUND('',#370,.T.);
#372=CARTESIAN_POINT('',(0.0,0.0,0.0));
#373=DIRECTION('',(-0.0,-0.0,-1.0));
#374=DIRECTION('',(-0.0,1.0,-0.0));
#375=AXIS2_PLACEMENT_3D('',#372,#373,#374);
#376=CYLINDRICAL_SURFACE('',#375,12.5);
#377=ADVANCED_FACE('no 790',(#371),#376,.T.);
#378=CARTESIAN_POINT('',(-10.0,-0.0,0.0));
#379=VERTEX_POINT('',#378);
#380=CARTESIAN_POINT('',(10.0,0.0,0.0));
#381=VERTEX_POINT('',#380);
#382=CARTESIAN_POINT('',(0.0,0.0,0.0));
#383=DIRECTION('',(0.0,0.0,1.0));
#384=DIRECTION('',(1.0,0.0,-0.0));
#385=AXIS2_PLACEMENT_3D('',#382,#383,#384);
#386=CIRCLE('',#385,10.0);
#387=EDGE_CURVE('no 832',#379,#381,#386,.T.);
#388=ORIENTED_EDGE('',*,*,#387,.F.);
#389=CARTESIAN_POINT('',(0.0,0.0,0.0));
#390=DIRECTION('',(0.0,0.0,1.0));
#391=DIRECTION('',(1.0,0.0,-0.0));
#392=AXIS2_PLACEMENT_3D('',#389,#390,#391);
#393=CIRCLE('',#392,10.0);
#394=EDGE_CURVE('no 836',#381,#379,#393,.T.);
#395=ORIENTED_EDGE('',*,*,#394,.F.);
#396=EDGE_LOOP('',(#388,#395));
#397=FACE_BOUND('',#396,.T.);
#398=CARTESIAN_POINT('',(0.0,0.0,0.0));
#399=DIRECTION('',(0.0,0.0,1.0));
#400=DIRECTION('',(1.0,0.0,-0.0));
#401=AXIS2_PLACEMENT_3D('',#398,#399,#400);
#402=CIRCLE('',#401,12.5);
#403=EDGE_CURVE('no 841',#330,#338,#402,.T.);
#404=ORIENTED_EDGE('',*,*,#403,.T.);
#405=ORIENTED_EDGE('',*,*,#344,.T.);
#406=EDGE_LOOP('',(#404,#405));
#407=FACE_OUTER_BOUND('',#406,.T.);
#408=CARTESIAN_POINT('',(0.0,0.0,0.0));
#409=DIRECTION('',(0.0,0.0,1.0));
#410=DIRECTION('',(1.0,0.0,-0.0));
#411=AXIS2_PLACEMENT_3D('',#408,#409,#410);
#412=PLANE('',#411);
#413=ADVANCED_FACE('no 823',(#397,#407),#412,.T.);
#414=ORIENTED_EDGE('',*,*,#200,.F.);
#415=CARTESIAN_POINT('',(75.555629035,0.0000000001,-8.5000000001));
#416=DIRECTION('',(0.0,0.0,1.0));
#417=DIRECTION('',(1.0,0.0,-0.0));
#418=AXIS2_PLACEMENT_3D('',#415,#416,#417);
#419=CIRCLE('',#418,30.0);
#420=EDGE_CURVE('no 853',#187,#99,#419,.T.);
#421=ORIENTED_EDGE('',*,*,#420,.T.);
#422=ORIENTED_EDGE('',*,*,#104,.F.);
#423=CARTESIAN_POINT('',(75.555629035,0.0000000001,-12.5000000001));
#424=DIRECTION('',(0.0,0.0,1.0));
#425=DIRECTION('',(1.0,0.0,-0.0));
#426=AXIS2_PLACEMENT_3D('',#423,#424,#425);
#427=CIRCLE('',#426,30.0);
#428=EDGE_CURVE('no 859',#195,#91,#427,.T.);
#429=ORIENTED_EDGE('',*,*,#428,.F.);
#430=EDGE_LOOP('',(#414,#421,#422,#429));
#431=FACE_OUTER_BOUND('',#430,.T.);
#432=CARTESIAN_POINT('',(75.555629035,0.0000000001,-30.0000000001));
#433=DIRECTION('',(0.0,0.0,1.0));
#434=DIRECTION('',(1.0,0.0,-0.0));
#435=AXIS2_PLACEMENT_3D('',#432,#433,#434);
#436=CYLINDRICAL_SURFACE('',#435,30.0);
#437=ADVANCED_FACE('no 846',(#431),#436,.F.);
#438=ORIENTED_EDGE('',*,*,#80,.T.);
#439=CARTESIAN_POINT('',(75.555629035,0.0000000001,-16.5000000001));
#440=DIRECTION('',(-0.0,-0.0,-1.0));
#441=DIRECTION('',(1.0,0.0,-0.0));
#442=AXIS2_PLACEMENT_3D('',#439,#440,#441);
#443=CIRCLE('',#442,25.0);
#444=EDGE_CURVE('no 869',#67,#59,#443,.T.);
#445=ORIENTED_EDGE('',*,*,#444,.T.);
#446=ORIENTED_EDGE('',*,*,#64,.F.);
#447=CARTESIAN_POINT('',(75.555629035,0.0000000001,-13.5000000001));
#448=DIRECTION('',(0.0,0.0,1.0));
#449=DIRECTION('',(1.0,0.0,-0.0));
#450=AXIS2_PLACEMENT_3D('',#447,#448,#449);
#451=CIRCLE('',#450,25.0);
#452=EDGE_CURVE('no 875',#57,#75,#451,.T.);
#453=ORIENTED_EDGE('',*,*,#452,.T.);
#454=EDGE_LOOP('',(#438,#445,#446,#453));
#455=FACE_OUTER_BOUND('',#454,.T.);
#456=CARTESIAN_POINT('',(75.555629035,0.0000000001,-12.5000000001));
#457=DIRECTION('',(-0.0,-0.0,-1.0));
#458=DIRECTION('',(1.0,0.0,-0.0));
#459=AXIS2_PLACEMENT_3D('',#456,#457,#458);
#460=CYLINDRICAL_SURFACE('',#459,25.0);
#461=ADVANCED_FACE('no 862',(#455),#460,.F.);
#462=ORIENTED_EDGE('',*,*,#96,.T.);
#463=CARTESIAN_POINT('',(75.555629035,0.0000000001,-12.5000000001));
#464=DIRECTION('',(-0.0,-0.0,-1.0));
#465=DIRECTION('',(1.0,0.0,-0.0));
#466=AXIS2_PLACEMENT_3D('',#463,#464,#465);
#467=CIRCLE('',#466,26.0);
#468=EDGE_CURVE('no 884',#83,#203,#467,.T.);
#469=ORIENTED_EDGE('',*,*,#468,.T.);
#470=ORIENTED_EDGE('',*,*,#208,.T.);
#471=ORIENTED_EDGE('',*,*,#428,.T.);
#472=EDGE_LOOP('',(#462,#469,#470,#471));
#473=FACE_OUTER_BOUND('',#472,.T.);
#474=CARTESIAN_POINT('',(75.555629035,0.0000000001,-12.5000000001));
#475=DIRECTION('',(0.0,0.0,1.0));
#476=DIRECTION('',(1.0,0.0,-0.0));
#477=AXIS2_PLACEMENT_3D('',#474,#475,#476);
#478=PLANE('',#477);
#479=ADVANCED_FACE('no 877',(#473),#478,.T.);
#480=CARTESIAN_POINT('',(-10.0,-0.0,-16.5));
#481=VERTEX_POINT('',#480);
#482=CARTESIAN_POINT('',(-10.0,-0.0,-16.5));
#483=DIRECTION('',(0.0,0.0,1.0));
#484=VECTOR('',#483,1.0);
#485=LINE('',#482,#484);
#486=EDGE_CURVE('no 898',#481,#379,#485,.T.);
#487=ORIENTED_EDGE('',*,*,#486,.T.);
#488=ORIENTED_EDGE('',*,*,#387,.T.);
#489=CARTESIAN_POINT('',(10.0,0.0,-16.5));
#490=VERTEX_POINT('',#489);
#491=CARTESIAN_POINT('',(10.0,0.0,-16.5));
#492=DIRECTION('',(0.0,0.0,1.0));
#493=VECTOR('',#492,1.0);
#494=LINE('',#491,#493);
#495=EDGE_CURVE('no 906',#490,#381,#494,.T.);
#496=ORIENTED_EDGE('',*,*,#495,.F.);
#497=CARTESIAN_POINT('',(-0.0,0.0,-16.5));
#498=DIRECTION('',(-0.0,-0.0,-1.0));
#499=DIRECTION('',(1.0,0.0,-0.0));
#500=AXIS2_PLACEMENT_3D('',#497,#498,#499);
#501=CIRCLE('',#500,10.0);
#502=EDGE_CURVE('no 910',#490,#481,#501,.T.);
#503=ORIENTED_EDGE('',*,*,#502,.T.);
#504=EDGE_LOOP('',(#487,#488,#496,#503));
#505=FACE_OUTER_BOUND('',#504,.T.);
#506=CARTESIAN_POINT('',(-0.0,0.0,-30.0));
#507=DIRECTION('',(0.0,0.0,1.0));
#508=DIRECTION('',(-0.0,1.0,-0.0));
#509=AXIS2_PLACEMENT_3D('',#506,#507,#508);
#510=CYLINDRICAL_SURFACE('',#509,10.0);
#511=ADVANCED_FACE('no 891',(#505),#510,.F.);
#512=ORIENTED_EDGE('',*,*,#88,.F.);
#513=ORIENTED_EDGE('',*,*,#452,.F.);
#514=ORIENTED_EDGE('',*,*,#214,.F.);
#515=ORIENTED_EDGE('',*,*,#468,.F.);
#516=EDGE_LOOP('',(#512,#513,#514,#515));
#517=FACE_OUTER_BOUND('',#516,.T.);
#518=CARTESIAN_POINT('',(75.555629035,0.0000000001,-12.5000000001));
#519=DIRECTION('',(0.0,0.0,1.0));
#520=DIRECTION('',(1.0,0.0,-0.0));
#521=AXIS2_PLACEMENT_3D('',#518,#519,#520);
#522=CONICAL_SURFACE('',#521,26.0,0.7853981634);
#523=ADVANCED_FACE('no 913',(#517),#522,.F.);
#524=ORIENTED_EDGE('',*,*,#192,.F.);
#525=ORIENTED_EDGE('',*,*,#318,.F.);
#526=ORIENTED_EDGE('',*,*,#112,.F.);
#527=ORIENTED_EDGE('',*,*,#420,.F.);
#528=EDGE_LOOP('',(#524,#525,#526,#527));
#529=FACE_OUTER_BOUND('',#528,.T.);
#530=CARTESIAN_POINT('',(75.555629035,0.0000000001,-8.5000000001));
#531=DIRECTION('',(0.0,0.0,1.0));
#532=DIRECTION('',(1.0,0.0,-0.0));
#533=AXIS2_PLACEMENT_3D('',#530,#531,#532);
#534=CONICAL_SURFACE('',#533,30.0,0.7853981634);
#535=ADVANCED_FACE('no 925',(#529),#534,.F.);
#536=CARTESIAN_POINT('',(68.0380880687,37.2638388535,-16.5000000001));
#537=DIRECTION('',(0.8191520443,-0.5735764363,-0.0));
#538=VECTOR('',#537,1.0);
#539=LINE('',#536,#538);
#540=EDGE_CURVE('no 941',#227,#163,#539,.T.);
#541=ORIENTED_EDGE('',*,*,#540,.F.);
#542=ORIENTED_EDGE('',*,*,#232,.F.);
#543=CARTESIAN_POINT('',(68.8412071917,36.7014887895,-8.696880877));
#544=DIRECTION('',(0.6336872742,-0.4437126063,0.6336872742));
#545=VECTOR('',#544,1.0);
#546=LINE('',#543,#545);
#547=EDGE_CURVE('no 947',#225,#265,#546,.T.);
#548=ORIENTED_EDGE('',*,*,#547,.T.);
#549=ORIENTED_EDGE('',*,*,#270,.F.);
#550=ORIENTED_EDGE('',*,*,#176,.F.);
#551=EDGE_LOOP('',(#541,#542,#548,#549,#550));
#552=FACE_OUTER_BOUND('',#551,.T.);
#553=CARTESIAN_POINT('',(68.0380880687,37.2638388535,-7.5000000001));
#554=DIRECTION('',(-0.5735764363,-0.8191520443,0.0));
#555=DIRECTION('',(-0.0,-0.0,-1.0));
#556=AXIS2_PLACEMENT_3D('',#553,#554,#555);
#557=PLANE('',#556);
#558=ADVANCED_FACE('no 936',(#552),#557,.F.);
#559=CARTESIAN_POINT('',(75.555629035,-31.9999999999,-16.5000000001));
#560=DIRECTION('',(-0.8191520443,-0.5735764364,0.0));
#561=VECTOR('',#560,1.0);
#562=LINE('',#559,#561);
#563=EDGE_CURVE('no 958',#123,#27,#562,.T.);
#564=ORIENTED_EDGE('',*,*,#563,.F.);
#565=ORIENTED_EDGE('',*,*,#128,.F.);
#566=ORIENTED_EDGE('',*,*,#310,.F.);
#567=CARTESIAN_POINT('',(73.340007704,-33.5513947577,-4.1980803648));
#568=DIRECTION('',(-0.6336872742,-0.4437126063,-0.6336872742));
#569=VECTOR('',#568,1.0);
#570=LINE('',#567,#569);
#571=EDGE_CURVE('no 966',#299,#35,#570,.T.);
#572=ORIENTED_EDGE('',*,*,#571,.T.);
#573=ORIENTED_EDGE('',*,*,#40,.F.);
#574=EDGE_LOOP('',(#564,#565,#566,#572,#573));
#575=FACE_OUTER_BOUND('',#574,.T.);
#576=CARTESIAN_POINT('',(75.555629035,-31.9999999999,-7.5000000001));
#577=DIRECTION('',(-0.5735764364,0.8191520443,0.0));
#578=DIRECTION('',(-0.0,-0.0,-1.0));
#579=AXIS2_PLACEMENT_3D('',#576,#577,#578);
#580=PLANE('',#579);
#581=ADVANCED_FACE('no 953',(#575),#580,.F.);
#582=ORIENTED_EDGE('',*,*,#547,.F.);
#583=ORIENTED_EDGE('',*,*,#254,.F.);
#584=CARTESIAN_POINT('',(0.0,0.0,2.2461577598));
#585=DIRECTION('',(-0.2418447626,0.6644630244,0.7071067812));
#586=DIRECTION('',(-0.2418447626,0.6644630244,-0.7071067812));
#587=AXIS2_PLACEMENT_3D('',#584,#585,#586);
#588=ELLIPSE('',#587,17.6776695297,12.5);
#589=EDGE_CURVE('no 979',#273,#243,#588,.T.);
#590=ORIENTED_EDGE('',*,*,#589,.F.);
#591=ORIENTED_EDGE('',*,*,#278,.F.);
#592=EDGE_LOOP('',(#582,#583,#590,#591));
#593=FACE_OUTER_BOUND('',#592,.T.);
#594=CARTESIAN_POINT('',(63.3839171279,33.4415036209,-7.5));
#595=DIRECTION('',(-0.2418447626,0.6644630244,0.7071067812));
#596=DIRECTION('',(0.9396926208,0.3420201433,-0.0));
#597=AXIS2_PLACEMENT_3D('',#594,#595,#596);
#598=PLANE('',#597);
#599=ADVANCED_FACE('no 970',(#593),#598,.T.);
#600=ORIENTED_EDGE('',*,*,#367,.F.);
#601=ORIENTED_EDGE('',*,*,#46,.F.);
#602=ORIENTED_EDGE('',*,*,#571,.F.);
#603=ORIENTED_EDGE('',*,*,#304,.F.);
#604=EDGE_LOOP('',(#600,#601,#602,#603));
#605=FACE_OUTER_BOUND('',#604,.T.);
#606=CARTESIAN_POINT('',(63.383917128,-33.4415036207,-7.5));
#607=DIRECTION('',(-0.2418447626,-0.6644630244,0.7071067812));
#608=DIRECTION('',(-0.9396926208,0.3420201433,0.0));
#609=AXIS2_PLACEMENT_3D('',#606,#607,#608);
#610=PLANE('',#609);
#611=ADVANCED_FACE('no 983',(#605),#610,.T.);
#612=ORIENTED_EDGE('',*,*,#136,.T.);
#613=ORIENTED_EDGE('',*,*,#563,.T.);
#614=CARTESIAN_POINT('',(-12.5,-37.2638388534,-16.5));
#615=DIRECTION('',(1.0,0.0,-0.0));
#616=VECTOR('',#615,1.0);
#617=LINE('',#614,#616);
#618=EDGE_CURVE('no 1003',#27,#131,#617,.T.);
#619=ORIENTED_EDGE('',*,*,#618,.T.);
#620=EDGE_LOOP('',(#612,#613,#619));
#621=FACE_OUTER_BOUND('',#620,.T.);
#622=CARTESIAN_POINT('',(75.555629035,0.0000000001,-16.5000000001));
#623=DIRECTION('',(0.0,0.0,1.0));
#624=DIRECTION('',(1.0,0.0,-0.0));
#625=AXIS2_PLACEMENT_3D('',#622,#623,#624);
#626=PLANE('',#625);
#627=ADVANCED_FACE('no 994',(#621),#626,.T.);
#628=CARTESIAN_POINT('',(-12.5,-37.2638388534,-31.5));
#629=VERTEX_POINT('',#628);
#630=CARTESIAN_POINT('',(-12.5,-37.2638388534,-31.5));
#631=DIRECTION('',(1.0,0.0,-0.0));
#632=VECTOR('',#631,1.0);
#633=LINE('',#630,#632);
#634=EDGE_CURVE('no 1012',#629,#139,#633,.T.);
#635=ORIENTED_EDGE('',*,*,#634,.F.);
#636=CARTESIAN_POINT('',(-12.5000000001,37.2638388534,-31.5));
#637=VERTEX_POINT('',#636);
#638=CARTESIAN_POINT('',(-12.5,-37.2638388534,-31.5));
#639=DIRECTION('',(0.0,-1.0,0.0));
#640=VECTOR('',#639,1.0);
#641=LINE('',#638,#640);
#642=EDGE_CURVE('no 1018',#637,#629,#641,.T.);
#643=ORIENTED_EDGE('',*,*,#642,.F.);
#644=CARTESIAN_POINT('',(-12.5000000001,37.2638388534,-31.5));
#645=DIRECTION('',(-1.0,-0.0,0.0));
#646=VECTOR('',#645,1.0);
#647=LINE('',#644,#646);
#648=EDGE_CURVE('no 1022',#147,#637,#647,.T.);
#649=ORIENTED_EDGE('',*,*,#648,.F.);
#650=ORIENTED_EDGE('',*,*,#152,.F.);
#651=EDGE_LOOP('',(#635,#643,#649,#650));
#652=FACE_OUTER_BOUND('',#651,.T.);
#653=CARTESIAN_POINT('',(75.555629035,0.0000000001,-31.5000000001));
#654=DIRECTION('',(0.0,0.0,1.0));
#655=DIRECTION('',(1.0,0.0,-0.0));
#656=AXIS2_PLACEMENT_3D('',#653,#654,#655);
#657=PLANE('',#656);
#658=ADVANCED_FACE('no 1005',(#652),#657,.F.);
#659=CARTESIAN_POINT('',(-12.5000000001,37.2638388534,-16.5));
#660=VERTEX_POINT('',#659);
#661=CARTESIAN_POINT('',(-12.5000000001,37.2638388534,-16.5));
#662=DIRECTION('',(-1.0,-0.0,0.0));
#663=VECTOR('',#662,1.0);
#664=LINE('',#661,#663);
#665=EDGE_CURVE('no 1033',#227,#660,#664,.T.);
#666=ORIENTED_EDGE('',*,*,#665,.F.);
#667=CARTESIAN_POINT('',(-12.5000000001,37.2638388534,-16.5));
#668=DIRECTION('',(-1.0,-0.0,0.0));
#669=VECTOR('',#668,1.0);
#670=LINE('',#667,#669);
#671=EDGE_CURVE('no 1037',#155,#227,#670,.T.);
#672=ORIENTED_EDGE('',*,*,#671,.F.);
#673=ORIENTED_EDGE('',*,*,#160,.F.);
#674=ORIENTED_EDGE('',*,*,#648,.T.);
#675=CARTESIAN_POINT('',(-12.5000000001,37.2638388534,-31.5));
#676=DIRECTION('',(0.0,0.0,1.0));
#677=VECTOR('',#676,1.0);
#678=LINE('',#675,#677);
#679=EDGE_CURVE('no 1045',#637,#660,#678,.T.);
#680=ORIENTED_EDGE('',*,*,#679,.T.);
#681=EDGE_LOOP('',(#666,#672,#673,#674,#680));
#682=FACE_OUTER_BOUND('',#681,.T.);
#683=CARTESIAN_POINT('',(-12.5000000001,37.2638388534,-31.5));
#684=DIRECTION('',(-0.0,1.0,-0.0));
#685=DIRECTION('',(-1.0,-0.0,0.0));
#686=AXIS2_PLACEMENT_3D('',#683,#684,#685);
#687=PLANE('',#686);
#688=ADVANCED_FACE('no 1026',(#682),#687,.T.);
#689=CARTESIAN_POINT('',(-12.5,-37.2638388534,-16.5));
#690=DIRECTION('',(0.0,-1.0,0.0));
#691=VECTOR('',#690,1.0);
#692=LINE('',#689,#691);
#693=EDGE_CURVE('no 1052',#660,#347,#692,.T.);
#694=ORIENTED_EDGE('',*,*,#693,.F.);
#695=ORIENTED_EDGE('',*,*,#679,.F.);
#696=ORIENTED_EDGE('',*,*,#642,.T.);
#697=CARTESIAN_POINT('',(-12.5,-37.2638388534,-16.5));
#698=VERTEX_POINT('',#697);
#699=CARTESIAN_POINT('',(-12.5,-37.2638388534,-31.5));
#700=DIRECTION('',(0.0,0.0,1.0));
#701=VECTOR('',#700,1.0);
#702=LINE('',#699,#701);
#703=EDGE_CURVE('no 1062',#629,#698,#702,.T.);
#704=ORIENTED_EDGE('',*,*,#703,.T.);
#705=CARTESIAN_POINT('',(-12.5,-37.2638388534,-16.5));
#706=DIRECTION('',(0.0,-1.0,0.0));
#707=VECTOR('',#706,1.0);
#708=LINE('',#705,#707);
#709=EDGE_CURVE('no 1066',#347,#698,#708,.T.);
#710=ORIENTED_EDGE('',*,*,#709,.F.);
#711=EDGE_LOOP('',(#694,#695,#696,#704,#710));
#712=FACE_OUTER_BOUND('',#711,.T.);
#713=CARTESIAN_POINT('',(-12.5,-37.2638388534,-31.5));
#714=DIRECTION('',(-1.0,-0.0,0.0));
#715=DIRECTION('',(0.0,-1.0,0.0));
#716=AXIS2_PLACEMENT_3D('',#713,#714,#715);
#717=PLANE('',#716);
#718=ADVANCED_FACE('no 1047',(#712),#717,.T.);
#719=CARTESIAN_POINT('',(-12.5,-37.2638388534,-16.5));
#720=DIRECTION('',(1.0,0.0,-0.0));
#721=VECTOR('',#720,1.0);
#722=LINE('',#719,#721);
#723=EDGE_CURVE('no 1073',#698,#27,#722,.T.);
#724=ORIENTED_EDGE('',*,*,#723,.F.);
#725=ORIENTED_EDGE('',*,*,#703,.F.);
#726=ORIENTED_EDGE('',*,*,#634,.T.);
#727=ORIENTED_EDGE('',*,*,#144,.T.);
#728=ORIENTED_EDGE('',*,*,#618,.F.);
#729=EDGE_LOOP('',(#724,#725,#726,#727,#728));
#730=FACE_OUTER_BOUND('',#729,.T.);
#731=CARTESIAN_POINT('',(-12.5,-37.2638388534,-31.5));
#732=DIRECTION('',(0.0,-1.0,-0.0));
#733=DIRECTION('',(1.0,0.0,-0.0));
#734=AXIS2_PLACEMENT_3D('',#731,#732,#733);
#735=PLANE('',#734);
#736=ADVANCED_FACE('no 1068',(#730),#735,.T.);
#737=ORIENTED_EDGE('',*,*,#671,.T.);
#738=ORIENTED_EDGE('',*,*,#540,.T.);
#739=ORIENTED_EDGE('',*,*,#168,.T.);
#740=EDGE_LOOP('',(#737,#738,#739));
#741=FACE_OUTER_BOUND('',#740,.T.);
#742=CARTESIAN_POINT('',(75.555629035,0.0000000001,-16.5000000001));
#743=DIRECTION('',(0.0,0.0,1.0));
#744=DIRECTION('',(1.0,0.0,-0.0));
#745=AXIS2_PLACEMENT_3D('',#742,#743,#744);
#746=PLANE('',#745);
#747=ADVANCED_FACE('no 1083',(#741),#746,.T.);
#748=ORIENTED_EDGE('',*,*,#359,.F.);
#749=ORIENTED_EDGE('',*,*,#709,.T.);
#750=ORIENTED_EDGE('',*,*,#723,.T.);
#751=ORIENTED_EDGE('',*,*,#32,.F.);
#752=EDGE_LOOP('',(#748,#749,#750,#751));
#753=FACE_OUTER_BOUND('',#752,.T.);
#754=CARTESIAN_POINT('',(75.555629035,0.0000000001,-16.5000000001));
#755=DIRECTION('',(0.0,0.0,1.0));
#756=DIRECTION('',(1.0,0.0,-0.0));
#757=AXIS2_PLACEMENT_3D('',#754,#755,#756);
#758=PLANE('',#757);
#759=ADVANCED_FACE('no 1092',(#753),#758,.T.);
#760=ORIENTED_EDGE('',*,*,#240,.F.);
#761=ORIENTED_EDGE('',*,*,#665,.T.);
#762=ORIENTED_EDGE('',*,*,#693,.T.);
#763=CARTESIAN_POINT('',(-0.0,0.0,-16.5));
#764=DIRECTION('',(0.0,0.0,1.0));
#765=DIRECTION('',(1.0,0.0,-0.0));
#766=AXIS2_PLACEMENT_3D('',#763,#764,#765);
#767=CIRCLE('',#766,12.5);
#768=EDGE_CURVE('no 1114',#235,#347,#767,.T.);
#769=ORIENTED_EDGE('',*,*,#768,.F.);
#770=EDGE_LOOP('',(#760,#761,#762,#769));
#771=FACE_OUTER_BOUND('',#770,.T.);
#772=CARTESIAN_POINT('',(75.555629035,0.0000000001,-16.5000000001));
#773=DIRECTION('',(0.0,0.0,1.0));
#774=DIRECTION('',(1.0,0.0,-0.0));
#775=AXIS2_PLACEMENT_3D('',#772,#773,#774);
#776=PLANE('',#775);
#777=ADVANCED_FACE('no 1103',(#771),#776,.T.);
#778=ORIENTED_EDGE('',*,*,#72,.T.);
#779=ORIENTED_EDGE('',*,*,#444,.F.);
#780=EDGE_LOOP('',(#778,#779));
#781=FACE_OUTER_BOUND('',#780,.T.);
#782=CARTESIAN_POINT('',(75.555629035,0.0000000001,-16.5000000001));
#783=DIRECTION('',(0.0,0.0,1.0));
#784=DIRECTION('',(1.0,0.0,-0.0));
#785=AXIS2_PLACEMENT_3D('',#782,#783,#784);
#786=PLANE('',#785);
#787=ADVANCED_FACE('no 1116',(#781),#786,.T.);
#788=CARTESIAN_POINT('',(-0.0,0.0,-16.5));
#789=DIRECTION('',(-0.0,-0.0,-1.0));
#790=DIRECTION('',(1.0,0.0,-0.0));
#791=AXIS2_PLACEMENT_3D('',#788,#789,#790);
#792=CIRCLE('',#791,10.0);
#793=EDGE_CURVE('no 1128',#481,#490,#792,.T.);
#794=ORIENTED_EDGE('',*,*,#793,.F.);
#795=ORIENTED_EDGE('',*,*,#502,.F.);
#796=EDGE_LOOP('',(#794,#795));
#797=FACE_OUTER_BOUND('',#796,.T.);
#798=CARTESIAN_POINT('',(75.555629035,0.0000000001,-16.5000000001));
#799=DIRECTION('',(0.0,0.0,1.0));
#800=DIRECTION('',(1.0,0.0,-0.0));
#801=AXIS2_PLACEMENT_3D('',#798,#799,#800);
#802=PLANE('',#801);
#803=ADVANCED_FACE('no 1123',(#797),#802,.T.);
#804=ORIENTED_EDGE('',*,*,#335,.T.);
#805=ORIENTED_EDGE('',*,*,#287,.F.);
#806=ORIENTED_EDGE('',*,*,#589,.T.);
#807=ORIENTED_EDGE('',*,*,#248,.T.);
#808=ORIENTED_EDGE('',*,*,#768,.T.);
#809=ORIENTED_EDGE('',*,*,#352,.F.);
#810=ORIENTED_EDGE('',*,*,#403,.F.);
#811=EDGE_LOOP('',(#804,#805,#806,#807,#808,#809,#810));
#812=FACE_OUTER_BOUND('',#811,.T.);
#813=CARTESIAN_POINT('',(0.0,0.0,0.0));
#814=DIRECTION('',(-0.0,-0.0,-1.0));
#815=DIRECTION('',(0.0,-1.0,0.0));
#816=AXIS2_PLACEMENT_3D('',#813,#814,#815);
#817=CYLINDRICAL_SURFACE('',#816,12.5);
#818=ADVANCED_FACE('no 1133',(#812),#817,.T.);
#819=ORIENTED_EDGE('',*,*,#486,.F.);
#820=ORIENTED_EDGE('',*,*,#793,.T.);
#821=ORIENTED_EDGE('',*,*,#495,.T.);
#822=ORIENTED_EDGE('',*,*,#394,.T.);
#823=EDGE_LOOP('',(#819,#820,#821,#822));
#824=FACE_OUTER_BOUND('',#823,.T.);
#825=CARTESIAN_POINT('',(-0.0,0.0,-30.0));
#826=DIRECTION('',(0.0,0.0,1.0));
#827=DIRECTION('',(0.0,-1.0,-0.0));
#828=AXIS2_PLACEMENT_3D('',#825,#826,#827);
#829=CYLINDRICAL_SURFACE('',#828,10.0);
#830=ADVANCED_FACE('no 1151',(#824),#829,.F.);
#831=CLOSED_SHELL('',(
    #55,#223,#263,#328,#377,#413,#437,#461,#479,#511,
    #523,#535,#558,#581,#599,#611,#627,#658,#688,#718,
    #736,#747,#759,#777,#787,#803,#818,#830));
#832=MANIFOLD_SOLID_BREP('',#831);
#833=PRESENTATION_LAYER_ASSIGNMENT('1','Layer 1',(#832));
#834=COLOUR_RGB('',0.8,0.8,1.0);
#835=FILL_AREA_STYLE_COLOUR('',#834);
#836=FILL_AREA_STYLE('',(#835));
#837=SURFACE_STYLE_FILL_AREA(#836);
#838=SURFACE_SIDE_STYLE('',(#837));
#839=SURFACE_STYLE_USAGE(.BOTH.,#838);
#840=PRESENTATION_STYLE_ASSIGNMENT((#839));
#841=STYLED_ITEM('',(#840),#832);
#842=COLOUR_RGB('',0.79608,0.82353,0.93333);
#843=FILL_AREA_STYLE_COLOUR('',#842);
#844=FILL_AREA_STYLE('',(#843));
#845=SURFACE_STYLE_FILL_AREA(#844);
#846=SURFACE_SIDE_STYLE('',(#845));
#847=SURFACE_STYLE_USAGE(.BOTH.,#846);
#848=PRESENTATION_STYLE_ASSIGNMENT((#847));
#849=OVER_RIDING_STYLED_ITEM('',(#848),#55,#841);
#850=OVER_RIDING_STYLED_ITEM('',(#848),#223,#841);
#851=OVER_RIDING_STYLED_ITEM('',(#848),#263,#841);
#852=OVER_RIDING_STYLED_ITEM('',(#848),#328,#841);
#853=OVER_RIDING_STYLED_ITEM('',(#848),#377,#841);
#854=OVER_RIDING_STYLED_ITEM('',(#848),#413,#841);
#855=OVER_RIDING_STYLED_ITEM('',(#848),#437,#841);
#856=OVER_RIDING_STYLED_ITEM('',(#848),#461,#841);
#857=OVER_RIDING_STYLED_ITEM('',(#848),#479,#841);
#858=OVER_RIDING_STYLED_ITEM('',(#848),#511,#841);
#859=OVER_RIDING_STYLED_ITEM('',(#848),#523,#841);
#860=OVER_RIDING_STYLED_ITEM('',(#848),#535,#841);
#861=OVER_RIDING_STYLED_ITEM('',(#848),#558,#841);
#862=OVER_RIDING_STYLED_ITEM('',(#848),#581,#841);
#863=OVER_RIDING_STYLED_ITEM('',(#848),#599,#841);
#864=OVER_RIDING_STYLED_ITEM('',(#848),#611,#841);
#865=OVER_RIDING_STYLED_ITEM('',(#848),#627,#841);
#866=OVER_RIDING_STYLED_ITEM('',(#848),#658,#841);
#867=OVER_RIDING_STYLED_ITEM('',(#848),#688,#841);
#868=OVER_RIDING_STYLED_ITEM('',(#848),#718,#841);
#869=OVER_RIDING_STYLED_ITEM('',(#848),#736,#841);
#870=OVER_RIDING_STYLED_ITEM('',(#848),#747,#841);
#871=OVER_RIDING_STYLED_ITEM('',(#848),#759,#841);
#872=OVER_RIDING_STYLED_ITEM('',(#848),#777,#841);
#873=OVER_RIDING_STYLED_ITEM('',(#848),#787,#841);
#874=OVER_RIDING_STYLED_ITEM('',(#848),#803,#841);
#875=OVER_RIDING_STYLED_ITEM('',(#848),#818,#841);
#876=OVER_RIDING_STYLED_ITEM('',(#848),#830,#841);
#877=CARTESIAN_POINT('',(-12.5,-37.2638388534,-31.5));
#878=DIRECTION('',(1.0,0.0,0.0));
#879=VECTOR('',#878,1.0);
#880=LINE('',#877,#879);
#881=TRIMMED_CURVE('no 57',#880,(PARAMETER_VALUE(0.0)),(PARAMETER_VALUE(88.0556290349)),.T.,.PARAMETER.);
#882=PRESENTATION_LAYER_ASSIGNMENT('1','Layer 1',(#881));
#883=COLOUR_RGB('',0.0,0.0,0.50196);
#884=DRAUGHTING_PRE_DEFINED_CURVE_FONT('continuous');
#885=CURVE_STYLE('',#884,POSITIVE_LENGTH_MEASURE(1.0),#883);
#886=PRESENTATION_STYLE_ASSIGNMENT((#885));
#887=STYLED_ITEM('',(#886),#881);
#888=CARTESIAN_POINT('',(-12.5,37.2638388535,-31.5));
#889=DIRECTION('',(1.0,0.0,0.0));
#890=VECTOR('',#889,1.0);
#891=LINE('',#888,#890);
#892=TRIMMED_CURVE('no 58',#891,(PARAMETER_VALUE(0.0)),(PARAMETER_VALUE(88.0556290349)),.T.,.PARAMETER.);
#893=PRESENTATION_LAYER_ASSIGNMENT('1','Layer 1',(#892));
#894=STYLED_ITEM('',(#886),#892);
#895=CARTESIAN_POINT('',(-12.5,-37.2638388534,0.0));
#896=DIRECTION('',(1.0,0.0,0.0));
#897=VECTOR('',#896,1.0);
#898=LINE('',#895,#897);
#899=TRIMMED_CURVE('no 59',#898,(PARAMETER_VALUE(0.0)),(PARAMETER_VALUE(88.0556290349)),.T.,.PARAMETER.);
#900=PRESENTATION_LAYER_ASSIGNMENT('1','Layer 1',(#899));
#901=STYLED_ITEM('',(#886),#899);
#902=CARTESIAN_POINT('',(-12.5,37.2638388535,0.0));
#903=DIRECTION('',(1.0,0.0,0.0));
#904=VECTOR('',#903,1.0);
#905=LINE('',#902,#904);
#906=TRIMMED_CURVE('no 60',#905,(PARAMETER_VALUE(0.0)),(PARAMETER_VALUE(88.0556290349)),.T.,.PARAMETER.);
#907=PRESENTATION_LAYER_ASSIGNMENT('1','Layer 1',(#906));
#908=STYLED_ITEM('',(#886),#906);
#909=CARTESIAN_POINT('',(-12.5,-37.2638388534,-31.5));
#910=DIRECTION('',(0.0,1.0,0.0));
#911=VECTOR('',#910,1.0);
#912=LINE('',#909,#911);
#913=TRIMMED_CURVE('no 61',#912,(PARAMETER_VALUE(0.0)),(PARAMETER_VALUE(74.5276777069)),.T.,.PARAMETER.);
#914=PRESENTATION_LAYER_ASSIGNMENT('1','Layer 1',(#913));
#915=STYLED_ITEM('',(#886),#913);
#916=CARTESIAN_POINT('',(75.5556290349,-37.2638388534,-31.5));
#917=DIRECTION('',(0.0,1.0,0.0));
#918=VECTOR('',#917,1.0);
#919=LINE('',#916,#918);
#920=TRIMMED_CURVE('no 62',#919,(PARAMETER_VALUE(0.0)),(PARAMETER_VALUE(74.5276777069)),.T.,.PARAMETER.);
#921=PRESENTATION_LAYER_ASSIGNMENT('1','Layer 1',(#920));
#922=STYLED_ITEM('',(#886),#920);
#923=CARTESIAN_POINT('',(-12.5,-37.2638388534,0.0));
#924=DIRECTION('',(0.0,1.0,0.0));
#925=VECTOR('',#924,1.0);
#926=LINE('',#923,#925);
#927=TRIMMED_CURVE('no 63',#926,(PARAMETER_VALUE(0.0)),(PARAMETER_VALUE(74.5276777069)),.T.,.PARAMETER.);
#928=PRESENTATION_LAYER_ASSIGNMENT('1','Layer 1',(#927));
#929=STYLED_ITEM('',(#886),#927);
#930=CARTESIAN_POINT('',(75.5556290349,-37.2638388534,0.0));
#931=DIRECTION('',(0.0,1.0,0.0));
#932=VECTOR('',#931,1.0);
#933=LINE('',#930,#932);
#934=TRIMMED_CURVE('no 64',#933,(PARAMETER_VALUE(0.0)),(PARAMETER_VALUE(74.5276777069)),.T.,.PARAMETER.);
#935=PRESENTATION_LAYER_ASSIGNMENT('1','Layer 1',(#934));
#936=STYLED_ITEM('',(#886),#934);
#937=CARTESIAN_POINT('',(-12.5,-37.2638388534,-31.5));
#938=DIRECTION('',(0.0,0.0,1.0));
#939=VECTOR('',#938,1.0);
#940=LINE('',#937,#939);
#941=TRIMMED_CURVE('no 65',#940,(PARAMETER_VALUE(0.0)),(PARAMETER_VALUE(31.5)),.T.,.PARAMETER.);
#942=PRESENTATION_LAYER_ASSIGNMENT('1','Layer 1',(#941));
#943=STYLED_ITEM('',(#886),#941);
#944=CARTESIAN_POINT('',(75.5556290349,-37.2638388534,-31.5));
#945=DIRECTION('',(0.0,0.0,1.0));
#946=VECTOR('',#945,1.0);
#947=LINE('',#944,#946);
#948=TRIMMED_CURVE('no 66',#947,(PARAMETER_VALUE(0.0)),(PARAMETER_VALUE(31.5)),.T.,.PARAMETER.);
#949=PRESENTATION_LAYER_ASSIGNMENT('1','Layer 1',(#948));
#950=STYLED_ITEM('',(#886),#948);
#951=CARTESIAN_POINT('',(-12.5,37.2638388535,-31.5));
#952=DIRECTION('',(0.0,0.0,1.0));
#953=VECTOR('',#952,1.0);
#954=LINE('',#951,#953);
#955=TRIMMED_CURVE('no 67',#954,(PARAMETER_VALUE(0.0)),(PARAMETER_VALUE(31.5)),.T.,.PARAMETER.);
#956=PRESENTATION_LAYER_ASSIGNMENT('1','Layer 1',(#955));
#957=STYLED_ITEM('',(#886),#955);
#958=CARTESIAN_POINT('',(75.5556290349,37.2638388535,-31.5));
#959=DIRECTION('',(0.0,0.0,1.0));
#960=VECTOR('',#959,1.0);
#961=LINE('',#958,#960);
#962=TRIMMED_CURVE('no 68',#961,(PARAMETER_VALUE(0.0)),(PARAMETER_VALUE(31.5)),.T.,.PARAMETER.);
#963=PRESENTATION_LAYER_ASSIGNMENT('1','Layer 1',(#962));
#964=STYLED_ITEM('',(#886),#962);
#965=CARTESIAN_POINT('',(-0.0,0.0,-16.5));
#966=DIRECTION('',(0.0,0.0,1.0));
#967=DIRECTION('',(-0.0,1.0,-0.0));
#968=AXIS2_PLACEMENT_3D('',#965,#966,#967);
#969=CIRCLE('',#968,12.5);
#970=TRIMMED_CURVE('no 70',#969,(PARAMETER_VALUE(1.5707963268)),(PARAMETER_VALUE(3.1415926536)),.T.,.PARAMETER.);
#971=COMPOSITE_CURVE_SEGMENT(.CONTINUOUS.,.T.,#970);
#972=CARTESIAN_POINT('',(0.0,-12.5,-16.5));
#973=DIRECTION('',(0.9396926208,-0.3420201433,-0.0));
#974=VECTOR('',#973,1.0);
#975=LINE('',#972,#974);
#976=TRIMMED_CURVE('no 71',#975,(PARAMETER_VALUE(0.0)),(PARAMETER_VALUE(72.4046210045)),.T.,.PARAMETER.);
#977=COMPOSITE_CURVE_SEGMENT(.CONTINUOUS.,.T.,#976);
#978=COMPOSITE_CURVE('Wireframe',(#971,#977),.U.);
#979=PRESENTATION_LAYER_ASSIGNMENT('2','Layer 2',(#978));
#980=STYLED_ITEM('',(#886),#978);
#981=INVISIBILITY((#979));
#982=CARTESIAN_POINT('',(75.555629035,-31.9999999999,-16.5000000001));
#983=DIRECTION('',(-0.8191520443,-0.5735764364,0.0));
#984=VECTOR('',#983,1.0);
#985=LINE('',#982,#984);
#986=TRIMMED_CURVE('no 72',#985,(PARAMETER_VALUE(0.0)),(PARAMETER_VALUE(9.1772229816)),.T.,.PARAMETER.);
#987=PRESENTATION_LAYER_ASSIGNMENT('2','Layer 2',(#986));
#988=STYLED_ITEM('',(#886),#986);
#989=INVISIBILITY((#987));
#990=CARTESIAN_POINT('',(75.555629035,0.0000000001,-16.5000000001));
#991=DIRECTION('',(0.0,0.0,1.0));
#992=DIRECTION('',(-0.0,1.0,-0.0));
#993=AXIS2_PLACEMENT_3D('',#990,#991,#992);
#994=CIRCLE('',#993,25.0);
#995=TRIMMED_CURVE('no 73',#994,(PARAMETER_VALUE(0.0)),(PARAMETER_VALUE(3.1415926536)),.T.,.PARAMETER.);
#996=PRESENTATION_LAYER_ASSIGNMENT('2','Layer 2',(#995));
#997=STYLED_ITEM('',(#886),#995);
#998=INVISIBILITY((#996));
#999=CARTESIAN_POINT('',(68.0380880687,37.2638388535,-16.5000000001));
#1000=DIRECTION('',(0.8191520443,-0.5735764363,-0.0));
#1001=VECTOR('',#1000,1.0);
#1002=LINE('',#999,#1001);
#1003=TRIMMED_CURVE('no 74',#1002,(PARAMETER_VALUE(0.0)),(PARAMETER_VALUE(9.1772229816)),.T.,.PARAMETER.);
#1004=PRESENTATION_LAYER_ASSIGNMENT('2','Layer 2',(#1003));
#1005=STYLED_ITEM('',(#886),#1003);
#1006=INVISIBILITY((#1004));
#1007=CARTESIAN_POINT('',(68.0380880687,37.2638388535,-16.5000000001));
#1008=DIRECTION('',(-0.9396926208,-0.3420201433,0.0));
#1009=VECTOR('',#1008,1.0);
#1010=LINE('',#1007,#1009);
#1011=TRIMMED_CURVE('no 75',#1010,(PARAMETER_VALUE(0.0)),(PARAMETER_VALUE(72.4046210045)),.T.,.PARAMETER.);
#1012=COMPOSITE_CURVE_SEGMENT(.CONTINUOUS.,.T.,#1011);
#1013=CARTESIAN_POINT('',(-0.0,0.0,-16.5));
#1014=DIRECTION('',(0.0,0.0,1.0));
#1015=DIRECTION('',(-0.0,1.0,-0.0));
#1016=AXIS2_PLACEMENT_3D('',#1013,#1014,#1015);
#1017=CIRCLE('',#1016,12.5);
#1018=TRIMMED_CURVE('no 76',#1017,(PARAMETER_VALUE(0.0)),(PARAMETER_VALUE(1.5707963268)),.T.,.PARAMETER.);
#1019=COMPOSITE_CURVE_SEGMENT(.CONTINUOUS.,.T.,#1018);
#1020=COMPOSITE_CURVE('Wireframe',(#1012,#1019),.U.);
#1021=PRESENTATION_LAYER_ASSIGNMENT('2','Layer 2',(#1020));
#1022=STYLED_ITEM('',(#886),#1020);
#1023=INVISIBILITY((#1021));
#1024=CARTESIAN_POINT('',(75.555629035,-31.9999999999,-16.5000000001));
#1025=DIRECTION('',(-0.0,1.0,-0.0));
#1026=VECTOR('',#1025,1.0);
#1027=LINE('',#1024,#1026);
#1028=TRIMMED_CURVE('no 77',#1027,(PARAMETER_VALUE(0.0)),(PARAMETER_VALUE(7.0)),.T.,.PARAMETER.);
#1029=PRESENTATION_LAYER_ASSIGNMENT('2','Layer 2',(#1028));
#1030=STYLED_ITEM('',(#886),#1028);
#1031=INVISIBILITY((#1029));
#1032=CARTESIAN_POINT('',(75.555629035,25.0000000001,-16.5000000001));
#1033=DIRECTION('',(-0.0,1.0,0.0));
#1034=VECTOR('',#1033,1.0);
#1035=LINE('',#1032,#1034);
#1036=TRIMMED_CURVE('no 78',#1035,(PARAMETER_VALUE(0.0)),(PARAMETER_VALUE(7.0)),.T.,.PARAMETER.);
#1037=PRESENTATION_LAYER_ASSIGNMENT('2','Layer 2',(#1036));
#1038=STYLED_ITEM('',(#886),#1036);
#1039=INVISIBILITY((#1037));
#1040=CARTESIAN_POINT('',(-15.9721854825,-42.5,0.0));
#1041=DIRECTION('',(1.0,0.0,0.0));
#1042=VECTOR('',#1041,1.0);
#1043=LINE('',#1040,#1042);
#1044=TRIMMED_CURVE('no 182',#1043,(PARAMETER_VALUE(0.0)),(PARAMETER_VALUE(95.0)),.T.,.PARAMETER.);
#1045=PRESENTATION_LAYER_ASSIGNMENT('2','Layer 2',(#1044));
#1046=STYLED_ITEM('',(#886),#1044);
#1047=INVISIBILITY((#1045));
#1048=CARTESIAN_POINT('',(-15.9721854825,42.5,0.0));
#1049=DIRECTION('',(1.0,0.0,0.0));
#1050=VECTOR('',#1049,1.0);
#1051=LINE('',#1048,#1050);
#1052=TRIMMED_CURVE('no 183',#1051,(PARAMETER_VALUE(0.0)),(PARAMETER_VALUE(95.0)),.T.,.PARAMETER.);
#1053=PRESENTATION_LAYER_ASSIGNMENT('2','Layer 2',(#1052));
#1054=STYLED_ITEM('',(#886),#1052);
#1055=INVISIBILITY((#1053));
#1056=CARTESIAN_POINT('',(-15.9721854825,-42.5,0.0));
#1057=DIRECTION('',(0.0,1.0,0.0));
#1058=VECTOR('',#1057,1.0);
#1059=LINE('',#1056,#1058);
#1060=TRIMMED_CURVE('no 184',#1059,(PARAMETER_VALUE(0.0)),(PARAMETER_VALUE(85.0)),.T.,.PARAMETER.);
#1061=PRESENTATION_LAYER_ASSIGNMENT('2','Layer 2',(#1060));
#1062=STYLED_ITEM('',(#886),#1060);
#1063=INVISIBILITY((#1061));
#1064=CARTESIAN_POINT('',(79.0278145175,-42.5,0.0));
#1065=DIRECTION('',(0.0,1.0,0.0));
#1066=VECTOR('',#1065,1.0);
#1067=LINE('',#1064,#1066);
#1068=TRIMMED_CURVE('no 185',#1067,(PARAMETER_VALUE(0.0)),(PARAMETER_VALUE(85.0)),.T.,.PARAMETER.);
#1069=PRESENTATION_LAYER_ASSIGNMENT('2','Layer 2',(#1068));
#1070=STYLED_ITEM('',(#886),#1068);
#1071=INVISIBILITY((#1069));
#1072=CARTESIAN_POINT('',(-0.0,0.0,0.0));
#1073=DIRECTION('',(0.0,0.0,1.0));
#1074=DIRECTION('',(1.0,0.0,0.0));
#1075=AXIS2_PLACEMENT_3D('',#1072,#1073,#1074);
#1076=CIRCLE('',#1075,10.0);
#1077=PRESENTATION_LAYER_ASSIGNMENT('2','Layer 2',(#1076));
#1078=STYLED_ITEM('',(#886),#1076);
#1079=INVISIBILITY((#1077));
#1080=CARTESIAN_POINT('',(75.555629035,-29.9999999999,0.0));
#1081=DIRECTION('',(-0.0,1.0,0.0));
#1082=VECTOR('',#1081,1.0);
#1083=LINE('',#1080,#1082);
#1084=TRIMMED_CURVE('no 262',#1083,(PARAMETER_VALUE(0.0)),(PARAMETER_VALUE(4.0)),.T.,.PARAMETER.);
#1085=PRESENTATION_LAYER_ASSIGNMENT('2','Layer 2',(#1084));
#1086=STYLED_ITEM('',(#886),#1084);
#1087=INVISIBILITY((#1085));
#1088=CARTESIAN_POINT('',(75.555629035,26.0000000001,0.0));
#1089=DIRECTION('',(-0.0,1.0,0.0));
#1090=VECTOR('',#1089,1.0);
#1091=LINE('',#1088,#1090);
#1092=TRIMMED_CURVE('no 264',#1091,(PARAMETER_VALUE(0.0)),(PARAMETER_VALUE(4.0)),.T.,.PARAMETER.);
#1093=PRESENTATION_LAYER_ASSIGNMENT('2','Layer 2',(#1092));
#1094=STYLED_ITEM('',(#886),#1092);
#1095=INVISIBILITY((#1093));
#1096=CARTESIAN_POINT('',(75.555629035,26.0000000001,0.0));
#1097=DIRECTION('',(-0.0,1.0,0.0));
#1098=VECTOR('',#1097,1.0);
#1099=LINE('',#1096,#1098);
#1100=TRIMMED_CURVE('no 418',#1099,(PARAMETER_VALUE(0.0)),(PARAMETER_VALUE(4.0)),.T.,.PARAMETER.);
#1101=PRESENTATION_LAYER_ASSIGNMENT('2','Layer 2',(#1100));
#1102=STYLED_ITEM('',(#886),#1100);
#1103=INVISIBILITY((#1101));
#1104=CARTESIAN_POINT('',(75.555629035,-29.9999999999,0.0));
#1105=DIRECTION('',(-0.0,1.0,0.0));
#1106=VECTOR('',#1105,1.0);
#1107=LINE('',#1104,#1106);
#1108=TRIMMED_CURVE('no 422',#1107,(PARAMETER_VALUE(0.0)),(PARAMETER_VALUE(4.0)),.T.,.PARAMETER.);
#1109=PRESENTATION_LAYER_ASSIGNMENT('2','Layer 2',(#1108));
#1110=STYLED_ITEM('',(#886),#1108);
#1111=INVISIBILITY((#1109));
#1112=CARTESIAN_POINT('',(-0.0,12.5,0.0));
#1113=DIRECTION('',(0.9396926208,0.3420201433,0.0));
#1114=VECTOR('',#1113,1.0);
#1115=LINE('',#1112,#1114);
#1116=TRIMMED_CURVE('no 433',#1115,(PARAMETER_VALUE(0.0)),(PARAMETER_VALUE(72.4046210045)),.T.,.PARAMETER.);
#1117=PRESENTATION_LAYER_ASSIGNMENT('3','Layer 3',(#1116));
#1118=STYLED_ITEM('',(#886),#1116);
#1119=INVISIBILITY((#1117));
#1120=CARTESIAN_POINT('',(75.555629035,32.0000000001,0.0));
#1121=DIRECTION('',(-0.8191520443,0.5735764363,0.0));
#1122=VECTOR('',#1121,1.0);
#1123=LINE('',#1120,#1122);
#1124=TRIMMED_CURVE('no 435',#1123,(PARAMETER_VALUE(0.0)),(PARAMETER_VALUE(6.7356738041)),.T.,.PARAMETER.);
#1125=PRESENTATION_LAYER_ASSIGNMENT('3','Layer 3',(#1124));
#1126=STYLED_ITEM('',(#886),#1124);
#1127=INVISIBILITY((#1125));
#1128=CARTESIAN_POINT('',(68.0380880687,37.2638388535,0.0));
#1129=DIRECTION('',(0.8191520443,-0.5735764363,0.0));
#1130=VECTOR('',#1129,1.0);
#1131=LINE('',#1128,#1130);
#1132=TRIMMED_CURVE('no 437',#1131,(PARAMETER_VALUE(0.0)),(PARAMETER_VALUE(2.4415491775)),.T.,.PARAMETER.);
#1133=PRESENTATION_LAYER_ASSIGNMENT('3','Layer 3',(#1132));
#1134=STYLED_ITEM('',(#886),#1132);
#1135=INVISIBILITY((#1133));
#1136=CARTESIAN_POINT('',(75.555629035,31.0000000001,0.0));
#1137=DIRECTION('',(-0.0,1.0,0.0));
#1138=VECTOR('',#1137,1.0);
#1139=LINE('',#1136,#1138);
#1140=TRIMMED_CURVE('no 439',#1139,(PARAMETER_VALUE(0.0)),(PARAMETER_VALUE(1.0)),.T.,.PARAMETER.);
#1141=PRESENTATION_LAYER_ASSIGNMENT('3','Layer 3',(#1140));
#1142=STYLED_ITEM('',(#886),#1140);
#1143=INVISIBILITY((#1141));
#1144=CARTESIAN_POINT('',(75.555629035,31.0000000001,0.0));
#1145=DIRECTION('',(0.0,-1.0,0.0));
#1146=VECTOR('',#1145,1.0);
#1147=LINE('',#1144,#1146);
#1148=TRIMMED_CURVE('no 441',#1147,(PARAMETER_VALUE(0.0)),(PARAMETER_VALUE(1.0)),.T.,.PARAMETER.);
#1149=COMPOSITE_CURVE_SEGMENT(.CONTINUOUS.,.T.,#1148);
#1150=CARTESIAN_POINT('',(75.555629035,0.0000000001,0.0));
#1151=DIRECTION('',(0.0,0.0,1.0));
#1152=DIRECTION('',(1.0,0.0,0.0));
#1153=AXIS2_PLACEMENT_3D('',#1150,#1151,#1152);
#1154=CIRCLE('',#1153,30.0);
#1155=TRIMMED_CURVE('no 443',#1154,(PARAMETER_VALUE(1.5707963268)),(PARAMETER_VALUE(4.7123889804)),.T.,.PARAMETER.);
#1156=COMPOSITE_CURVE_SEGMENT(.CONTINUOUS.,.T.,#1155);
#1157=CARTESIAN_POINT('',(75.555629035,-29.9999999999,0.0));
#1158=DIRECTION('',(0.0,-1.0,0.0));
#1159=VECTOR('',#1158,1.0);
#1160=LINE('',#1157,#1159);
#1161=TRIMMED_CURVE('no 445',#1160,(PARAMETER_VALUE(0.0)),(PARAMETER_VALUE(1.0)),.T.,.PARAMETER.);
#1162=COMPOSITE_CURVE_SEGMENT(.CONTINUOUS.,.T.,#1161);
#1163=COMPOSITE_CURVE('Wireframe',(#1149,#1156,#1162),.U.);
#1164=PRESENTATION_LAYER_ASSIGNMENT('3','Layer 3',(#1163));
#1165=STYLED_ITEM('',(#886),#1163);
#1166=INVISIBILITY((#1164));
#1167=CARTESIAN_POINT('',(75.555629035,-31.9999999999,0.0));
#1168=DIRECTION('',(-0.0,1.0,0.0));
#1169=VECTOR('',#1168,1.0);
#1170=LINE('',#1167,#1169);
#1171=TRIMMED_CURVE('no 447',#1170,(PARAMETER_VALUE(0.0)),(PARAMETER_VALUE(1.0)),.T.,.PARAMETER.);
#1172=PRESENTATION_LAYER_ASSIGNMENT('3','Layer 3',(#1171));
#1173=STYLED_ITEM('',(#886),#1171);
#1174=INVISIBILITY((#1172));
#1175=CARTESIAN_POINT('',(70.0380880688,-35.8634237769,0.0));
#1176=DIRECTION('',(0.8191520443,0.5735764364,0.0));
#1177=VECTOR('',#1176,1.0);
#1178=LINE('',#1175,#1177);
#1179=TRIMMED_CURVE('no 449',#1178,(PARAMETER_VALUE(0.0)),(PARAMETER_VALUE(6.7356738041)),.T.,.PARAMETER.);
#1180=PRESENTATION_LAYER_ASSIGNMENT('3','Layer 3',(#1179));
#1181=STYLED_ITEM('',(#886),#1179);
#1182=INVISIBILITY((#1180));
#1183=CARTESIAN_POINT('',(70.0380880688,-35.8634237769,0.0));
#1184=DIRECTION('',(-0.8191520443,-0.5735764364,0.0));
#1185=VECTOR('',#1184,1.0);
#1186=LINE('',#1183,#1185);
#1187=TRIMMED_CURVE('no 451',#1186,(PARAMETER_VALUE(0.0)),(PARAMETER_VALUE(2.4415491775)),.T.,.PARAMETER.);
#1188=COMPOSITE_CURVE_SEGMENT(.CONTINUOUS.,.T.,#1187);
#1189=CARTESIAN_POINT('',(68.0380880688,-37.2638388533,0.0));
#1190=DIRECTION('',(-0.9396926208,0.3420201433,0.0));
#1191=VECTOR('',#1190,1.0);
#1192=LINE('',#1189,#1191);
#1193=TRIMMED_CURVE('no 453',#1192,(PARAMETER_VALUE(0.0)),(PARAMETER_VALUE(72.4046210045)),.T.,.PARAMETER.);
#1194=COMPOSITE_CURVE_SEGMENT(.CONTINUOUS.,.T.,#1193);
#1195=CARTESIAN_POINT('',(0.0,-12.5,0.0));
#1196=CARTESIAN_POINT('',(1.370952554,-12.5,0.0));
#1197=CARTESIAN_POINT('',(2.7235595135,-12.2764707665,0.0));
#1198=CARTESIAN_POINT('',(4.0216206781,-11.8353946754,0.0));
#1199=(BOUNDED_CURVE() B_SPLINE_CURVE(3,(#1195,#1196,#1197,#1198),.UNSPECIFIED.,.F.,.U.)
  B_SPLINE_CURVE_WITH_KNOTS((4,4),(0.0,1.0),.UNSPECIFIED.)
  CURVE() GEOMETRIC_REPRESENTATION_ITEM() RATIONAL_B_SPLINE_CURVE((1.0,0.9910789062,0.9910789062,1.0))  REPRESENTATION_ITEM('') );
#1200=COMPOSITE_CURVE_SEGMENT(.CONTINUOUS.,.T.,#1199);
#1201=CARTESIAN_POINT('',(-0.0,0.0,0.0));
#1202=DIRECTION('',(0.0,0.0,1.0));
#1203=DIRECTION('',(1.0,0.0,0.0));
#1204=AXIS2_PLACEMENT_3D('',#1201,#1202,#1203);
#1205=CIRCLE('',#1204,12.5);
#1206=TRIMMED_CURVE('no 457',#1205,(PARAMETER_VALUE(-1.2432406238)),(PARAMETER_VALUE(1.2432406238)),.T.,.PARAMETER.);
#1207=COMPOSITE_CURVE_SEGMENT(.CONTINUOUS.,.T.,#1206);
#1208=CARTESIAN_POINT('',(4.021620678,11.8353946754,0.0));
#1209=CARTESIAN_POINT('',(2.7235595135,12.2764707665,0.0));
#1210=CARTESIAN_POINT('',(1.3709525539,12.5,0.0));
#1211=CARTESIAN_POINT('',(-0.0,12.5,0.0));
#1212=(BOUNDED_CURVE() B_SPLINE_CURVE(3,(#1208,#1209,#1210,#1211),.UNSPECIFIED.,.F.,.U.)
  B_SPLINE_CURVE_WITH_KNOTS((4,4),(0.0,1.0),.UNSPECIFIED.)
  CURVE() GEOMETRIC_REPRESENTATION_ITEM() RATIONAL_B_SPLINE_CURVE((1.0,0.9910789062,0.9910789062,1.0))  REPRESENTATION_ITEM('') );
#1213=COMPOSITE_CURVE_SEGMENT(.CONTINUOUS.,.T.,#1212);
#1214=COMPOSITE_CURVE('Wireframe',(#1188,#1194,#1200,#1207,#1213),.U.);
#1215=PRESENTATION_LAYER_ASSIGNMENT('3','Layer 3',(#1214));
#1216=STYLED_ITEM('',(#886),#1214);
#1217=INVISIBILITY((#1215));
#1218=CARTESIAN_POINT('',(75.555629035,0.0000000001,0.0));
#1219=DIRECTION('',(0.0,0.0,1.0));
#1220=DIRECTION('',(1.0,0.0,0.0));
#1221=AXIS2_PLACEMENT_3D('',#1218,#1219,#1220);
#1222=CIRCLE('',#1221,30.0);
#1223=TRIMMED_CURVE('no 476',#1222,(PARAMETER_VALUE(1.5707963268)),(PARAMETER_VALUE(4.7123889804)),.T.,.PARAMETER.);
#1224=PRESENTATION_LAYER_ASSIGNMENT('4','Layer 4',(#1223));
#1225=STYLED_ITEM('',(#886),#1223);
#1226=INVISIBILITY((#1224));
#1227=CARTESIAN_POINT('',(75.555629035,0.0000000001,0.0));
#1228=DIRECTION('',(0.0,0.0,1.0));
#1229=DIRECTION('',(1.0,0.0,0.0));
#1230=AXIS2_PLACEMENT_3D('',#1227,#1228,#1229);
#1231=CIRCLE('',#1230,25.0);
#1232=TRIMMED_CURVE('no 478',#1231,(PARAMETER_VALUE(1.5707963268)),(PARAMETER_VALUE(4.7123889804)),.T.,.PARAMETER.);
#1233=PRESENTATION_LAYER_ASSIGNMENT('4','Layer 4',(#1232));
#1234=STYLED_ITEM('',(#886),#1232);
#1235=INVISIBILITY((#1233));
#1236=CARTESIAN_POINT('',(75.555629035,26.0000000001,0.0));
#1237=DIRECTION('',(-0.0,1.0,0.0));
#1238=VECTOR('',#1237,1.0);
#1239=LINE('',#1236,#1238);
#1240=TRIMMED_CURVE('no 480',#1239,(PARAMETER_VALUE(0.0)),(PARAMETER_VALUE(4.0)),.T.,.PARAMETER.);
#1241=PRESENTATION_LAYER_ASSIGNMENT('4','Layer 4',(#1240));
#1242=STYLED_ITEM('',(#886),#1240);
#1243=INVISIBILITY((#1241));
#1244=CARTESIAN_POINT('',(75.555629035,26.0000000001,0.0));
#1245=DIRECTION('',(0.0,-1.0,0.0));
#1246=VECTOR('',#1245,1.0);
#1247=LINE('',#1244,#1246);
#1248=TRIMMED_CURVE('no 482',#1247,(PARAMETER_VALUE(0.0)),(PARAMETER_VALUE(1.0)),.T.,.PARAMETER.);
#1249=PRESENTATION_LAYER_ASSIGNMENT('4','Layer 4',(#1248));
#1250=STYLED_ITEM('',(#886),#1248);
#1251=INVISIBILITY((#1249));
#1252=CARTESIAN_POINT('',(75.555629035,-29.9999999999,0.0));
#1253=DIRECTION('',(-0.0,1.0,0.0));
#1254=VECTOR('',#1253,1.0);
#1255=LINE('',#1252,#1254);
#1256=TRIMMED_CURVE('no 484',#1255,(PARAMETER_VALUE(0.0)),(PARAMETER_VALUE(4.0)),.T.,.PARAMETER.);
#1257=PRESENTATION_LAYER_ASSIGNMENT('4','Layer 4',(#1256));
#1258=STYLED_ITEM('',(#886),#1256);
#1259=INVISIBILITY((#1257));
#1260=CARTESIAN_POINT('',(75.555629035,-24.9999999999,0.0));
#1261=DIRECTION('',(0.0,-1.0,0.0));
#1262=VECTOR('',#1261,1.0);
#1263=LINE('',#1260,#1262);
#1264=TRIMMED_CURVE('no 486',#1263,(PARAMETER_VALUE(0.0)),(PARAMETER_VALUE(1.0)),.T.,.PARAMETER.);
#1265=PRESENTATION_LAYER_ASSIGNMENT('4','Layer 4',(#1264));
#1266=STYLED_ITEM('',(#886),#1264);
#1267=INVISIBILITY((#1265));
#1268=CARTESIAN_POINT('Point',(31.5278145175,0.0,-15.75));
#1269=PRESENTATION_LAYER_ASSIGNMENT('1','Layer 1',(#1268));
#1270=PRE_DEFINED_MARKER('asterisk');
#1271=POINT_STYLE('',#1270,POSITIVE_LENGTH_MEASURE(1.0),#883);
#1272=PRESENTATION_STYLE_ASSIGNMENT((#1271));
#1273=STYLED_ITEM('',(#1272),#1268);
#1274=CARTESIAN_POINT('Point',(-12.5,0.0,-15.75));
#1275=PRESENTATION_LAYER_ASSIGNMENT('2','Layer 2',(#1274));
#1276=STYLED_ITEM('',(#1272),#1274);
#1277=INVISIBILITY((#1275));
#1278=CARTESIAN_POINT('Point',(75.5556290349,0.0,-15.75));
#1279=PRESENTATION_LAYER_ASSIGNMENT('2','Layer 2',(#1278));
#1280=STYLED_ITEM('',(#1272),#1278);
#1281=INVISIBILITY((#1279));
#1282=CARTESIAN_POINT('Point',(31.5278145175,-37.2638388534,-15.75));
#1283=PRESENTATION_LAYER_ASSIGNMENT('2','Layer 2',(#1282));
#1284=STYLED_ITEM('',(#1272),#1282);
#1285=INVISIBILITY((#1283));
#1286=CARTESIAN_POINT('Point',(31.5278145175,37.2638388535,-15.75));
#1287=PRESENTATION_LAYER_ASSIGNMENT('2','Layer 2',(#1286));
#1288=STYLED_ITEM('',(#1272),#1286);
#1289=INVISIBILITY((#1287));
#1290=CARTESIAN_POINT('Point',(31.5278145175,0.0,0.0));
#1291=PRESENTATION_LAYER_ASSIGNMENT('2','Layer 2',(#1290));
#1292=STYLED_ITEM('',(#1272),#1290);
#1293=INVISIBILITY((#1291));
#1294=CARTESIAN_POINT('Point',(31.5278145175,0.0,-31.5));
#1295=PRESENTATION_LAYER_ASSIGNMENT('2','Layer 2',(#1294));
#1296=STYLED_ITEM('',(#1272),#1294);
#1297=INVISIBILITY((#1295));
#1298=GEOMETRIC_CURVE_SET('Wireframe',(
    #881,#892,#899,#906,#913,#920,#927,#934,#941,#948,#955,#962,#978,#986,#995,#1003,#1020,#1028,#1036,#1044,
    #1052,#1060,#1068,#1076,#1084,#1092,#1100,#1108,#1116,#1124,#1132,#1140,#1163,#1171,#1179,#1214,#1223,#1232,#1240,#1248,
    #1256,#1264,#1268,#1274,#1278,#1282,#1286,#1290,#1294));
#1299=CARTESIAN_POINT('',(0.,0.,0.));
#1300=DIRECTION('',(0.,0.,1.));
#1301=DIRECTION('',(1.,0.,0.));
#1302=AXIS2_PLACEMENT_3D('Reference Axes',#1299,#1300,#1301);
#1303=ADVANCED_BREP_SHAPE_REPRESENTATION('',(#1302,#832),#5);
#1304=GEOMETRICALLY_BOUNDED_WIREFRAME_SHAPE_REPRESENTATION('',(#1302,#1298),#5);
#1305=SHAPE_REPRESENTATION('',(#1302),#5);
#1306=SHAPE_REPRESENTATION_RELATIONSHIP('','',#1303,#1305);
#1307=SHAPE_REPRESENTATION_RELATIONSHIP('','',#1304,#1305);
#1308=SHAPE_DEFINITION_REPRESENTATION(#12,#1305);
#1309=MECHANICAL_DESIGN_GEOMETRIC_PRESENTATION_REPRESENTATION('',(
    #841,#849,#850,#851,#852,#853,#854,#855,#856,#857,
    #858,#859,#860,#861,#862,#863,#864,#865,#866,#867,
    #868,#869,#870,#871,#872,#873,#874,#875,#876,#887,
    #894,#901,#908,#915,#922,#929,#936,#943,#950,#957,
    #964,#980,#988,#997,#1005,#1022,#1030,#1038,#1046,#1054,
    #1062,#1070,#1078,#1086,#1094,#1102,#1110,#1118,#1126,#1134,
    #1142,#1165,#1173,#1181,#1216,#1225,#1234,#1242,#1250,#1258,
    #1266,#1273,#1276,#1280,#1284,#1288,#1292,#1296),#5);
ENDSEC;
END-ISO-10303-21;
