ISO-10303-21;

HEADER;
FILE_DESCRIPTION((' '),'2;1');
FILE_NAME( 'gear shift fork (1).stp',
           '2026-10-09T23:46:12',
           (' '),
           ('--- Datakit www.datakit.com---'),
           ' Datakit CrossCadWare V2024.1  Dec 21 2023',
           'Mastercam 2025',
           ' ');
FILE_SCHEMA(('AUTOMOTIVE_DESIGN { 1 0 10303 214 1 1 1 1 }'));
ENDSEC;

DATA;
#1=APPLICATION_CONTEXT('core data for automotive mechanical design processes');
#2=APPLICATION_PROTOCOL_DEFINITION('international standard','automotive_design',2000,#1);
#3=(LENGTH_UNIT()NAMED_UNIT(*)SI_UNIT(.MILLI.,.METRE.));
#4=(NAMED_UNIT(*)PLANE_ANGLE_UNIT()SI_UNIT($,.RADIAN.));
#5=( GEOMETRIC_REPRESENTATION_CONTEXT(3)
       GLOBAL_UNCERTAINTY_ASSIGNED_CONTEXT((#6)) GLOBAL_UNIT_ASSIGNED_CONTEXT
  ((#3,#4)) REPRESENTATION_CONTEXT('Context #1',
  '3D Context with UNIT and UNCERTAINTY') );
#6=UNCERTAINTY_MEASURE_WITH_UNIT(LENGTH_MEASURE(0.005),#3,'distance_accuracy_value','Confusion accuracy');
#7=PRODUCT_CONTEXT('',#1,'mechanical');
#8=PRODUCT('gear shift fork (1)','','',(#7));
#9=PRODUCT_DEFINITION_FORMATION('','',#8);
#10=PRODUCT_DEFINITION_CONTEXT('part definition',#1,'design');
#11=PRODUCT_DEFINITION('design','',#9,#10);
#12=PRODUCT_DEFINITION_SHAPE('','',#11);
#13=PRODUCT_CATEGORY('part',$);
#14=PRODUCT_RELATED_PRODUCT_CATEGORY('part',$,(#8));
#15=PRODUCT_CATEGORY_RELATIONSHIP('','',#13,#14);
#16=CARTESIAN_POINT('',(44.0278145175,-30.0,-21.5));
#17=VERTEX_POINT('',#16);
#18=CARTESIAN_POINT('',(44.0278145175,-30.0,-17.5));
#19=VERTEX_POINT('',#18);
#20=CARTESIAN_POINT('',(44.0278145175,-30.0,-30.0));
#21=DIRECTION('',(0.0,0.0,1.0));
#22=VECTOR('',#21,1.0);
#23=LINE('',#20,#22);
#24=EDGE_CURVE('no 622',#17,#19,#23,.T.);
#25=ORIENTED_EDGE('',*,*,#24,.F.);
#26=CARTESIAN_POINT('',(44.0278145175,30.0,-21.5));
#27=VERTEX_POINT('',#26);
#28=CARTESIAN_POINT('',(44.0278145175,0.0,-21.5));
#29=DIRECTION('',(-0.0,-0.0,-1.0));
#30=DIRECTION('',(1.0,0.0,-0.0));
#31=AXIS2_PLACEMENT_3D('',#28,#29,#30);
#32=CIRCLE('',#31,30.0);
#33=EDGE_CURVE('no 628',#17,#27,#32,.T.);
#34=ORIENTED_EDGE('',*,*,#33,.T.);
#35=CARTESIAN_POINT('',(44.0278145175,30.0,-17.5));
#36=VERTEX_POINT('',#35);
#37=CARTESIAN_POINT('',(44.0278145175,30.0,-30.0));
#38=DIRECTION('',(-0.0,0.0,-1.0));
#39=VECTOR('',#38,1.0);
#40=LINE('',#37,#39);
#41=EDGE_CURVE('no 634',#36,#27,#40,.T.);
#42=ORIENTED_EDGE('',*,*,#41,.F.);
#43=CARTESIAN_POINT('',(44.0278145175,0.0,-17.5));
#44=DIRECTION('',(0.0,0.0,1.0));
#45=DIRECTION('',(1.0,0.0,-0.0));
#46=AXIS2_PLACEMENT_3D('',#43,#44,#45);
#47=CIRCLE('',#46,30.0);
#48=EDGE_CURVE('no 638',#36,#19,#47,.T.);
#49=ORIENTED_EDGE('',*,*,#48,.T.);
#50=EDGE_LOOP('',(#25,#34,#42,#49));
#51=FACE_OUTER_BOUND('',#50,.T.);
#52=CARTESIAN_POINT('',(44.0278145175,0.0,-30.0));
#53=DIRECTION('',(0.0,0.0,1.0));
#54=DIRECTION('',(1.0,0.0,-0.0));
#55=AXIS2_PLACEMENT_3D('',#52,#53,#54);
#56=CYLINDRICAL_SURFACE('',#55,30.0);
#57=ADVANCED_FACE('no 613',(#51),#56,.F.);
#58=CARTESIAN_POINT('',(44.0278145175,-32.0,-7.5));
#59=VERTEX_POINT('',#58);
#60=CARTESIAN_POINT('',(44.0278145175,-31.0,-7.5));
#61=VERTEX_POINT('',#60);
#62=CARTESIAN_POINT('',(44.0278145175,-40.0,-7.5));
#63=DIRECTION('',(0.0,1.0,0.0));
#64=VECTOR('',#63,1.0);
#65=LINE('',#62,#64);
#66=EDGE_CURVE('no 649',#59,#61,#65,.T.);
#67=ORIENTED_EDGE('',*,*,#66,.F.);
#68=CARTESIAN_POINT('',(44.0278145175,-32.0,-22.5));
#69=VERTEX_POINT('',#68);
#70=CARTESIAN_POINT('',(44.0278145175,-32.0,-7.5));
#71=DIRECTION('',(-0.0,0.0,-1.0));
#72=VECTOR('',#71,1.0);
#73=LINE('',#70,#72);
#74=EDGE_CURVE('no 655',#59,#69,#73,.T.);
#75=ORIENTED_EDGE('',*,*,#74,.T.);
#76=CARTESIAN_POINT('',(44.0278145175,-31.0,-22.5));
#77=VERTEX_POINT('',#76);
#78=CARTESIAN_POINT('',(44.0278145175,-40.0,-22.5));
#79=DIRECTION('',(0.0,1.0,0.0));
#80=VECTOR('',#79,1.0);
#81=LINE('',#78,#80);
#82=EDGE_CURVE('no 661',#69,#77,#81,.T.);
#83=ORIENTED_EDGE('',*,*,#82,.T.);
#84=CARTESIAN_POINT('',(44.0278145175,0.0,8.5));
#85=DIRECTION('',(0.0,0.7071067812,0.7071067812));
#86=VECTOR('',#85,1.0);
#87=LINE('',#84,#86);
#88=EDGE_CURVE('no 665',#77,#17,#87,.T.);
#89=ORIENTED_EDGE('',*,*,#88,.T.);
#90=ORIENTED_EDGE('',*,*,#24,.T.);
#91=CARTESIAN_POINT('',(44.0278145175,-26.0,-17.5));
#92=VERTEX_POINT('',#91);
#93=CARTESIAN_POINT('',(44.0278145175,-30.0,-17.5));
#94=DIRECTION('',(0.0,1.0,0.0));
#95=VECTOR('',#94,1.0);
#96=LINE('',#93,#95);
#97=EDGE_CURVE('no 673',#19,#92,#96,.T.);
#98=ORIENTED_EDGE('',*,*,#97,.T.);
#99=CARTESIAN_POINT('',(44.0278145175,-25.0,-16.5));
#100=VERTEX_POINT('',#99);
#101=CARTESIAN_POINT('',(44.0278145175,0.0,8.5));
#102=DIRECTION('',(0.0,0.7071067812,0.7071067812));
#103=VECTOR('',#102,1.0);
#104=LINE('',#101,#103);
#105=EDGE_CURVE('no 679',#92,#100,#104,.T.);
#106=ORIENTED_EDGE('',*,*,#105,.T.);
#107=CARTESIAN_POINT('',(44.0278145175,-25.0,-13.5));
#108=VERTEX_POINT('',#107);
#109=CARTESIAN_POINT('',(44.0278145175,-25.0,-12.5));
#110=DIRECTION('',(0.0,0.0,-1.0));
#111=VECTOR('',#110,1.0);
#112=LINE('',#109,#111);
#113=EDGE_CURVE('no 685',#108,#100,#112,.T.);
#114=ORIENTED_EDGE('',*,*,#113,.F.);
#115=CARTESIAN_POINT('',(44.0278145175,-26.0,-12.5));
#116=VERTEX_POINT('',#115);
#117=CARTESIAN_POINT('',(44.0278145175,0.0,-38.5));
#118=DIRECTION('',(0.0,-0.7071067812,0.7071067812));
#119=VECTOR('',#118,1.0);
#120=LINE('',#117,#119);
#121=EDGE_CURVE('no 691',#108,#116,#120,.T.);
#122=ORIENTED_EDGE('',*,*,#121,.T.);
#123=CARTESIAN_POINT('',(44.0278145175,-30.0,-12.5));
#124=VERTEX_POINT('',#123);
#125=CARTESIAN_POINT('',(44.0278145175,-30.0,-12.5));
#126=DIRECTION('',(0.0,1.0,0.0));
#127=VECTOR('',#126,1.0);
#128=LINE('',#125,#127);
#129=EDGE_CURVE('no 697',#124,#116,#128,.T.);
#130=ORIENTED_EDGE('',*,*,#129,.F.);
#131=CARTESIAN_POINT('',(44.0278145175,-30.0,-8.5));
#132=VERTEX_POINT('',#131);
#133=CARTESIAN_POINT('',(44.0278145175,-30.0,-30.0));
#134=DIRECTION('',(0.0,0.0,1.0));
#135=VECTOR('',#134,1.0);
#136=LINE('',#133,#135);
#137=EDGE_CURVE('no 703',#124,#132,#136,.T.);
#138=ORIENTED_EDGE('',*,*,#137,.T.);
#139=CARTESIAN_POINT('',(44.0278145175,0.0,-38.5));
#140=DIRECTION('',(0.0,-0.7071067812,0.7071067812));
#141=VECTOR('',#140,1.0);
#142=LINE('',#139,#141);
#143=EDGE_CURVE('no 707',#132,#61,#142,.T.);
#144=ORIENTED_EDGE('',*,*,#143,.T.);
#145=EDGE_LOOP('',(
    #67,#75,#83,#89,#90,#98,#106,#114,#122,#130,
    #138,#144));
#146=FACE_OUTER_BOUND('',#145,.T.);
#147=CARTESIAN_POINT('',(44.0278145175,-40.0,-7.5));
#148=DIRECTION('',(-1.0,-0.0,0.0));
#149=DIRECTION('',(0.0,-1.0,0.0));
#150=AXIS2_PLACEMENT_3D('',#147,#148,#149);
#151=PLANE('',#150);
#152=ADVANCED_FACE('no 640',(#146),#151,.F.);
#153=CARTESIAN_POINT('',(-31.5278145175,-12.5,-9.5));
#154=VERTEX_POINT('',#153);
#155=CARTESIAN_POINT('',(-31.5278145175,-12.5,-20.5));
#156=VERTEX_POINT('',#155);
#157=CARTESIAN_POINT('',(-31.5278145175,-12.5,-7.5));
#158=DIRECTION('',(0.0,0.0,-1.0));
#159=VECTOR('',#158,1.0);
#160=LINE('',#157,#159);
#161=EDGE_CURVE('no 718',#154,#156,#160,.T.);
#162=ORIENTED_EDGE('',*,*,#161,.T.);
#163=CARTESIAN_POINT('',(36.5102735512,-37.2638388534,-20.5));
#164=VERTEX_POINT('',#163);
#165=CARTESIAN_POINT('',(-31.5278145175,-12.5,-20.5));
#166=DIRECTION('',(0.9396926208,-0.3420201433,0.0));
#167=VECTOR('',#166,1.0);
#168=LINE('',#165,#167);
#169=EDGE_CURVE('no 724',#156,#164,#168,.T.);
#170=ORIENTED_EDGE('',*,*,#169,.T.);
#171=CARTESIAN_POINT('',(36.5102735512,-37.2638388534,-9.5));
#172=VERTEX_POINT('',#171);
#173=CARTESIAN_POINT('',(36.5102735512,-37.2638388534,-7.5));
#174=DIRECTION('',(0.0,0.0,1.0));
#175=VECTOR('',#174,1.0);
#176=LINE('',#173,#175);
#177=EDGE_CURVE('no 730',#164,#172,#176,.T.);
#178=ORIENTED_EDGE('',*,*,#177,.T.);
#179=CARTESIAN_POINT('',(-31.5278145175,-12.5,-9.5));
#180=DIRECTION('',(-0.9396926208,0.3420201433,0.0));
#181=VECTOR('',#180,1.0);
#182=LINE('',#179,#181);
#183=EDGE_CURVE('no 734',#172,#154,#182,.T.);
#184=ORIENTED_EDGE('',*,*,#183,.T.);
#185=EDGE_LOOP('',(#162,#170,#178,#184));
#186=FACE_OUTER_BOUND('',#185,.T.);
#187=CARTESIAN_POINT('',(-31.5278145175,-12.5,-7.5));
#188=DIRECTION('',(0.3420201433,0.9396926208,-0.0));
#189=DIRECTION('',(-0.9396926208,0.3420201433,0.0));
#190=AXIS2_PLACEMENT_3D('',#187,#188,#189);
#191=PLANE('',#190);
#192=ADVANCED_FACE('no 709',(#186),#191,.F.);
#193=CARTESIAN_POINT('',(44.0278145175,31.0,-22.5));
#194=VERTEX_POINT('',#193);
#195=CARTESIAN_POINT('',(44.0278145175,32.0,-22.5));
#196=VERTEX_POINT('',#195);
#197=CARTESIAN_POINT('',(44.0278145175,-40.0,-22.5));
#198=DIRECTION('',(0.0,1.0,0.0));
#199=VECTOR('',#198,1.0);
#200=LINE('',#197,#199);
#201=EDGE_CURVE('no 745',#194,#196,#200,.T.);
#202=ORIENTED_EDGE('',*,*,#201,.T.);
#203=CARTESIAN_POINT('',(44.0278145175,32.0,-7.5));
#204=VERTEX_POINT('',#203);
#205=CARTESIAN_POINT('',(44.0278145175,32.0,-7.5));
#206=DIRECTION('',(0.0,0.0,1.0));
#207=VECTOR('',#206,1.0);
#208=LINE('',#205,#207);
#209=EDGE_CURVE('no 751',#196,#204,#208,.T.);
#210=ORIENTED_EDGE('',*,*,#209,.T.);
#211=CARTESIAN_POINT('',(44.0278145175,31.0,-7.5));
#212=VERTEX_POINT('',#211);
#213=CARTESIAN_POINT('',(44.0278145175,-40.0,-7.5));
#214=DIRECTION('',(0.0,1.0,0.0));
#215=VECTOR('',#214,1.0);
#216=LINE('',#213,#215);
#217=EDGE_CURVE('no 757',#212,#204,#216,.T.);
#218=ORIENTED_EDGE('',*,*,#217,.F.);
#219=CARTESIAN_POINT('',(44.0278145175,30.0,-8.5));
#220=VERTEX_POINT('',#219);
#221=CARTESIAN_POINT('',(44.0278145175,0.0,-38.5));
#222=DIRECTION('',(0.0,-0.7071067812,-0.7071067812));
#223=VECTOR('',#222,1.0);
#224=LINE('',#221,#223);
#225=EDGE_CURVE('no 763',#212,#220,#224,.T.);
#226=ORIENTED_EDGE('',*,*,#225,.T.);
#227=CARTESIAN_POINT('',(44.0278145175,30.0,-12.5));
#228=VERTEX_POINT('',#227);
#229=CARTESIAN_POINT('',(44.0278145175,30.0,-30.0));
#230=DIRECTION('',(0.0,0.0,-1.0));
#231=VECTOR('',#230,1.0);
#232=LINE('',#229,#231);
#233=EDGE_CURVE('no 769',#220,#228,#232,.T.);
#234=ORIENTED_EDGE('',*,*,#233,.T.);
#235=CARTESIAN_POINT('',(44.0278145175,26.0,-12.5));
#236=VERTEX_POINT('',#235);
#237=CARTESIAN_POINT('',(44.0278145175,25.0,-12.5));
#238=DIRECTION('',(0.0,1.0,0.0));
#239=VECTOR('',#238,1.0);
#240=LINE('',#237,#239);
#241=EDGE_CURVE('no 775',#236,#228,#240,.T.);
#242=ORIENTED_EDGE('',*,*,#241,.F.);
#243=CARTESIAN_POINT('',(44.0278145175,25.0,-13.5));
#244=VERTEX_POINT('',#243);
#245=CARTESIAN_POINT('',(44.0278145175,0.0,-38.5));
#246=DIRECTION('',(0.0,-0.7071067812,-0.7071067812));
#247=VECTOR('',#246,1.0);
#248=LINE('',#245,#247);
#249=EDGE_CURVE('no 781',#236,#244,#248,.T.);
#250=ORIENTED_EDGE('',*,*,#249,.T.);
#251=CARTESIAN_POINT('',(44.0278145175,25.0,-16.5));
#252=VERTEX_POINT('',#251);
#253=CARTESIAN_POINT('',(44.0278145175,25.0,-12.5));
#254=DIRECTION('',(0.0,0.0,-1.0));
#255=VECTOR('',#254,1.0);
#256=LINE('',#253,#255);
#257=EDGE_CURVE('no 787',#244,#252,#256,.T.);
#258=ORIENTED_EDGE('',*,*,#257,.T.);
#259=CARTESIAN_POINT('',(44.0278145175,26.0,-17.5));
#260=VERTEX_POINT('',#259);
#261=CARTESIAN_POINT('',(44.0278145175,0.0,8.5));
#262=DIRECTION('',(0.0,0.7071067812,-0.7071067812));
#263=VECTOR('',#262,1.0);
#264=LINE('',#261,#263);
#265=EDGE_CURVE('no 793',#252,#260,#264,.T.);
#266=ORIENTED_EDGE('',*,*,#265,.T.);
#267=CARTESIAN_POINT('',(44.0278145175,25.0,-17.5));
#268=DIRECTION('',(0.0,1.0,0.0));
#269=VECTOR('',#268,1.0);
#270=LINE('',#267,#269);
#271=EDGE_CURVE('no 797',#260,#36,#270,.T.);
#272=ORIENTED_EDGE('',*,*,#271,.T.);
#273=ORIENTED_EDGE('',*,*,#41,.T.);
#274=CARTESIAN_POINT('',(44.0278145175,0.0,8.5));
#275=DIRECTION('',(0.0,0.7071067812,-0.7071067812));
#276=VECTOR('',#275,1.0);
#277=LINE('',#274,#276);
#278=EDGE_CURVE('no 803',#27,#194,#277,.T.);
#279=ORIENTED_EDGE('',*,*,#278,.T.);
#280=EDGE_LOOP('',(
    #202,#210,#218,#226,#234,#242,#250,#258,#266,#272,
    #273,#279));
#281=FACE_OUTER_BOUND('',#280,.T.);
#282=CARTESIAN_POINT('',(44.0278145175,-40.0,-7.5));
#283=DIRECTION('',(-1.0,-0.0,0.0));
#284=DIRECTION('',(0.0,-1.0,0.0));
#285=AXIS2_PLACEMENT_3D('',#282,#283,#284);
#286=PLANE('',#285);
#287=ADVANCED_FACE('no 736',(#281),#286,.F.);
#288=CARTESIAN_POINT('',(-31.5278145175,12.5,-9.5));
#289=VERTEX_POINT('',#288);
#290=CARTESIAN_POINT('',(-31.5278145175,12.5,-20.5));
#291=VERTEX_POINT('',#290);
#292=CARTESIAN_POINT('',(-31.5278145175,12.5,-7.5));
#293=DIRECTION('',(-0.0,0.0,-1.0));
#294=VECTOR('',#293,1.0);
#295=LINE('',#292,#294);
#296=EDGE_CURVE('no 814',#289,#291,#295,.T.);
#297=ORIENTED_EDGE('',*,*,#296,.F.);
#298=CARTESIAN_POINT('',(36.5102735512,37.2638388534,-9.5));
#299=VERTEX_POINT('',#298);
#300=CARTESIAN_POINT('',(36.5102735512,37.2638388534,-9.5));
#301=DIRECTION('',(0.9396926208,0.3420201433,-0.0));
#302=VECTOR('',#301,1.0);
#303=LINE('',#300,#302);
#304=EDGE_CURVE('no 820',#289,#299,#303,.T.);
#305=ORIENTED_EDGE('',*,*,#304,.T.);
#306=CARTESIAN_POINT('',(36.5102735512,37.2638388534,-20.5));
#307=VERTEX_POINT('',#306);
#308=CARTESIAN_POINT('',(36.5102735512,37.2638388534,-7.5));
#309=DIRECTION('',(0.0,0.0,-1.0));
#310=VECTOR('',#309,1.0);
#311=LINE('',#308,#310);
#312=EDGE_CURVE('no 826',#299,#307,#311,.T.);
#313=ORIENTED_EDGE('',*,*,#312,.T.);
#314=CARTESIAN_POINT('',(44.0278145175,40.0,-20.5));
#315=DIRECTION('',(-0.9396926208,-0.3420201433,0.0));
#316=VECTOR('',#315,1.0);
#317=LINE('',#314,#316);
#318=EDGE_CURVE('no 830',#307,#291,#317,.T.);
#319=ORIENTED_EDGE('',*,*,#318,.T.);
#320=EDGE_LOOP('',(#297,#305,#313,#319));
#321=FACE_OUTER_BOUND('',#320,.T.);
#322=CARTESIAN_POINT('',(44.0278145175,40.0,-7.5));
#323=DIRECTION('',(0.3420201433,-0.9396926208,-0.0));
#324=DIRECTION('',(0.9396926208,0.3420201433,-0.0));
#325=AXIS2_PLACEMENT_3D('',#322,#323,#324);
#326=PLANE('',#325);
#327=ADVANCED_FACE('no 805',(#321),#326,.F.);
#328=CARTESIAN_POINT('',(38.5102735512,35.863423777,-7.5));
#329=VERTEX_POINT('',#328);
#330=CARTESIAN_POINT('',(59.0628964501,21.4723222932,-7.5));
#331=DIRECTION('',(-0.8191520443,0.5735764364,0.0));
#332=VECTOR('',#331,1.0);
#333=LINE('',#330,#332);
#334=EDGE_CURVE('no 839',#204,#329,#333,.T.);
#335=ORIENTED_EDGE('',*,*,#334,.T.);
#336=CARTESIAN_POINT('',(-27.5061938394,11.8353946754,-7.5));
#337=VERTEX_POINT('',#336);
#338=CARTESIAN_POINT('',(-30.8437742308,10.6206147584,-7.5));
#339=DIRECTION('',(-0.9396926208,-0.3420201433,0.0));
#340=VECTOR('',#339,1.0);
#341=LINE('',#338,#340);
#342=EDGE_CURVE('no 845',#329,#337,#341,.T.);
#343=ORIENTED_EDGE('',*,*,#342,.T.);
#344=CARTESIAN_POINT('',(-19.0278145175,-0.0,-7.5));
#345=VERTEX_POINT('',#344);
#346=CARTESIAN_POINT('',(-31.5278145175,-0.0,-7.5));
#347=DIRECTION('',(-0.0,-0.0,-1.0));
#348=DIRECTION('',(1.0,0.0,-0.0));
#349=AXIS2_PLACEMENT_3D('',#346,#347,#348);
#350=CIRCLE('',#349,12.5);
#351=EDGE_CURVE('no 851',#337,#345,#350,.T.);
#352=ORIENTED_EDGE('',*,*,#351,.T.);
#353=CARTESIAN_POINT('',(-27.5061938394,-11.8353946754,-7.5));
#354=VERTEX_POINT('',#353);
#355=CARTESIAN_POINT('',(-31.5278145175,-0.0,-7.5));
#356=DIRECTION('',(-0.0,-0.0,-1.0));
#357=DIRECTION('',(1.0,0.0,-0.0));
#358=AXIS2_PLACEMENT_3D('',#355,#356,#357);
#359=CIRCLE('',#358,12.5);
#360=EDGE_CURVE('no 857',#345,#354,#359,.T.);
#361=ORIENTED_EDGE('',*,*,#360,.T.);
#362=CARTESIAN_POINT('',(38.5102735512,-35.863423777,-7.5));
#363=VERTEX_POINT('',#362);
#364=CARTESIAN_POINT('',(37.1943138379,-35.3844536118,-7.5));
#365=DIRECTION('',(0.9396926208,-0.3420201433,-0.0));
#366=VECTOR('',#365,1.0);
#367=LINE('',#364,#366);
#368=EDGE_CURVE('no 863',#354,#363,#367,.T.);
#369=ORIENTED_EDGE('',*,*,#368,.T.);
#370=CARTESIAN_POINT('',(59.0628964501,-21.4723222932,-7.5));
#371=DIRECTION('',(0.8191520443,0.5735764364,-0.0));
#372=VECTOR('',#371,1.0);
#373=LINE('',#370,#372);
#374=EDGE_CURVE('no 867',#363,#59,#373,.T.);
#375=ORIENTED_EDGE('',*,*,#374,.T.);
#376=ORIENTED_EDGE('',*,*,#66,.T.);
#377=CARTESIAN_POINT('',(44.0278145175,0.0,-7.5));
#378=DIRECTION('',(-0.0,-0.0,-1.0));
#379=DIRECTION('',(1.0,0.0,-0.0));
#380=AXIS2_PLACEMENT_3D('',#377,#378,#379);
#381=CIRCLE('',#380,31.0);
#382=EDGE_CURVE('no 873',#61,#212,#381,.T.);
#383=ORIENTED_EDGE('',*,*,#382,.T.);
#384=ORIENTED_EDGE('',*,*,#217,.T.);
#385=EDGE_LOOP('',(#335,#343,#352,#361,#369,#375,#376,#383,#384));
#386=FACE_OUTER_BOUND('',#385,.T.);
#387=CARTESIAN_POINT('',(44.0278145175,0.0,-7.5));
#388=DIRECTION('',(0.0,0.0,1.0));
#389=DIRECTION('',(1.0,0.0,-0.0));
#390=AXIS2_PLACEMENT_3D('',#387,#388,#389);
#391=PLANE('',#390);
#392=ADVANCED_FACE('no 832',(#386),#391,.T.);
#393=CARTESIAN_POINT('',(-19.0278145175,-0.0,-22.5));
#394=VERTEX_POINT('',#393);
#395=CARTESIAN_POINT('',(-27.5061938394,-11.8353946754,-22.5));
#396=VERTEX_POINT('',#395);
#397=CARTESIAN_POINT('',(-31.5278145175,-0.0,-22.5));
#398=DIRECTION('',(-0.0,-0.0,-1.0));
#399=DIRECTION('',(1.0,0.0,-0.0));
#400=AXIS2_PLACEMENT_3D('',#397,#398,#399);
#401=CIRCLE('',#400,12.5);
#402=EDGE_CURVE('no 886',#394,#396,#401,.T.);
#403=ORIENTED_EDGE('',*,*,#402,.F.);
#404=CARTESIAN_POINT('',(-27.5061938394,11.8353946754,-22.5));
#405=VERTEX_POINT('',#404);
#406=CARTESIAN_POINT('',(-31.5278145175,-0.0,-22.5));
#407=DIRECTION('',(-0.0,-0.0,-1.0));
#408=DIRECTION('',(1.0,0.0,-0.0));
#409=AXIS2_PLACEMENT_3D('',#406,#407,#408);
#410=CIRCLE('',#409,12.5);
#411=EDGE_CURVE('no 892',#405,#394,#410,.T.);
#412=ORIENTED_EDGE('',*,*,#411,.F.);
#413=CARTESIAN_POINT('',(38.5102735512,35.863423777,-22.5));
#414=VERTEX_POINT('',#413);
#415=CARTESIAN_POINT('',(31.8561026104,33.4415036208,-22.5));
#416=DIRECTION('',(0.9396926208,0.3420201433,0.0));
#417=VECTOR('',#416,1.0);
#418=LINE('',#415,#417);
#419=EDGE_CURVE('no 898',#405,#414,#418,.T.);
#420=ORIENTED_EDGE('',*,*,#419,.T.);
#421=CARTESIAN_POINT('',(36.5102735512,37.2638388534,-22.5));
#422=DIRECTION('',(0.8191520443,-0.5735764364,0.0));
#423=VECTOR('',#422,1.0);
#424=LINE('',#421,#423);
#425=EDGE_CURVE('no 902',#414,#196,#424,.T.);
#426=ORIENTED_EDGE('',*,*,#425,.T.);
#427=ORIENTED_EDGE('',*,*,#201,.F.);
#428=CARTESIAN_POINT('',(44.0278145175,0.0,-22.5));
#429=DIRECTION('',(0.0,0.0,1.0));
#430=DIRECTION('',(1.0,0.0,-0.0));
#431=AXIS2_PLACEMENT_3D('',#428,#429,#430);
#432=CIRCLE('',#431,31.0);
#433=EDGE_CURVE('no 908',#194,#77,#432,.T.);
#434=ORIENTED_EDGE('',*,*,#433,.T.);
#435=ORIENTED_EDGE('',*,*,#82,.F.);
#436=CARTESIAN_POINT('',(38.5102735512,-35.863423777,-22.5));
#437=VERTEX_POINT('',#436);
#438=CARTESIAN_POINT('',(44.0278145175,-32.0,-22.5));
#439=DIRECTION('',(-0.8191520443,-0.5735764364,0.0));
#440=VECTOR('',#439,1.0);
#441=LINE('',#438,#440);
#442=EDGE_CURVE('no 916',#69,#437,#441,.T.);
#443=ORIENTED_EDGE('',*,*,#442,.T.);
#444=CARTESIAN_POINT('',(31.8561026104,-33.4415036208,-22.5));
#445=DIRECTION('',(-0.9396926208,0.3420201433,0.0));
#446=VECTOR('',#445,1.0);
#447=LINE('',#444,#446);
#448=EDGE_CURVE('no 920',#437,#396,#447,.T.);
#449=ORIENTED_EDGE('',*,*,#448,.T.);
#450=EDGE_LOOP('',(#403,#412,#420,#426,#427,#434,#435,#443,#449));
#451=FACE_OUTER_BOUND('',#450,.T.);
#452=CARTESIAN_POINT('',(44.0278145175,0.0,-22.5));
#453=DIRECTION('',(0.0,0.0,1.0));
#454=DIRECTION('',(1.0,0.0,-0.0));
#455=AXIS2_PLACEMENT_3D('',#452,#453,#454);
#456=PLANE('',#455);
#457=ADVANCED_FACE('no 877',(#451),#456,.F.);
#458=CARTESIAN_POINT('',(-19.0278145175,-0.0,0.0));
#459=VERTEX_POINT('',#458);
#460=CARTESIAN_POINT('',(-19.0278145175,-0.0,0.0));
#461=DIRECTION('',(-0.0,0.0,-1.0));
#462=VECTOR('',#461,1.0);
#463=LINE('',#460,#462);
#464=EDGE_CURVE('no 930',#459,#345,#463,.T.);
#465=ORIENTED_EDGE('',*,*,#464,.F.);
#466=CARTESIAN_POINT('',(-44.0278145175,-0.0,0.0));
#467=VERTEX_POINT('',#466);
#468=CARTESIAN_POINT('',(-31.5278145175,-0.0,0.0));
#469=DIRECTION('',(0.0,0.0,1.0));
#470=DIRECTION('',(1.0,0.0,-0.0));
#471=AXIS2_PLACEMENT_3D('',#468,#469,#470);
#472=CIRCLE('',#471,12.5);
#473=EDGE_CURVE('no 936',#467,#459,#472,.T.);
#474=ORIENTED_EDGE('',*,*,#473,.F.);
#475=CARTESIAN_POINT('',(-44.0278145175,-0.0,-30.0));
#476=VERTEX_POINT('',#475);
#477=CARTESIAN_POINT('',(-44.0278145175,-0.0,0.0));
#478=DIRECTION('',(-0.0,-0.0,-1.0));
#479=VECTOR('',#478,1.0);
#480=LINE('',#477,#479);
#481=EDGE_CURVE('no 942',#467,#476,#480,.T.);
#482=ORIENTED_EDGE('',*,*,#481,.T.);
#483=CARTESIAN_POINT('',(-19.0278145175,-0.0,-30.0));
#484=VERTEX_POINT('',#483);
#485=CARTESIAN_POINT('',(-31.5278145175,-0.0,-30.0));
#486=DIRECTION('',(0.0,0.0,1.0));
#487=DIRECTION('',(1.0,0.0,-0.0));
#488=AXIS2_PLACEMENT_3D('',#485,#486,#487);
#489=CIRCLE('',#488,12.5);
#490=EDGE_CURVE('no 948',#476,#484,#489,.T.);
#491=ORIENTED_EDGE('',*,*,#490,.T.);
#492=CARTESIAN_POINT('',(-19.0278145175,-0.0,-22.5));
#493=DIRECTION('',(-0.0,-0.0,-1.0));
#494=VECTOR('',#493,1.0);
#495=LINE('',#492,#494);
#496=EDGE_CURVE('no 952',#394,#484,#495,.T.);
#497=ORIENTED_EDGE('',*,*,#496,.F.);
#498=ORIENTED_EDGE('',*,*,#402,.T.);
#499=CARTESIAN_POINT('',(-31.5278145175,-0.0,-32.2461577598));
#500=DIRECTION('',(-0.2418447626,-0.6644630244,-0.7071067812));
#501=DIRECTION('',(0.2418447626,0.6644630244,-0.7071067812));
#502=AXIS2_PLACEMENT_3D('',#499,#500,#501);
#503=ELLIPSE('',#502,17.6776695297,12.5);
#504=EDGE_CURVE('no 958',#396,#156,#503,.T.);
#505=ORIENTED_EDGE('',*,*,#504,.T.);
#506=ORIENTED_EDGE('',*,*,#161,.F.);
#507=CARTESIAN_POINT('',(-31.5278145175,-0.0,2.2461577598));
#508=DIRECTION('',(-0.2418447626,-0.6644630244,0.7071067812));
#509=DIRECTION('',(-0.2418447626,-0.6644630244,-0.7071067812));
#510=AXIS2_PLACEMENT_3D('',#507,#508,#509);
#511=ELLIPSE('',#510,17.6776695297,12.5);
#512=EDGE_CURVE('no 964',#154,#354,#511,.T.);
#513=ORIENTED_EDGE('',*,*,#512,.T.);
#514=ORIENTED_EDGE('',*,*,#360,.F.);
#515=EDGE_LOOP('',(#465,#474,#482,#491,#497,#498,#505,#506,#513,#514));
#516=FACE_OUTER_BOUND('',#515,.T.);
#517=CARTESIAN_POINT('',(-31.5278145175,-0.0,0.0));
#518=DIRECTION('',(-0.0,-0.0,-1.0));
#519=DIRECTION('',(-0.0,1.0,0.0));
#520=AXIS2_PLACEMENT_3D('',#517,#518,#519);
#521=CYLINDRICAL_SURFACE('',#520,12.5);
#522=ADVANCED_FACE('no 923',(#516),#521,.T.);
#523=CARTESIAN_POINT('',(-41.5278145175,-0.0,0.0));
#524=VERTEX_POINT('',#523);
#525=CARTESIAN_POINT('',(-21.5278145175,-0.0,0.0));
#526=VERTEX_POINT('',#525);
#527=CARTESIAN_POINT('',(-31.5278145175,-0.0,0.0));
#528=DIRECTION('',(0.0,0.0,1.0));
#529=DIRECTION('',(1.0,0.0,-0.0));
#530=AXIS2_PLACEMENT_3D('',#527,#528,#529);
#531=CIRCLE('',#530,10.0);
#532=EDGE_CURVE('no 977',#524,#526,#531,.T.);
#533=ORIENTED_EDGE('',*,*,#532,.F.);
#534=CARTESIAN_POINT('',(-31.5278145175,-0.0,0.0));
#535=DIRECTION('',(0.0,0.0,1.0));
#536=DIRECTION('',(1.0,0.0,-0.0));
#537=AXIS2_PLACEMENT_3D('',#534,#535,#536);
#538=CIRCLE('',#537,10.0);
#539=EDGE_CURVE('no 981',#526,#524,#538,.T.);
#540=ORIENTED_EDGE('',*,*,#539,.F.);
#541=EDGE_LOOP('',(#533,#540));
#542=FACE_BOUND('',#541,.T.);
#543=CARTESIAN_POINT('',(-31.5278145175,-0.0,0.0));
#544=DIRECTION('',(0.0,0.0,1.0));
#545=DIRECTION('',(1.0,0.0,-0.0));
#546=AXIS2_PLACEMENT_3D('',#543,#544,#545);
#547=CIRCLE('',#546,12.5);
#548=EDGE_CURVE('no 986',#459,#467,#547,.T.);
#549=ORIENTED_EDGE('',*,*,#548,.T.);
#550=ORIENTED_EDGE('',*,*,#473,.T.);
#551=EDGE_LOOP('',(#549,#550));
#552=FACE_OUTER_BOUND('',#551,.T.);
#553=CARTESIAN_POINT('',(-31.5278145175,-0.0,0.0));
#554=DIRECTION('',(0.0,0.0,1.0));
#555=DIRECTION('',(1.0,0.0,-0.0));
#556=AXIS2_PLACEMENT_3D('',#553,#554,#555);
#557=PLANE('',#556);
#558=ADVANCED_FACE('no 968',(#542,#552),#557,.T.);
#559=CARTESIAN_POINT('',(-21.5278145175,-0.0,-30.0));
#560=VERTEX_POINT('',#559);
#561=CARTESIAN_POINT('',(-41.5278145175,-0.0,-30.0));
#562=VERTEX_POINT('',#561);
#563=CARTESIAN_POINT('',(-31.5278145175,-0.0,-30.0));
#564=DIRECTION('',(0.0,0.0,1.0));
#565=DIRECTION('',(1.0,0.0,-0.0));
#566=AXIS2_PLACEMENT_3D('',#563,#564,#565);
#567=CIRCLE('',#566,10.0);
#568=EDGE_CURVE('no 999',#560,#562,#567,.T.);
#569=ORIENTED_EDGE('',*,*,#568,.T.);
#570=CARTESIAN_POINT('',(-31.5278145175,-0.0,-30.0));
#571=DIRECTION('',(0.0,0.0,1.0));
#572=DIRECTION('',(1.0,0.0,-0.0));
#573=AXIS2_PLACEMENT_3D('',#570,#571,#572);
#574=CIRCLE('',#573,10.0);
#575=EDGE_CURVE('no 1003',#562,#560,#574,.T.);
#576=ORIENTED_EDGE('',*,*,#575,.T.);
#577=EDGE_LOOP('',(#569,#576));
#578=FACE_BOUND('',#577,.T.);
#579=ORIENTED_EDGE('',*,*,#490,.F.);
#580=CARTESIAN_POINT('',(-31.5278145175,-0.0,-30.0));
#581=DIRECTION('',(0.0,0.0,1.0));
#582=DIRECTION('',(1.0,0.0,-0.0));
#583=AXIS2_PLACEMENT_3D('',#580,#581,#582);
#584=CIRCLE('',#583,12.5);
#585=EDGE_CURVE('no 1010',#484,#476,#584,.T.);
#586=ORIENTED_EDGE('',*,*,#585,.F.);
#587=EDGE_LOOP('',(#579,#586));
#588=FACE_OUTER_BOUND('',#587,.T.);
#589=CARTESIAN_POINT('',(-31.5278145175,-0.0,-30.0));
#590=DIRECTION('',(0.0,0.0,1.0));
#591=DIRECTION('',(1.0,0.0,-0.0));
#592=AXIS2_PLACEMENT_3D('',#589,#590,#591);
#593=PLANE('',#592);
#594=ADVANCED_FACE('no 990',(#578,#588),#593,.F.);
#595=ORIENTED_EDGE('',*,*,#233,.F.);
#596=CARTESIAN_POINT('',(44.0278145175,0.0,-8.5));
#597=DIRECTION('',(0.0,0.0,1.0));
#598=DIRECTION('',(1.0,0.0,-0.0));
#599=AXIS2_PLACEMENT_3D('',#596,#597,#598);
#600=CIRCLE('',#599,30.0);
#601=EDGE_CURVE('no 1020',#220,#132,#600,.T.);
#602=ORIENTED_EDGE('',*,*,#601,.T.);
#603=ORIENTED_EDGE('',*,*,#137,.F.);
#604=CARTESIAN_POINT('',(44.0278145175,0.0,-12.5));
#605=DIRECTION('',(0.0,0.0,1.0));
#606=DIRECTION('',(1.0,0.0,-0.0));
#607=AXIS2_PLACEMENT_3D('',#604,#605,#606);
#608=CIRCLE('',#607,30.0);
#609=EDGE_CURVE('no 1026',#228,#124,#608,.T.);
#610=ORIENTED_EDGE('',*,*,#609,.F.);
#611=EDGE_LOOP('',(#595,#602,#603,#610));
#612=FACE_OUTER_BOUND('',#611,.T.);
#613=CARTESIAN_POINT('',(44.0278145175,0.0,-30.0));
#614=DIRECTION('',(0.0,0.0,1.0));
#615=DIRECTION('',(1.0,0.0,-0.0));
#616=AXIS2_PLACEMENT_3D('',#613,#614,#615);
#617=CYLINDRICAL_SURFACE('',#616,30.0);
#618=ADVANCED_FACE('no 1013',(#612),#617,.F.);
#619=ORIENTED_EDGE('',*,*,#113,.T.);
#620=CARTESIAN_POINT('',(44.0278145175,0.0,-16.5));
#621=DIRECTION('',(-0.0,-0.0,-1.0));
#622=DIRECTION('',(1.0,0.0,-0.0));
#623=AXIS2_PLACEMENT_3D('',#620,#621,#622);
#624=CIRCLE('',#623,25.0);
#625=EDGE_CURVE('no 1036',#100,#252,#624,.T.);
#626=ORIENTED_EDGE('',*,*,#625,.T.);
#627=ORIENTED_EDGE('',*,*,#257,.F.);
#628=CARTESIAN_POINT('',(44.0278145175,0.0,-13.5));
#629=DIRECTION('',(0.0,0.0,1.0));
#630=DIRECTION('',(1.0,0.0,-0.0));
#631=AXIS2_PLACEMENT_3D('',#628,#629,#630);
#632=CIRCLE('',#631,25.0);
#633=EDGE_CURVE('no 1042',#244,#108,#632,.T.);
#634=ORIENTED_EDGE('',*,*,#633,.T.);
#635=EDGE_LOOP('',(#619,#626,#627,#634));
#636=FACE_OUTER_BOUND('',#635,.T.);
#637=CARTESIAN_POINT('',(44.0278145175,0.0,-12.5));
#638=DIRECTION('',(-0.0,-0.0,-1.0));
#639=DIRECTION('',(1.0,0.0,-0.0));
#640=AXIS2_PLACEMENT_3D('',#637,#638,#639);
#641=CYLINDRICAL_SURFACE('',#640,25.0);
#642=ADVANCED_FACE('no 1029',(#636),#641,.F.);
#643=ORIENTED_EDGE('',*,*,#129,.T.);
#644=CARTESIAN_POINT('',(44.0278145175,0.0,-12.5));
#645=DIRECTION('',(-0.0,-0.0,-1.0));
#646=DIRECTION('',(1.0,0.0,-0.0));
#647=AXIS2_PLACEMENT_3D('',#644,#645,#646);
#648=CIRCLE('',#647,26.0);
#649=EDGE_CURVE('no 1051',#116,#236,#648,.T.);
#650=ORIENTED_EDGE('',*,*,#649,.T.);
#651=ORIENTED_EDGE('',*,*,#241,.T.);
#652=ORIENTED_EDGE('',*,*,#609,.T.);
#653=EDGE_LOOP('',(#643,#650,#651,#652));
#654=FACE_OUTER_BOUND('',#653,.T.);
#655=CARTESIAN_POINT('',(44.0278145175,0.0,-12.5));
#656=DIRECTION('',(0.0,0.0,1.0));
#657=DIRECTION('',(1.0,0.0,-0.0));
#658=AXIS2_PLACEMENT_3D('',#655,#656,#657);
#659=PLANE('',#658);
#660=ADVANCED_FACE('no 1044',(#654),#659,.T.);
#661=ORIENTED_EDGE('',*,*,#271,.F.);
#662=CARTESIAN_POINT('',(44.0278145175,0.0,-17.5));
#663=DIRECTION('',(0.0,0.0,1.0));
#664=DIRECTION('',(1.0,0.0,-0.0));
#665=AXIS2_PLACEMENT_3D('',#662,#663,#664);
#666=CIRCLE('',#665,26.0);
#667=EDGE_CURVE('no 1064',#260,#92,#666,.T.);
#668=ORIENTED_EDGE('',*,*,#667,.T.);
#669=ORIENTED_EDGE('',*,*,#97,.F.);
#670=ORIENTED_EDGE('',*,*,#48,.F.);
#671=EDGE_LOOP('',(#661,#668,#669,#670));
#672=FACE_OUTER_BOUND('',#671,.T.);
#673=CARTESIAN_POINT('',(44.0278145175,0.0,-17.5));
#674=DIRECTION('',(0.0,0.0,1.0));
#675=DIRECTION('',(1.0,0.0,-0.0));
#676=AXIS2_PLACEMENT_3D('',#673,#674,#675);
#677=PLANE('',#676);
#678=ADVANCED_FACE('no 1057',(#672),#677,.F.);
#679=CARTESIAN_POINT('',(-41.5278145175,-0.0,-30.0));
#680=DIRECTION('',(0.0,0.0,1.0));
#681=VECTOR('',#680,1.0);
#682=LINE('',#679,#681);
#683=EDGE_CURVE('no 1076',#562,#524,#682,.T.);
#684=ORIENTED_EDGE('',*,*,#683,.T.);
#685=ORIENTED_EDGE('',*,*,#532,.T.);
#686=CARTESIAN_POINT('',(-21.5278145175,-0.0,-30.0));
#687=DIRECTION('',(0.0,0.0,1.0));
#688=VECTOR('',#687,1.0);
#689=LINE('',#686,#688);
#690=EDGE_CURVE('no 1082',#560,#526,#689,.T.);
#691=ORIENTED_EDGE('',*,*,#690,.F.);
#692=ORIENTED_EDGE('',*,*,#575,.F.);
#693=EDGE_LOOP('',(#684,#685,#691,#692));
#694=FACE_OUTER_BOUND('',#693,.T.);
#695=CARTESIAN_POINT('',(-31.5278145175,-0.0,-30.0));
#696=DIRECTION('',(0.0,0.0,1.0));
#697=DIRECTION('',(-0.0,1.0,-0.0));
#698=AXIS2_PLACEMENT_3D('',#695,#696,#697);
#699=CYLINDRICAL_SURFACE('',#698,10.0);
#700=ADVANCED_FACE('no 1071',(#694),#699,.F.);
#701=ORIENTED_EDGE('',*,*,#278,.F.);
#702=ORIENTED_EDGE('',*,*,#33,.F.);
#703=ORIENTED_EDGE('',*,*,#88,.F.);
#704=ORIENTED_EDGE('',*,*,#433,.F.);
#705=EDGE_LOOP('',(#701,#702,#703,#704));
#706=FACE_OUTER_BOUND('',#705,.T.);
#707=CARTESIAN_POINT('',(44.0278145175,0.0,-22.5));
#708=DIRECTION('',(-0.0,-0.0,-1.0));
#709=DIRECTION('',(1.0,0.0,-0.0));
#710=AXIS2_PLACEMENT_3D('',#707,#708,#709);
#711=CONICAL_SURFACE('',#710,31.0,0.7853981634);
#712=ADVANCED_FACE('no 1087',(#706),#711,.F.);
#713=ORIENTED_EDGE('',*,*,#105,.F.);
#714=ORIENTED_EDGE('',*,*,#667,.F.);
#715=ORIENTED_EDGE('',*,*,#265,.F.);
#716=ORIENTED_EDGE('',*,*,#625,.F.);
#717=EDGE_LOOP('',(#713,#714,#715,#716));
#718=FACE_OUTER_BOUND('',#717,.T.);
#719=CARTESIAN_POINT('',(44.0278145175,0.0,-16.5));
#720=DIRECTION('',(-0.0,-0.0,-1.0));
#721=DIRECTION('',(1.0,0.0,-0.0));
#722=AXIS2_PLACEMENT_3D('',#719,#720,#721);
#723=CONICAL_SURFACE('',#722,25.0,0.7853981634);
#724=ADVANCED_FACE('no 1099',(#718),#723,.F.);
#725=ORIENTED_EDGE('',*,*,#121,.F.);
#726=ORIENTED_EDGE('',*,*,#633,.F.);
#727=ORIENTED_EDGE('',*,*,#249,.F.);
#728=ORIENTED_EDGE('',*,*,#649,.F.);
#729=EDGE_LOOP('',(#725,#726,#727,#728));
#730=FACE_OUTER_BOUND('',#729,.T.);
#731=CARTESIAN_POINT('',(44.0278145175,0.0,-12.5));
#732=DIRECTION('',(0.0,0.0,1.0));
#733=DIRECTION('',(1.0,0.0,-0.0));
#734=AXIS2_PLACEMENT_3D('',#731,#732,#733);
#735=CONICAL_SURFACE('',#734,26.0,0.7853981634);
#736=ADVANCED_FACE('no 1111',(#730),#735,.F.);
#737=ORIENTED_EDGE('',*,*,#225,.F.);
#738=ORIENTED_EDGE('',*,*,#382,.F.);
#739=ORIENTED_EDGE('',*,*,#143,.F.);
#740=ORIENTED_EDGE('',*,*,#601,.F.);
#741=EDGE_LOOP('',(#737,#738,#739,#740));
#742=FACE_OUTER_BOUND('',#741,.T.);
#743=CARTESIAN_POINT('',(44.0278145175,0.0,-8.5));
#744=DIRECTION('',(0.0,0.0,1.0));
#745=DIRECTION('',(1.0,0.0,-0.0));
#746=AXIS2_PLACEMENT_3D('',#743,#744,#745);
#747=CONICAL_SURFACE('',#746,30.0,0.7853981634);
#748=ADVANCED_FACE('no 1123',(#742),#747,.F.);
#749=ORIENTED_EDGE('',*,*,#312,.F.);
#750=CARTESIAN_POINT('',(37.3133926742,36.7014887894,-8.696880877));
#751=DIRECTION('',(0.6336872742,-0.4437126063,0.6336872742));
#752=VECTOR('',#751,1.0);
#753=LINE('',#750,#752);
#754=EDGE_CURVE('no 1141',#299,#329,#753,.T.);
#755=ORIENTED_EDGE('',*,*,#754,.T.);
#756=ORIENTED_EDGE('',*,*,#334,.F.);
#757=ORIENTED_EDGE('',*,*,#209,.F.);
#758=ORIENTED_EDGE('',*,*,#425,.F.);
#759=CARTESIAN_POINT('',(31.2899992515,40.9191142696,-15.2797257003));
#760=DIRECTION('',(-0.6336872742,0.4437126063,0.6336872742));
#761=VECTOR('',#760,1.0);
#762=LINE('',#759,#761);
#763=EDGE_CURVE('no 1151',#414,#307,#762,.T.);
#764=ORIENTED_EDGE('',*,*,#763,.T.);
#765=EDGE_LOOP('',(#749,#755,#756,#757,#758,#764));
#766=FACE_OUTER_BOUND('',#765,.T.);
#767=CARTESIAN_POINT('',(36.5102735512,37.2638388534,-7.5));
#768=DIRECTION('',(-0.5735764364,-0.8191520443,0.0));
#769=DIRECTION('',(-0.0,-0.0,-1.0));
#770=AXIS2_PLACEMENT_3D('',#767,#768,#769);
#771=PLANE('',#770);
#772=ADVANCED_FACE('no 1134',(#766),#771,.F.);
#773=ORIENTED_EDGE('',*,*,#177,.F.);
#774=CARTESIAN_POINT('',(35.7887997637,-37.769020238,-19.7785262125));
#775=DIRECTION('',(0.6336872742,0.4437126063,-0.6336872742));
#776=VECTOR('',#775,1.0);
#777=LINE('',#774,#776);
#778=EDGE_CURVE('no 1160',#164,#437,#777,.T.);
#779=ORIENTED_EDGE('',*,*,#778,.T.);
#780=ORIENTED_EDGE('',*,*,#442,.F.);
#781=ORIENTED_EDGE('',*,*,#74,.F.);
#782=ORIENTED_EDGE('',*,*,#374,.F.);
#783=CARTESIAN_POINT('',(41.8121931864,-33.5513947578,-4.1980803648));
#784=DIRECTION('',(-0.6336872742,-0.4437126063,-0.6336872742));
#785=VECTOR('',#784,1.0);
#786=LINE('',#783,#785);
#787=EDGE_CURVE('no 1170',#363,#172,#786,.T.);
#788=ORIENTED_EDGE('',*,*,#787,.T.);
#789=EDGE_LOOP('',(#773,#779,#780,#781,#782,#788));
#790=FACE_OUTER_BOUND('',#789,.T.);
#791=CARTESIAN_POINT('',(44.0278145175,-32.0,-7.5));
#792=DIRECTION('',(-0.5735764364,0.8191520443,0.0));
#793=DIRECTION('',(-0.0,-0.0,-1.0));
#794=AXIS2_PLACEMENT_3D('',#791,#792,#793);
#795=PLANE('',#794);
#796=ADVANCED_FACE('no 1153',(#790),#795,.F.);
#797=ORIENTED_EDGE('',*,*,#754,.F.);
#798=ORIENTED_EDGE('',*,*,#304,.F.);
#799=CARTESIAN_POINT('',(-31.5278145175,-0.0,2.2461577598));
#800=DIRECTION('',(-0.2418447626,0.6644630244,0.7071067812));
#801=DIRECTION('',(-0.2418447626,0.6644630244,-0.7071067812));
#802=AXIS2_PLACEMENT_3D('',#799,#800,#801);
#803=ELLIPSE('',#802,17.6776695297,12.5);
#804=EDGE_CURVE('no 1181',#337,#289,#803,.T.);
#805=ORIENTED_EDGE('',*,*,#804,.F.);
#806=ORIENTED_EDGE('',*,*,#342,.F.);
#807=EDGE_LOOP('',(#797,#798,#805,#806));
#808=FACE_OUTER_BOUND('',#807,.T.);
#809=CARTESIAN_POINT('',(31.8561026104,33.4415036208,-7.5));
#810=DIRECTION('',(-0.2418447626,0.6644630244,0.7071067812));
#811=DIRECTION('',(0.9396926208,0.3420201433,-0.0));
#812=AXIS2_PLACEMENT_3D('',#809,#810,#811);
#813=PLANE('',#812);
#814=ADVANCED_FACE('no 1172',(#808),#813,.T.);
#815=ORIENTED_EDGE('',*,*,#763,.F.);
#816=ORIENTED_EDGE('',*,*,#419,.F.);
#817=CARTESIAN_POINT('',(-31.5278145175,-0.0,-32.2461577598));
#818=DIRECTION('',(-0.2418447626,0.6644630244,-0.7071067812));
#819=DIRECTION('',(0.2418447626,-0.6644630244,-0.7071067812));
#820=AXIS2_PLACEMENT_3D('',#817,#818,#819);
#821=ELLIPSE('',#820,17.6776695297,12.5);
#822=EDGE_CURVE('no 1194',#291,#405,#821,.T.);
#823=ORIENTED_EDGE('',*,*,#822,.F.);
#824=ORIENTED_EDGE('',*,*,#318,.F.);
#825=EDGE_LOOP('',(#815,#816,#823,#824));
#826=FACE_OUTER_BOUND('',#825,.T.);
#827=CARTESIAN_POINT('',(44.0278145175,40.0,-20.5));
#828=DIRECTION('',(0.2418447626,-0.6644630244,0.7071067812));
#829=DIRECTION('',(-0.9396926208,-0.3420201433,0.0));
#830=AXIS2_PLACEMENT_3D('',#827,#828,#829);
#831=PLANE('',#830);
#832=ADVANCED_FACE('no 1185',(#826),#831,.F.);
#833=ORIENTED_EDGE('',*,*,#504,.F.);
#834=ORIENTED_EDGE('',*,*,#448,.F.);
#835=ORIENTED_EDGE('',*,*,#778,.F.);
#836=ORIENTED_EDGE('',*,*,#169,.F.);
#837=EDGE_LOOP('',(#833,#834,#835,#836));
#838=FACE_OUTER_BOUND('',#837,.T.);
#839=CARTESIAN_POINT('',(-31.5278145175,-12.5,-20.5));
#840=DIRECTION('',(0.2418447626,0.6644630244,0.7071067812));
#841=DIRECTION('',(0.9396926208,-0.3420201433,-0.0));
#842=AXIS2_PLACEMENT_3D('',#839,#840,#841);
#843=PLANE('',#842);
#844=ADVANCED_FACE('no 1198',(#838),#843,.F.);
#845=ORIENTED_EDGE('',*,*,#512,.F.);
#846=ORIENTED_EDGE('',*,*,#183,.F.);
#847=ORIENTED_EDGE('',*,*,#787,.F.);
#848=ORIENTED_EDGE('',*,*,#368,.F.);
#849=EDGE_LOOP('',(#845,#846,#847,#848));
#850=FACE_OUTER_BOUND('',#849,.T.);
#851=CARTESIAN_POINT('',(31.8561026104,-33.4415036208,-7.5));
#852=DIRECTION('',(-0.2418447626,-0.6644630244,0.7071067812));
#853=DIRECTION('',(-0.9396926208,0.3420201433,0.0));
#854=AXIS2_PLACEMENT_3D('',#851,#852,#853);
#855=PLANE('',#854);
#856=ADVANCED_FACE('no 1209',(#850),#855,.T.);
#857=ORIENTED_EDGE('',*,*,#496,.T.);
#858=ORIENTED_EDGE('',*,*,#585,.T.);
#859=ORIENTED_EDGE('',*,*,#481,.F.);
#860=ORIENTED_EDGE('',*,*,#548,.F.);
#861=ORIENTED_EDGE('',*,*,#464,.T.);
#862=ORIENTED_EDGE('',*,*,#351,.F.);
#863=ORIENTED_EDGE('',*,*,#804,.T.);
#864=ORIENTED_EDGE('',*,*,#296,.T.);
#865=ORIENTED_EDGE('',*,*,#822,.T.);
#866=ORIENTED_EDGE('',*,*,#411,.T.);
#867=EDGE_LOOP('',(#857,#858,#859,#860,#861,#862,#863,#864,#865,#866));
#868=FACE_OUTER_BOUND('',#867,.T.);
#869=CARTESIAN_POINT('',(-31.5278145175,-0.0,0.0));
#870=DIRECTION('',(-0.0,-0.0,-1.0));
#871=DIRECTION('',(0.0,-1.0,0.0));
#872=AXIS2_PLACEMENT_3D('',#869,#870,#871);
#873=CYLINDRICAL_SURFACE('',#872,12.5);
#874=ADVANCED_FACE('no 1221',(#868),#873,.T.);
#875=ORIENTED_EDGE('',*,*,#683,.F.);
#876=ORIENTED_EDGE('',*,*,#568,.F.);
#877=ORIENTED_EDGE('',*,*,#690,.T.);
#878=ORIENTED_EDGE('',*,*,#539,.T.);
#879=EDGE_LOOP('',(#875,#876,#877,#878));
#880=FACE_OUTER_BOUND('',#879,.T.);
#881=CARTESIAN_POINT('',(-31.5278145175,-0.0,-30.0));
#882=DIRECTION('',(0.0,0.0,1.0));
#883=DIRECTION('',(0.0,-1.0,-0.0));
#884=AXIS2_PLACEMENT_3D('',#881,#882,#883);
#885=CYLINDRICAL_SURFACE('',#884,10.0);
#886=ADVANCED_FACE('no 1245',(#880),#885,.F.);
#887=CLOSED_SHELL('',(
    #57,#152,#192,#287,#327,#392,#457,#522,#558,#594,
    #618,#642,#660,#678,#700,#712,#724,#736,#748,#772,
    #796,#814,#832,#844,#856,#874,#886));
#888=MANIFOLD_SOLID_BREP('',#887);
#889=PRESENTATION_LAYER_ASSIGNMENT('1','Layer 1',(#888));
#890=COLOUR_RGB('',0.8,0.8,1.0);
#891=FILL_AREA_STYLE_COLOUR('',#890);
#892=FILL_AREA_STYLE('',(#891));
#893=SURFACE_STYLE_FILL_AREA(#892);
#894=SURFACE_SIDE_STYLE('',(#893));
#895=SURFACE_STYLE_USAGE(.BOTH.,#894);
#896=PRESENTATION_STYLE_ASSIGNMENT((#895));
#897=STYLED_ITEM('',(#896),#888);
#898=COLOUR_RGB('',0.79608,0.82353,0.93333);
#899=FILL_AREA_STYLE_COLOUR('',#898);
#900=FILL_AREA_STYLE('',(#899));
#901=SURFACE_STYLE_FILL_AREA(#900);
#902=SURFACE_SIDE_STYLE('',(#901));
#903=SURFACE_STYLE_USAGE(.BOTH.,#902);
#904=PRESENTATION_STYLE_ASSIGNMENT((#903));
#905=OVER_RIDING_STYLED_ITEM('',(#904),#57,#897);
#906=OVER_RIDING_STYLED_ITEM('',(#904),#152,#897);
#907=OVER_RIDING_STYLED_ITEM('',(#904),#192,#897);
#908=OVER_RIDING_STYLED_ITEM('',(#904),#287,#897);
#909=OVER_RIDING_STYLED_ITEM('',(#904),#327,#897);
#910=OVER_RIDING_STYLED_ITEM('',(#904),#392,#897);
#911=OVER_RIDING_STYLED_ITEM('',(#904),#457,#897);
#912=OVER_RIDING_STYLED_ITEM('',(#904),#522,#897);
#913=OVER_RIDING_STYLED_ITEM('',(#904),#558,#897);
#914=OVER_RIDING_STYLED_ITEM('',(#904),#594,#897);
#915=OVER_RIDING_STYLED_ITEM('',(#904),#618,#897);
#916=OVER_RIDING_STYLED_ITEM('',(#904),#642,#897);
#917=OVER_RIDING_STYLED_ITEM('',(#904),#660,#897);
#918=OVER_RIDING_STYLED_ITEM('',(#904),#678,#897);
#919=OVER_RIDING_STYLED_ITEM('',(#904),#700,#897);
#920=OVER_RIDING_STYLED_ITEM('',(#904),#712,#897);
#921=OVER_RIDING_STYLED_ITEM('',(#904),#724,#897);
#922=OVER_RIDING_STYLED_ITEM('',(#904),#736,#897);
#923=OVER_RIDING_STYLED_ITEM('',(#904),#748,#897);
#924=OVER_RIDING_STYLED_ITEM('',(#904),#772,#897);
#925=OVER_RIDING_STYLED_ITEM('',(#904),#796,#897);
#926=OVER_RIDING_STYLED_ITEM('',(#904),#814,#897);
#927=OVER_RIDING_STYLED_ITEM('',(#904),#832,#897);
#928=OVER_RIDING_STYLED_ITEM('',(#904),#844,#897);
#929=OVER_RIDING_STYLED_ITEM('',(#904),#856,#897);
#930=OVER_RIDING_STYLED_ITEM('',(#904),#874,#897);
#931=OVER_RIDING_STYLED_ITEM('',(#904),#886,#897);
#932=CARTESIAN_POINT('',(-50.0,-45.0,-30.0));
#933=DIRECTION('',(1.0,0.0,0.0));
#934=VECTOR('',#933,1.0);
#935=LINE('',#932,#934);
#936=TRIMMED_CURVE('no 54',#935,(PARAMETER_VALUE(0.0)),(PARAMETER_VALUE(100.0)),.T.,.PARAMETER.);
#937=PRESENTATION_LAYER_ASSIGNMENT('1','Layer 1',(#936));
#938=COLOUR_RGB('',0.0,0.0,0.50196);
#939=DRAUGHTING_PRE_DEFINED_CURVE_FONT('continuous');
#940=CURVE_STYLE('',#939,POSITIVE_LENGTH_MEASURE(1.0),#938);
#941=PRESENTATION_STYLE_ASSIGNMENT((#940));
#942=STYLED_ITEM('',(#941),#936);
#943=CARTESIAN_POINT('',(-50.0,45.0,-30.0));
#944=DIRECTION('',(1.0,0.0,0.0));
#945=VECTOR('',#944,1.0);
#946=LINE('',#943,#945);
#947=TRIMMED_CURVE('no 55',#946,(PARAMETER_VALUE(0.0)),(PARAMETER_VALUE(100.0)),.T.,.PARAMETER.);
#948=PRESENTATION_LAYER_ASSIGNMENT('1','Layer 1',(#947));
#949=STYLED_ITEM('',(#941),#947);
#950=CARTESIAN_POINT('',(-50.0,-45.0,0.0));
#951=DIRECTION('',(1.0,0.0,0.0));
#952=VECTOR('',#951,1.0);
#953=LINE('',#950,#952);
#954=TRIMMED_CURVE('no 56',#953,(PARAMETER_VALUE(0.0)),(PARAMETER_VALUE(100.0)),.T.,.PARAMETER.);
#955=PRESENTATION_LAYER_ASSIGNMENT('1','Layer 1',(#954));
#956=STYLED_ITEM('',(#941),#954);
#957=CARTESIAN_POINT('',(-50.0,45.0,0.0));
#958=DIRECTION('',(1.0,0.0,0.0));
#959=VECTOR('',#958,1.0);
#960=LINE('',#957,#959);
#961=TRIMMED_CURVE('no 57',#960,(PARAMETER_VALUE(0.0)),(PARAMETER_VALUE(100.0)),.T.,.PARAMETER.);
#962=PRESENTATION_LAYER_ASSIGNMENT('1','Layer 1',(#961));
#963=STYLED_ITEM('',(#941),#961);
#964=CARTESIAN_POINT('',(-50.0,-45.0,-30.0));
#965=DIRECTION('',(0.0,1.0,0.0));
#966=VECTOR('',#965,1.0);
#967=LINE('',#964,#966);
#968=TRIMMED_CURVE('no 58',#967,(PARAMETER_VALUE(0.0)),(PARAMETER_VALUE(90.0)),.T.,.PARAMETER.);
#969=PRESENTATION_LAYER_ASSIGNMENT('1','Layer 1',(#968));
#970=STYLED_ITEM('',(#941),#968);
#971=CARTESIAN_POINT('',(50.0,-45.0,-30.0));
#972=DIRECTION('',(0.0,1.0,0.0));
#973=VECTOR('',#972,1.0);
#974=LINE('',#971,#973);
#975=TRIMMED_CURVE('no 59',#974,(PARAMETER_VALUE(0.0)),(PARAMETER_VALUE(90.0)),.T.,.PARAMETER.);
#976=PRESENTATION_LAYER_ASSIGNMENT('1','Layer 1',(#975));
#977=STYLED_ITEM('',(#941),#975);
#978=CARTESIAN_POINT('',(-50.0,-45.0,0.0));
#979=DIRECTION('',(0.0,1.0,0.0));
#980=VECTOR('',#979,1.0);
#981=LINE('',#978,#980);
#982=TRIMMED_CURVE('no 60',#981,(PARAMETER_VALUE(0.0)),(PARAMETER_VALUE(90.0)),.T.,.PARAMETER.);
#983=PRESENTATION_LAYER_ASSIGNMENT('1','Layer 1',(#982));
#984=STYLED_ITEM('',(#941),#982);
#985=CARTESIAN_POINT('',(50.0,-45.0,0.0));
#986=DIRECTION('',(0.0,1.0,0.0));
#987=VECTOR('',#986,1.0);
#988=LINE('',#985,#987);
#989=TRIMMED_CURVE('no 61',#988,(PARAMETER_VALUE(0.0)),(PARAMETER_VALUE(74.3995408223)),.T.,.PARAMETER.);
#990=PRESENTATION_LAYER_ASSIGNMENT('1','Layer 1',(#989));
#991=STYLED_ITEM('',(#941),#989);
#992=CARTESIAN_POINT('',(-50.0,-45.0,-30.0));
#993=DIRECTION('',(0.0,0.0,1.0));
#994=VECTOR('',#993,1.0);
#995=LINE('',#992,#994);
#996=TRIMMED_CURVE('no 62',#995,(PARAMETER_VALUE(0.0)),(PARAMETER_VALUE(30.0)),.T.,.PARAMETER.);
#997=PRESENTATION_LAYER_ASSIGNMENT('1','Layer 1',(#996));
#998=STYLED_ITEM('',(#941),#996);
#999=CARTESIAN_POINT('',(50.0,-45.0,-30.0));
#1000=DIRECTION('',(0.0,0.0,1.0));
#1001=VECTOR('',#1000,1.0);
#1002=LINE('',#999,#1001);
#1003=TRIMMED_CURVE('no 63',#1002,(PARAMETER_VALUE(0.0)),(PARAMETER_VALUE(30.0)),.T.,.PARAMETER.);
#1004=PRESENTATION_LAYER_ASSIGNMENT('1','Layer 1',(#1003));
#1005=STYLED_ITEM('',(#941),#1003);
#1006=CARTESIAN_POINT('',(-50.0,45.0,-30.0));
#1007=DIRECTION('',(0.0,0.0,1.0));
#1008=VECTOR('',#1007,1.0);
#1009=LINE('',#1006,#1008);
#1010=TRIMMED_CURVE('no 64',#1009,(PARAMETER_VALUE(0.0)),(PARAMETER_VALUE(30.0)),.T.,.PARAMETER.);
#1011=PRESENTATION_LAYER_ASSIGNMENT('1','Layer 1',(#1010));
#1012=STYLED_ITEM('',(#941),#1010);
#1013=CARTESIAN_POINT('',(50.0,45.0,-30.0));
#1014=DIRECTION('',(0.0,0.0,1.0));
#1015=VECTOR('',#1014,1.0);
#1016=LINE('',#1013,#1015);
#1017=TRIMMED_CURVE('no 65',#1016,(PARAMETER_VALUE(0.0)),(PARAMETER_VALUE(30.0)),.T.,.PARAMETER.);
#1018=PRESENTATION_LAYER_ASSIGNMENT('1','Layer 1',(#1017));
#1019=STYLED_ITEM('',(#941),#1017);
#1020=CARTESIAN_POINT('',(-31.5278145175,12.5,0.0));
#1021=DIRECTION('',(0.9396926208,0.3420201433,0.0));
#1022=VECTOR('',#1021,1.0);
#1023=LINE('',#1020,#1022);
#1024=TRIMMED_CURVE('no 126',#1023,(PARAMETER_VALUE(0.0)),(PARAMETER_VALUE(72.4046210045)),.T.,.PARAMETER.);
#1025=COMPOSITE_CURVE_SEGMENT(.CONTINUOUS.,.T.,#1024);
#1026=CARTESIAN_POINT('',(36.5102735512,37.2638388534,0.0));
#1027=DIRECTION('',(0.8191520443,-0.5735764364,0.0));
#1028=VECTOR('',#1027,1.0);
#1029=LINE('',#1026,#1028);
#1030=TRIMMED_CURVE('no 128',#1029,(PARAMETER_VALUE(0.0)),(PARAMETER_VALUE(2.4415491775)),.T.,.PARAMETER.);
#1031=COMPOSITE_CURVE_SEGMENT(.CONTINUOUS.,.T.,#1030);
#1032=COMPOSITE_CURVE('Wireframe',(#1025,#1031),.U.);
#1033=PRESENTATION_LAYER_ASSIGNMENT('2','Layer 2',(#1032));
#1034=STYLED_ITEM('',(#941),#1032);
#1035=INVISIBILITY((#1033));
#1036=CARTESIAN_POINT('',(44.0278145175,32.0,0.0));
#1037=DIRECTION('',(-0.8191520443,0.5735764364,0.0));
#1038=VECTOR('',#1037,1.0);
#1039=LINE('',#1036,#1038);
#1040=TRIMMED_CURVE('no 130',#1039,(PARAMETER_VALUE(0.0)),(PARAMETER_VALUE(6.7356738041)),.T.,.PARAMETER.);
#1041=PRESENTATION_LAYER_ASSIGNMENT('2','Layer 2',(#1040));
#1042=STYLED_ITEM('',(#941),#1040);
#1043=INVISIBILITY((#1041));
#1044=CARTESIAN_POINT('',(44.0278145175,31.0,0.0));
#1045=DIRECTION('',(0.0,1.0,0.0));
#1046=VECTOR('',#1045,1.0);
#1047=LINE('',#1044,#1046);
#1048=TRIMMED_CURVE('no 132',#1047,(PARAMETER_VALUE(0.0)),(PARAMETER_VALUE(1.0)),.T.,.PARAMETER.);
#1049=PRESENTATION_LAYER_ASSIGNMENT('2','Layer 2',(#1048));
#1050=STYLED_ITEM('',(#941),#1048);
#1051=INVISIBILITY((#1049));
#1052=CARTESIAN_POINT('',(44.0278145175,31.0,0.0));
#1053=DIRECTION('',(0.0,-1.0,0.0));
#1054=VECTOR('',#1053,1.0);
#1055=LINE('',#1052,#1054);
#1056=TRIMMED_CURVE('no 134',#1055,(PARAMETER_VALUE(0.0)),(PARAMETER_VALUE(1.0)),.T.,.PARAMETER.);
#1057=PRESENTATION_LAYER_ASSIGNMENT('2','Layer 2',(#1056));
#1058=STYLED_ITEM('',(#941),#1056);
#1059=INVISIBILITY((#1057));
#1060=CARTESIAN_POINT('',(44.0278145175,26.0,0.0));
#1061=DIRECTION('',(-0.0,1.0,0.0));
#1062=VECTOR('',#1061,1.0);
#1063=LINE('',#1060,#1062);
#1064=TRIMMED_CURVE('no 136',#1063,(PARAMETER_VALUE(0.0)),(PARAMETER_VALUE(4.0)),.T.,.PARAMETER.);
#1065=PRESENTATION_LAYER_ASSIGNMENT('2','Layer 2',(#1064));
#1066=STYLED_ITEM('',(#941),#1064);
#1067=INVISIBILITY((#1065));
#1068=CARTESIAN_POINT('',(44.0278145175,26.0,0.0));
#1069=DIRECTION('',(0.0,-1.0,0.0));
#1070=VECTOR('',#1069,1.0);
#1071=LINE('',#1068,#1070);
#1072=TRIMMED_CURVE('no 138',#1071,(PARAMETER_VALUE(0.0)),(PARAMETER_VALUE(1.0)),.T.,.PARAMETER.);
#1073=COMPOSITE_CURVE_SEGMENT(.CONTINUOUS.,.T.,#1072);
#1074=CARTESIAN_POINT('',(44.0278145175,0.0,0.0));
#1075=DIRECTION('',(0.0,0.0,1.0));
#1076=DIRECTION('',(1.0,0.0,0.0));
#1077=AXIS2_PLACEMENT_3D('',#1074,#1075,#1076);
#1078=CIRCLE('',#1077,25.0);
#1079=TRIMMED_CURVE('no 140',#1078,(PARAMETER_VALUE(1.5707963268)),(PARAMETER_VALUE(4.7123889804)),.T.,.PARAMETER.);
#1080=COMPOSITE_CURVE_SEGMENT(.CONTINUOUS.,.T.,#1079);
#1081=CARTESIAN_POINT('',(44.0278145175,-25.0,0.0));
#1082=DIRECTION('',(0.0,-1.0,0.0));
#1083=VECTOR('',#1082,1.0);
#1084=LINE('',#1081,#1083);
#1085=TRIMMED_CURVE('no 142',#1084,(PARAMETER_VALUE(0.0)),(PARAMETER_VALUE(1.0)),.T.,.PARAMETER.);
#1086=COMPOSITE_CURVE_SEGMENT(.CONTINUOUS.,.T.,#1085);
#1087=COMPOSITE_CURVE('Wireframe',(#1073,#1080,#1086),.U.);
#1088=PRESENTATION_LAYER_ASSIGNMENT('2','Layer 2',(#1087));
#1089=STYLED_ITEM('',(#941),#1087);
#1090=INVISIBILITY((#1088));
#1091=CARTESIAN_POINT('',(44.0278145175,-30.0,0.0));
#1092=DIRECTION('',(-0.0,1.0,0.0));
#1093=VECTOR('',#1092,1.0);
#1094=LINE('',#1091,#1093);
#1095=TRIMMED_CURVE('no 144',#1094,(PARAMETER_VALUE(0.0)),(PARAMETER_VALUE(4.0)),.T.,.PARAMETER.);
#1096=PRESENTATION_LAYER_ASSIGNMENT('2','Layer 2',(#1095));
#1097=STYLED_ITEM('',(#941),#1095);
#1098=INVISIBILITY((#1096));
#1099=CARTESIAN_POINT('',(44.0278145175,-30.0,0.0));
#1100=DIRECTION('',(0.0,-1.0,0.0));
#1101=VECTOR('',#1100,1.0);
#1102=LINE('',#1099,#1101);
#1103=TRIMMED_CURVE('no 146',#1102,(PARAMETER_VALUE(0.0)),(PARAMETER_VALUE(1.0)),.T.,.PARAMETER.);
#1104=PRESENTATION_LAYER_ASSIGNMENT('2','Layer 2',(#1103));
#1105=STYLED_ITEM('',(#941),#1103);
#1106=INVISIBILITY((#1104));
#1107=CARTESIAN_POINT('',(44.0278145175,-32.0,0.0));
#1108=DIRECTION('',(-0.0,1.0,0.0));
#1109=VECTOR('',#1108,1.0);
#1110=LINE('',#1107,#1109);
#1111=TRIMMED_CURVE('no 148',#1110,(PARAMETER_VALUE(0.0)),(PARAMETER_VALUE(1.0)),.T.,.PARAMETER.);
#1112=PRESENTATION_LAYER_ASSIGNMENT('2','Layer 2',(#1111));
#1113=STYLED_ITEM('',(#941),#1111);
#1114=INVISIBILITY((#1112));
#1115=CARTESIAN_POINT('',(38.5102735512,-35.863423777,0.0));
#1116=DIRECTION('',(0.8191520443,0.5735764364,0.0));
#1117=VECTOR('',#1116,1.0);
#1118=LINE('',#1115,#1117);
#1119=TRIMMED_CURVE('no 150',#1118,(PARAMETER_VALUE(0.0)),(PARAMETER_VALUE(6.7356738041)),.T.,.PARAMETER.);
#1120=PRESENTATION_LAYER_ASSIGNMENT('2','Layer 2',(#1119));
#1121=STYLED_ITEM('',(#941),#1119);
#1122=INVISIBILITY((#1120));
#1123=CARTESIAN_POINT('',(38.5102735512,-35.863423777,0.0));
#1124=DIRECTION('',(-0.8191520443,-0.5735764364,0.0));
#1125=VECTOR('',#1124,1.0);
#1126=LINE('',#1123,#1125);
#1127=TRIMMED_CURVE('no 152',#1126,(PARAMETER_VALUE(0.0)),(PARAMETER_VALUE(2.4415491775)),.T.,.PARAMETER.);
#1128=COMPOSITE_CURVE_SEGMENT(.CONTINUOUS.,.T.,#1127);
#1129=CARTESIAN_POINT('',(36.5102735512,-37.2638388534,0.0));
#1130=DIRECTION('',(-0.9396926208,0.3420201433,0.0));
#1131=VECTOR('',#1130,1.0);
#1132=LINE('',#1129,#1131);
#1133=TRIMMED_CURVE('no 154',#1132,(PARAMETER_VALUE(0.0)),(PARAMETER_VALUE(72.4046210045)),.T.,.PARAMETER.);
#1134=COMPOSITE_CURVE_SEGMENT(.CONTINUOUS.,.T.,#1133);
#1135=COMPOSITE_CURVE('Wireframe',(#1128,#1134),.U.);
#1136=PRESENTATION_LAYER_ASSIGNMENT('2','Layer 2',(#1135));
#1137=STYLED_ITEM('',(#941),#1135);
#1138=INVISIBILITY((#1136));
#1139=CARTESIAN_POINT('',(-31.5278145175,-0.0,0.0));
#1140=DIRECTION('',(0.0,0.0,1.0));
#1141=DIRECTION('',(1.0,0.0,0.0));
#1142=AXIS2_PLACEMENT_3D('',#1139,#1140,#1141);
#1143=CIRCLE('',#1142,12.5);
#1144=TRIMMED_CURVE('no 160',#1143,(PARAMETER_VALUE(1.5707963268)),(PARAMETER_VALUE(4.7123889804)),.T.,.PARAMETER.);
#1145=PRESENTATION_LAYER_ASSIGNMENT('2','Layer 2',(#1144));
#1146=STYLED_ITEM('',(#941),#1144);
#1147=INVISIBILITY((#1145));
#1148=CARTESIAN_POINT('',(-31.5278145175,-0.0,0.0));
#1149=DIRECTION('',(0.0,0.0,1.0));
#1150=DIRECTION('',(1.0,0.0,0.0));
#1151=AXIS2_PLACEMENT_3D('',#1148,#1149,#1150);
#1152=CIRCLE('',#1151,10.0);
#1153=PRESENTATION_LAYER_ASSIGNMENT('2','Layer 2',(#1152));
#1154=STYLED_ITEM('',(#941),#1152);
#1155=INVISIBILITY((#1153));
#1156=CARTESIAN_POINT('',(-31.5278145175,-0.0,0.0));
#1157=DIRECTION('',(0.0,0.0,1.0));
#1158=DIRECTION('',(1.0,0.0,0.0));
#1159=AXIS2_PLACEMENT_3D('',#1156,#1157,#1158);
#1160=CIRCLE('',#1159,12.5);
#1161=TRIMMED_CURVE('no 234',#1160,(PARAMETER_VALUE(-1.2432406238)),(PARAMETER_VALUE(1.2432406238)),.T.,.PARAMETER.);
#1162=COMPOSITE_CURVE_SEGMENT(.CONTINUOUS.,.T.,#1161);
#1163=CARTESIAN_POINT('',(-27.5061938394,11.8353946754,0.0));
#1164=CARTESIAN_POINT('',(-28.804255004,12.2764707665,0.0));
#1165=CARTESIAN_POINT('',(-30.1568619635,12.5,0.0));
#1166=CARTESIAN_POINT('',(-31.5278145175,12.5,0.0));
#1167=(BOUNDED_CURVE() B_SPLINE_CURVE(3,(#1163,#1164,#1165,#1166),.UNSPECIFIED.,.F.,.U.)
  B_SPLINE_CURVE_WITH_KNOTS((4,4),(0.0,1.0),.UNSPECIFIED.)
  CURVE() GEOMETRIC_REPRESENTATION_ITEM() RATIONAL_B_SPLINE_CURVE((1.0,0.9910789062,0.9910789062,1.0))  REPRESENTATION_ITEM('') );
#1168=COMPOSITE_CURVE_SEGMENT(.CONTINUOUS.,.T.,#1167);
#1169=CARTESIAN_POINT('',(-31.5278145175,12.5,0.0));
#1170=DIRECTION('',(0.9396926208,0.3420201433,0.0));
#1171=VECTOR('',#1170,1.0);
#1172=LINE('',#1169,#1171);
#1173=TRIMMED_CURVE('no 238',#1172,(PARAMETER_VALUE(0.0)),(PARAMETER_VALUE(72.4046210045)),.T.,.PARAMETER.);
#1174=COMPOSITE_CURVE_SEGMENT(.CONTINUOUS.,.T.,#1173);
#1175=CARTESIAN_POINT('',(36.5102735512,37.2638388534,0.0));
#1176=DIRECTION('',(0.8191520443,-0.5735764364,0.0));
#1177=VECTOR('',#1176,1.0);
#1178=LINE('',#1175,#1177);
#1179=TRIMMED_CURVE('no 240',#1178,(PARAMETER_VALUE(0.0)),(PARAMETER_VALUE(2.4415491775)),.T.,.PARAMETER.);
#1180=COMPOSITE_CURVE_SEGMENT(.CONTINUOUS.,.T.,#1179);
#1181=COMPOSITE_CURVE('Wireframe',(#1162,#1168,#1174,#1180),.U.);
#1182=PRESENTATION_LAYER_ASSIGNMENT('3','Layer 3',(#1181));
#1183=STYLED_ITEM('',(#941),#1181);
#1184=INVISIBILITY((#1182));
#1185=CARTESIAN_POINT('',(44.0278145175,32.0,0.0));
#1186=DIRECTION('',(-0.8191520443,0.5735764364,0.0));
#1187=VECTOR('',#1186,1.0);
#1188=LINE('',#1185,#1187);
#1189=TRIMMED_CURVE('no 242',#1188,(PARAMETER_VALUE(0.0)),(PARAMETER_VALUE(6.7356738041)),.T.,.PARAMETER.);
#1190=PRESENTATION_LAYER_ASSIGNMENT('3','Layer 3',(#1189));
#1191=STYLED_ITEM('',(#941),#1189);
#1192=INVISIBILITY((#1190));
#1193=CARTESIAN_POINT('',(44.0278145175,0.0,0.0));
#1194=DIRECTION('',(0.0,0.0,1.0));
#1195=DIRECTION('',(1.0,0.0,0.0));
#1196=AXIS2_PLACEMENT_3D('',#1193,#1194,#1195);
#1197=CIRCLE('',#1196,30.0);
#1198=TRIMMED_CURVE('no 246',#1197,(PARAMETER_VALUE(1.5707963268)),(PARAMETER_VALUE(4.7123889804)),.T.,.PARAMETER.);
#1199=COMPOSITE_CURVE_SEGMENT(.CONTINUOUS.,.T.,#1198);
#1200=CARTESIAN_POINT('',(44.0278145175,-30.0,0.0));
#1201=DIRECTION('',(0.0,-1.0,0.0));
#1202=VECTOR('',#1201,1.0);
#1203=LINE('',#1200,#1202);
#1204=TRIMMED_CURVE('no 248',#1203,(PARAMETER_VALUE(0.0)),(PARAMETER_VALUE(1.0)),.T.,.PARAMETER.);
#1205=COMPOSITE_CURVE_SEGMENT(.CONTINUOUS.,.T.,#1204);
#1206=COMPOSITE_CURVE('Wireframe',(#1199,#1205),.U.);
#1207=PRESENTATION_LAYER_ASSIGNMENT('3','Layer 3',(#1206));
#1208=STYLED_ITEM('',(#941),#1206);
#1209=INVISIBILITY((#1207));
#1210=CARTESIAN_POINT('',(44.0278145175,-32.0,0.0));
#1211=DIRECTION('',(-0.0,1.0,0.0));
#1212=VECTOR('',#1211,1.0);
#1213=LINE('',#1210,#1212);
#1214=TRIMMED_CURVE('no 250',#1213,(PARAMETER_VALUE(0.0)),(PARAMETER_VALUE(1.0)),.T.,.PARAMETER.);
#1215=PRESENTATION_LAYER_ASSIGNMENT('3','Layer 3',(#1214));
#1216=STYLED_ITEM('',(#941),#1214);
#1217=INVISIBILITY((#1215));
#1218=CARTESIAN_POINT('',(38.5102735512,-35.863423777,0.0));
#1219=DIRECTION('',(0.8191520443,0.5735764364,0.0));
#1220=VECTOR('',#1219,1.0);
#1221=LINE('',#1218,#1220);
#1222=TRIMMED_CURVE('no 252',#1221,(PARAMETER_VALUE(0.0)),(PARAMETER_VALUE(6.7356738041)),.T.,.PARAMETER.);
#1223=PRESENTATION_LAYER_ASSIGNMENT('3','Layer 3',(#1222));
#1224=STYLED_ITEM('',(#941),#1222);
#1225=INVISIBILITY((#1223));
#1226=CARTESIAN_POINT('',(38.5102735512,-35.863423777,0.0));
#1227=DIRECTION('',(-0.8191520443,-0.5735764364,0.0));
#1228=VECTOR('',#1227,1.0);
#1229=LINE('',#1226,#1228);
#1230=TRIMMED_CURVE('no 254',#1229,(PARAMETER_VALUE(0.0)),(PARAMETER_VALUE(2.4415491775)),.T.,.PARAMETER.);
#1231=COMPOSITE_CURVE_SEGMENT(.CONTINUOUS.,.T.,#1230);
#1232=CARTESIAN_POINT('',(36.5102735512,-37.2638388534,0.0));
#1233=DIRECTION('',(-0.9396926208,0.3420201433,0.0));
#1234=VECTOR('',#1233,1.0);
#1235=LINE('',#1232,#1234);
#1236=TRIMMED_CURVE('no 256',#1235,(PARAMETER_VALUE(0.0)),(PARAMETER_VALUE(72.4046210045)),.T.,.PARAMETER.);
#1237=COMPOSITE_CURVE_SEGMENT(.CONTINUOUS.,.T.,#1236);
#1238=COMPOSITE_CURVE('Wireframe',(#1231,#1237),.U.);
#1239=PRESENTATION_LAYER_ASSIGNMENT('3','Layer 3',(#1238));
#1240=STYLED_ITEM('',(#941),#1238);
#1241=INVISIBILITY((#1239));
#1242=CARTESIAN_POINT('',(44.0278145175,31.0,0.0));
#1243=DIRECTION('',(0.0,1.0,0.0));
#1244=VECTOR('',#1243,1.0);
#1245=LINE('',#1242,#1244);
#1246=TRIMMED_CURVE('no 258',#1245,(PARAMETER_VALUE(0.0)),(PARAMETER_VALUE(1.0)),.T.,.PARAMETER.);
#1247=PRESENTATION_LAYER_ASSIGNMENT('3','Layer 3',(#1246));
#1248=STYLED_ITEM('',(#941),#1246);
#1249=INVISIBILITY((#1247));
#1250=CARTESIAN_POINT('',(44.0278145175,31.0,0.0));
#1251=DIRECTION('',(0.0,-1.0,0.0));
#1252=VECTOR('',#1251,1.0);
#1253=LINE('',#1250,#1252);
#1254=TRIMMED_CURVE('no 260',#1253,(PARAMETER_VALUE(0.0)),(PARAMETER_VALUE(1.0)),.T.,.PARAMETER.);
#1255=PRESENTATION_LAYER_ASSIGNMENT('3','Layer 3',(#1254));
#1256=STYLED_ITEM('',(#941),#1254);
#1257=INVISIBILITY((#1255));
#1258=CARTESIAN_POINT('',(-31.5278145175,-12.5,0.0));
#1259=CARTESIAN_POINT('',(-30.1568619635,-12.5,0.0));
#1260=CARTESIAN_POINT('',(-28.804255004,-12.2764707665,0.0));
#1261=CARTESIAN_POINT('',(-27.5061938394,-11.8353946754,0.0));
#1262=(BOUNDED_CURVE() B_SPLINE_CURVE(3,(#1258,#1259,#1260,#1261),.UNSPECIFIED.,.F.,.U.)
  B_SPLINE_CURVE_WITH_KNOTS((4,4),(0.0,1.0),.UNSPECIFIED.)
  CURVE() GEOMETRIC_REPRESENTATION_ITEM() RATIONAL_B_SPLINE_CURVE((1.0,0.9910789062,0.9910789062,1.0))  REPRESENTATION_ITEM('') );
#1263=PRESENTATION_LAYER_ASSIGNMENT('3','Layer 3',(#1262));
#1264=STYLED_ITEM('',(#941),#1262);
#1265=INVISIBILITY((#1263));
#1266=CARTESIAN_POINT('',(-31.5278145175,-0.0,0.0));
#1267=DIRECTION('',(0.0,0.0,1.0));
#1268=DIRECTION('',(1.0,0.0,0.0));
#1269=AXIS2_PLACEMENT_3D('',#1266,#1267,#1268);
#1270=CIRCLE('',#1269,12.5);
#1271=PRESENTATION_LAYER_ASSIGNMENT('4','Layer 4',(#1270));
#1272=STYLED_ITEM('',(#941),#1270);
#1273=INVISIBILITY((#1271));
#1274=CARTESIAN_POINT('',(44.0278145175,0.0,0.0));
#1275=DIRECTION('',(0.0,0.0,1.0));
#1276=DIRECTION('',(1.0,0.0,0.0));
#1277=AXIS2_PLACEMENT_3D('',#1274,#1275,#1276);
#1278=CIRCLE('',#1277,31.0);
#1279=TRIMMED_CURVE('no 405',#1278,(PARAMETER_VALUE(1.3769331374)),(PARAMETER_VALUE(4.9062521698)),.T.,.PARAMETER.);
#1280=COMPOSITE_CURVE_SEGMENT(.CONTINUOUS.,.T.,#1279);
#1281=CARTESIAN_POINT('',(50.0,-30.4192866544,0.0));
#1282=DIRECTION('',(0.0,1.0,0.0));
#1283=VECTOR('',#1282,1.0);
#1284=LINE('',#1281,#1283);
#1285=TRIMMED_CURVE('no 433',#1284,(PARAMETER_VALUE(0.0)),(PARAMETER_VALUE(60.8385733088)),.T.,.PARAMETER.);
#1286=COMPOSITE_CURVE_SEGMENT(.CONTINUOUS.,.T.,#1285);
#1287=COMPOSITE_CURVE('Wireframe',(#1280,#1286),.U.);
#1288=PRESENTATION_LAYER_ASSIGNMENT('4','Layer 4',(#1287));
#1289=STYLED_ITEM('',(#941),#1287);
#1290=INVISIBILITY((#1288));
#1291=CARTESIAN_POINT('',(50.0,-30.4192866544,0.0));
#1292=DIRECTION('',(0.0,1.0,0.0));
#1293=VECTOR('',#1292,1.0);
#1294=LINE('',#1291,#1293);
#1295=TRIMMED_CURVE('no 434',#1294,(PARAMETER_VALUE(0.0)),(PARAMETER_VALUE(60.8385733088)),.T.,.PARAMETER.);
#1296=PRESENTATION_LAYER_ASSIGNMENT('4','Layer 4',(#1295));
#1297=STYLED_ITEM('',(#941),#1295);
#1298=INVISIBILITY((#1296));
#1299=CARTESIAN_POINT('',(44.0278145175,0.0,0.0));
#1300=DIRECTION('',(0.0,0.0,1.0));
#1301=DIRECTION('',(1.0,0.0,0.0));
#1302=AXIS2_PLACEMENT_3D('',#1299,#1300,#1301);
#1303=CIRCLE('',#1302,30.0);
#1304=TRIMMED_CURVE('no 793',#1303,(PARAMETER_VALUE(1.3703845839)),(PARAMETER_VALUE(4.9128007233)),.T.,.PARAMETER.);
#1305=PRESENTATION_LAYER_ASSIGNMENT('5','Layer 5',(#1304));
#1306=STYLED_ITEM('',(#941),#1304);
#1307=CARTESIAN_POINT('',(50.0,29.3995408223,0.0));
#1308=DIRECTION('',(0.0,-1.0,0.0));
#1309=VECTOR('',#1308,1.0);
#1310=LINE('',#1307,#1309);
#1311=TRIMMED_CURVE('no 795',#1310,(PARAMETER_VALUE(0.0)),(PARAMETER_VALUE(58.7990816446)),.T.,.PARAMETER.);
#1312=PRESENTATION_LAYER_ASSIGNMENT('5','Layer 5',(#1311));
#1313=STYLED_ITEM('',(#941),#1311);
#1314=CARTESIAN_POINT('',(50.0,45.0,0.0));
#1315=DIRECTION('',(-0.0,-1.0,0.0));
#1316=VECTOR('',#1315,1.0);
#1317=LINE('',#1314,#1316);
#1318=TRIMMED_CURVE('no 807',#1317,(PARAMETER_VALUE(0.0)),(PARAMETER_VALUE(15.6004591777)),.T.,.PARAMETER.);
#1319=PRESENTATION_LAYER_ASSIGNMENT('5','Layer 5',(#1318));
#1320=STYLED_ITEM('',(#941),#1318);
#1321=CARTESIAN_POINT('',(-31.5278145175,-0.0,0.0));
#1322=DIRECTION('',(0.0,0.0,-1.0));
#1323=DIRECTION('',(-1.0,0.0,0.0));
#1324=AXIS2_PLACEMENT_3D('',#1321,#1322,#1323);
#1325=CIRCLE('',#1324,12.5);
#1326=COMPOSITE_CURVE_SEGMENT(.CONTINUOUS.,.T.,#1325);
#1327=CARTESIAN_POINT('',(-31.5278145175,-0.0,0.0));
#1328=DIRECTION('',(0.0,0.0,-1.0));
#1329=DIRECTION('',(-1.0,0.0,0.0));
#1330=AXIS2_PLACEMENT_3D('',#1327,#1328,#1329);
#1331=CIRCLE('',#1330,12.5);
#1332=COMPOSITE_CURVE_SEGMENT(.CONTINUOUS.,.T.,#1331);
#1333=COMPOSITE_CURVE('Wireframe',(#1326,#1332),.U.);
#1334=PRESENTATION_LAYER_ASSIGNMENT('5','Layer 5',(#1333));
#1335=STYLED_ITEM('',(#941),#1333);
#1336=CARTESIAN_POINT('',(44.0278145175,0.0,0.0));
#1337=DIRECTION('',(0.0,0.0,-1.0));
#1338=DIRECTION('',(-1.0,0.0,0.0));
#1339=AXIS2_PLACEMENT_3D('',#1336,#1337,#1338);
#1340=CIRCLE('',#1339,31.0);
#1341=PRESENTATION_LAYER_ASSIGNMENT('5','Layer 5',(#1340));
#1342=STYLED_ITEM('',(#941),#1340);
#1343=CARTESIAN_POINT('Point',(-0.0,0.0,0.0));
#1344=PRESENTATION_LAYER_ASSIGNMENT('1','Layer 1',(#1343));
#1345=PRE_DEFINED_MARKER('asterisk');
#1346=POINT_STYLE('',#1345,POSITIVE_LENGTH_MEASURE(1.0),#938);
#1347=PRESENTATION_STYLE_ASSIGNMENT((#1346));
#1348=STYLED_ITEM('',(#1347),#1343);
#1349=CARTESIAN_POINT('Point',(-0.0,0.0,-30.0));
#1350=PRESENTATION_LAYER_ASSIGNMENT('1','Layer 1',(#1349));
#1351=STYLED_ITEM('',(#1347),#1349);
#1352=GEOMETRIC_CURVE_SET('Wireframe',(
    #936,#947,#954,#961,#968,#975,#982,#989,#996,#1003,#1010,#1017,#1032,#1040,#1048,#1056,#1064,#1087,#1095,#1103,
    #1111,#1119,#1135,#1144,#1152,#1181,#1189,#1206,#1214,#1222,#1238,#1246,#1254,#1262,#1270,#1287,#1295,#1304,#1311,#1318,
    #1333,#1340,#1343,#1349));
#1353=CARTESIAN_POINT('',(0.,0.,0.));
#1354=DIRECTION('',(0.,0.,1.));
#1355=DIRECTION('',(1.,0.,0.));
#1356=AXIS2_PLACEMENT_3D('Reference Axes',#1353,#1354,#1355);
#1357=ADVANCED_BREP_SHAPE_REPRESENTATION('',(#1356,#888),#5);
#1358=GEOMETRICALLY_BOUNDED_WIREFRAME_SHAPE_REPRESENTATION('',(#1356,#1352),#5);
#1359=SHAPE_REPRESENTATION('',(#1356),#5);
#1360=SHAPE_REPRESENTATION_RELATIONSHIP('','',#1357,#1359);
#1361=SHAPE_REPRESENTATION_RELATIONSHIP('','',#1358,#1359);
#1362=SHAPE_DEFINITION_REPRESENTATION(#12,#1359);
#1363=MECHANICAL_DESIGN_GEOMETRIC_PRESENTATION_REPRESENTATION('',(
    #897,#905,#906,#907,#908,#909,#910,#911,#912,#913,
    #914,#915,#916,#917,#918,#919,#920,#921,#922,#923,
    #924,#925,#926,#927,#928,#929,#930,#931,#942,#949,
    #956,#963,#970,#977,#984,#991,#998,#1005,#1012,#1019,
    #1034,#1042,#1050,#1058,#1066,#1089,#1097,#1105,#1113,#1121,
    #1137,#1146,#1154,#1183,#1191,#1208,#1216,#1224,#1240,#1248,
    #1256,#1264,#1272,#1289,#1297,#1306,#1313,#1320,#1335,#1342,
    #1348,#1351),#5);
ENDSEC;
END-ISO-10303-21;
