ISO-10303-21;
HEADER;
FILE_DESCRIPTION (( 'STEP AP203' ),
    '1' );
FILE_NAME ('gear shift fork.STEP',
    '2026-09-30T14:41:38',
    ( '' ),
    ( '' ),
    'SwSTEP 2.0',
    'SolidWorks 2021',
    '' );
FILE_SCHEMA (( 'CONFIG_CONTROL_DESIGN' ));
ENDSEC;

DATA;
#1 = CARTESIAN_POINT ( 'NONE',  ( 37.26383885339459567, 5.499999999999997335, -7.517540966287315385 ) ) ;
#2 = CARTESIAN_POINT ( 'NONE',  ( -12.50000000000000000, -5.499999999999998224, -75.55562903500108973 ) ) ;
#3 = CIRCLE ( 'NONE', #930, 25.00000000000000000 ) ;
#4 = EDGE_CURVE ( 'NONE', #57, #110, #278, .T. ) ;
#5 = PLANE ( 'NONE',  #760 ) ;
#6 = EDGE_LOOP ( 'NONE', ( #135, #600, #473, #1007 ) ) ;
#7 = CARTESIAN_POINT ( 'NONE',  ( -12.50000000000000000, -5.500000000000005329, -75.55562903500108973 ) ) ;
#8 = CARTESIAN_POINT ( 'NONE',  ( 0.000000000000000000, -7.500000000000000000, 0.000000000000000000 ) ) ;
#9 = ORIENTED_EDGE ( 'NONE', *, *, #301, .F. ) ;
#10 = DIRECTION ( 'NONE',  ( 0.000000000000000000, 0.000000000000000000, 1.000000000000000000 ) ) ;
#11 = DIRECTION ( 'NONE',  ( -0.3420201433256728207, 0.000000000000000000, 0.9396926207859068736 ) ) ;
#12 = PLANE ( 'NONE',  #586 ) ;
#13 = EDGE_CURVE ( 'NONE', #982, #991, #290, .T. ) ;
#14 = CARTESIAN_POINT ( 'NONE',  ( 0.000000000000000000, 15.00000000000000000, -75.55562903500108973 ) ) ;
#15 = CIRCLE ( 'NONE', #157, 30.00000000000000000 ) ;
#16 = CONICAL_SURFACE ( 'NONE', #912, 25.00000000000000000, 0.7853981633974466137 ) ;
#17 = DIRECTION ( 'NONE',  ( 1.000000000000000000, 0.000000000000000000, 0.000000000000000000 ) ) ;
#18 = EDGE_CURVE ( 'NONE', #475, #717, #219, .T. ) ;
#19 = EDGE_LOOP ( 'NONE', ( #325, #558, #265, #843, #553, #605, #624, #876, #904 ) ) ;
#20 = EDGE_CURVE ( 'NONE', #96, #960, #963, .T. ) ;
#21 = ORIENTED_EDGE ( 'NONE', *, *, #268, .T. ) ;
#22 = PERSON_AND_ORGANIZATION ( #236, #358 ) ;
#23 = ORIENTED_EDGE ( 'NONE', *, *, #13, .T. ) ;
#24 = CARTESIAN_POINT ( 'NONE',  ( 0.000000000000000000, -15.00000000000000000, -65.55562903500108973 ) ) ;
#25 = ORIENTED_EDGE ( 'NONE', *, *, #480, .F. ) ;
#26 = VECTOR ( 'NONE', #634, 1000.000000000000000 ) ;
#27 = VERTEX_POINT ( 'NONE', #951 ) ;
#28 = DIRECTION ( 'NONE',  ( -0.000000000000000000, -1.000000000000000000, -0.000000000000000000 ) ) ;
#29 = EDGE_CURVE ( 'NONE', #44, #834, #543, .T. ) ;
#30 = ORIENTED_EDGE ( 'NONE', *, *, #462, .F. ) ;
#31 = ADVANCED_FACE ( 'NONE', ( #779 ), #172, .F. ) ;
#32 = CC_DESIGN_APPROVAL ( #98, ( #178 ) ) ;
#33 = ORIENTED_EDGE ( 'NONE', *, *, #128, .F. ) ;
#34 = VECTOR ( 'NONE', #983, 1000.000000000000000 ) ;
#35 = LINE ( 'NONE', #119, #729 ) ;
#36 = DIRECTION ( 'NONE',  ( 1.000000000000000000, 0.000000000000000000, 0.000000000000000000 ) ) ;
#37 = APPLICATION_CONTEXT ( 'configuration controlled 3d designs of mechanical parts and assemblies' ) ;
#38 = CARTESIAN_POINT ( 'NONE',  ( 0.000000000000000000, 2.500000000000000000, 0.000000000000000000 ) ) ;
#39 = EDGE_LOOP ( 'NONE', ( #78, #509, #497, #289, #243, #632, #702, #374, #40, #663 ) ) ;
#40 = ORIENTED_EDGE ( 'NONE', *, *, #20, .T. ) ;
#41 = FACE_OUTER_BOUND ( 'NONE', #613, .T. ) ;
#42 = CARTESIAN_POINT ( 'NONE',  ( 1.530808498934191324E-15, 15.00000000000000000, -63.05562903500108973 ) ) ;
#43 = ORIENTED_EDGE ( 'NONE', *, *, #61, .T. ) ;
#44 = VERTEX_POINT ( 'NONE', #399 ) ;
#45 = CARTESIAN_POINT ( 'NONE',  ( 0.000000000000000000, -6.500000000000012434, 0.000000000000000000 ) ) ;
#46 = AXIS2_PLACEMENT_3D ( 'NONE', #229, #486, #155 ) ;
#47 = ADVANCED_FACE ( 'NONE', ( #384 ), #862, .T. ) ;
#48 = CARTESIAN_POINT ( 'NONE',  ( 0.000000000000000000, -7.500000000000000000, -75.55562903500108973 ) ) ;
#49 = DIRECTION ( 'NONE',  ( 0.000000000000000000, 1.000000000000000000, 0.000000000000000000 ) ) ;
#50 = DIRECTION ( 'NONE',  ( -0.000000000000000000, -1.000000000000000000, -0.000000000000000000 ) ) ;
#51 = APPROVAL_DATE_TIME ( #607, #111 ) ;
#52 = ORIENTED_EDGE ( 'NONE', *, *, #938, .F. ) ;
#53 = CARTESIAN_POINT ( 'NONE',  ( 33.44150362080760175, -7.500000000000000000, -12.17171190707956185 ) ) ;
#54 = CIRCLE ( 'NONE', #641, 25.00000000000000000 ) ;
#55 = VECTOR ( 'NONE', #1049, 1000.000000000000000 ) ;
#56 = CARTESIAN_POINT ( 'NONE',  ( 30.00000000000000000, 6.499999999999988454, 0.000000000000000000 ) ) ;
#57 = VERTEX_POINT ( 'NONE', #56 ) ;
#58 = DIRECTION ( 'NONE',  ( -0.000000000000000000, -1.000000000000000000, -0.000000000000000000 ) ) ;
#59 = DIRECTION ( 'NONE',  ( -0.000000000000000000, 1.000000000000000000, -0.000000000000000000 ) ) ;
#60 = CARTESIAN_POINT ( 'NONE',  ( 0.000000000000000000, 2.500000000000000000, 0.000000000000000000 ) ) ;
#61 = EDGE_CURVE ( 'NONE', #915, #197, #621, .T. ) ;
#62 = EDGE_LOOP ( 'NONE', ( #185, #359, #784, #677 ) ) ;
#63 = CARTESIAN_POINT ( 'NONE',  ( 1.530808498934191719E-15, 15.00000000000000000, -63.05562903500108973 ) ) ;
#64 = ORIENTED_EDGE ( 'NONE', *, *, #685, .T. ) ;
#65 = PLANE ( 'NONE',  #222 ) ;
#66 = EDGE_CURVE ( 'NONE', #927, #827, #467, .T. ) ;
#67 = ORIENTED_EDGE ( 'NONE', *, *, #507, .F. ) ;
#68 = DIRECTION ( 'NONE',  ( -0.3420201433256728207, 0.000000000000000000, -0.9396926207859068736 ) ) ;
#69 = CARTESIAN_POINT ( 'NONE',  ( 0.000000000000000000, -7.500000000000000000, 0.000000000000000000 ) ) ;
#70 = VECTOR ( 'NONE', #567, 1000.000000000000000 ) ;
#71 = AXIS2_PLACEMENT_3D ( 'NONE', #704, #560, #627 ) ;
#72 = LINE ( 'NONE', #398, #687 ) ;
#73 = FACE_OUTER_BOUND ( 'NONE', #1018, .T. ) ;
#74 = ORIENTED_EDGE ( 'NONE', *, *, #20, .F. ) ;
#75 = CARTESIAN_POINT ( 'NONE',  ( -35.86342377697519623, -7.500000000000000000, -5.517540966287237225 ) ) ;
#76 = CARTESIAN_POINT ( 'NONE',  ( 11.83539467537122469, -7.500000000000000000, -71.53400835694175441 ) ) ;
#77 = DIRECTION ( 'NONE',  ( -0.000000000000000000, -1.000000000000000000, -0.000000000000000000 ) ) ;
#78 = ORIENTED_EDGE ( 'NONE', *, *, #764, .F. ) ;
#79 = DIRECTION ( 'NONE',  ( -0.000000000000000000, -1.000000000000000000, -0.000000000000000000 ) ) ;
#80 = LINE ( 'NONE', #390, #658 ) ;
#81 = ADVANCED_FACE ( 'NONE', ( #782 ), #471, .T. ) ;
#82 = DIRECTION ( 'NONE',  ( 0.000000000000000000, 1.000000000000000000, 0.000000000000000000 ) ) ;
#83 = DIRECTION ( 'NONE',  ( 0.000000000000000000, 0.000000000000000000, 1.000000000000000000 ) ) ;
#84 = CIRCLE ( 'NONE', #252, 30.00000000000000000 ) ;
#85 = LINE ( 'NONE', #160, #491 ) ;
#86 = CARTESIAN_POINT ( 'NONE',  ( 0.000000000000000000, -7.500000000000000000, 0.000000000000000000 ) ) ;
#87 = ORIENTED_EDGE ( 'NONE', *, *, #879, .T. ) ;
#88 = CARTESIAN_POINT ( 'NONE',  ( 30.00000000000000000, -2.500000000000000000, 0.000000000000000000 ) ) ;
#89 = CARTESIAN_POINT ( 'NONE',  ( -12.50000000000000000, -5.500000000000005329, -75.55562903500108973 ) ) ;
#90 =( BOUNDED_CURVE ( )  B_SPLINE_CURVE ( 3, ( #327, #857, #138, #961 ),
 .UNSPECIFIED., .F., .T. ) 
 B_SPLINE_CURVE_WITH_KNOTS ( ( 4, 4 ),
 ( 0.3490658503988703920, 0.6766215534207353777 ),
 .UNSPECIFIED. ) 
 CURVE ( )  GEOMETRIC_REPRESENTATION_ITEM ( )  RATIONAL_B_SPLINE_CURVE ( ( 1.000000000000000000, 0.9910789062361591295, 0.9910789062361591295, 1.000000000000000000 ) ) 
 REPRESENTATION_ITEM ( '' )  );
#91 = ORIENTED_EDGE ( 'NONE', *, *, #507, .T. ) ;
#92 = DIRECTION ( 'NONE',  ( -0.6644630243886729959, 0.7071067811865483499, 0.2418447626479779122 ) ) ;
#93 = ORIENTED_EDGE ( 'NONE', *, *, #462, .T. ) ;
#94 = CARTESIAN_POINT ( 'NONE',  ( -35.38445361182282056, 7.500000000000000000, -6.833500679635923447 ) ) ;
#95 = EDGE_CURVE ( 'NONE', #338, #200, #144, .T. ) ;
#96 = VERTEX_POINT ( 'NONE', #224 ) ;
#97 = DIRECTION ( 'NONE',  ( 0.000000000000000000, 0.000000000000000000, 1.000000000000000000 ) ) ;
#98 = APPROVAL ( #653, 'UNSPECIFIED' ) ;
#99 = CIRCLE ( 'NONE', #858, 12.49999999999999645 ) ;
#100 = COORDINATED_UNIVERSAL_TIME_OFFSET ( 7, 0, .AHEAD. ) ;
#101 = EDGE_CURVE ( 'NONE', #530, #145, #1039, .T. ) ;
#102 = ORIENTED_EDGE ( 'NONE', *, *, #582, .F. ) ;
#103 = VECTOR ( 'NONE', #198, 1000.000000000000000 ) ;
#104 = VECTOR ( 'NONE', #979, 1000.000000000000114 ) ;
#105 = COORDINATED_UNIVERSAL_TIME_OFFSET ( 7, 0, .AHEAD. ) ;
#106 = ORIENTED_EDGE ( 'NONE', *, *, #958, .T. ) ;
#107 = LINE ( 'NONE', #693, #723 ) ;
#108 = ORIENTED_EDGE ( 'NONE', *, *, #18, .F. ) ;
#109 =( NAMED_UNIT ( * ) PLANE_ANGLE_UNIT ( ) SI_UNIT ( $, .RADIAN. ) );
#110 = VERTEX_POINT ( 'NONE', #620 ) ;
#111 = APPROVAL ( #996, 'UNSPECIFIED' ) ;
#112 = DIRECTION ( 'NONE',  ( 0.000000000000000000, -0.000000000000000000, 1.000000000000000000 ) ) ;
#113 = ADVANCED_FACE ( 'NONE', ( #73 ), #65, .T. ) ;
#114 = ORIENTED_EDGE ( 'NONE', *, *, #882, .T. ) ;
#115 = APPROVAL_ROLE ( '' ) ;
#116 = CIRCLE ( 'NONE', #1051, 12.49999999999999645 ) ;
#117 = DESIGN_CONTEXT ( 'detailed design', #791, 'design' ) ;
#118 = ORIENTED_EDGE ( 'NONE', *, *, #879, .F. ) ;
#119 = CARTESIAN_POINT ( 'NONE',  ( -32.00000000000000000, -7.500000000000000000, 0.000000000000000000 ) ) ;
#120 = CARTESIAN_POINT ( 'NONE',  ( 0.000000000000000000, 15.00000000000000000, -88.05562903500107552 ) ) ;
#121 = CARTESIAN_POINT ( 'NONE',  ( -33.44150362080762307, -7.500000000000000000, -12.17171190707957074 ) ) ;
#122 = EDGE_LOOP ( 'NONE', ( #188, #309, #118, #713 ) ) ;
#123 = VECTOR ( 'NONE', #414, 1000.000000000000000 ) ;
#124 = ORIENTED_EDGE ( 'NONE', *, *, #797, .T. ) ;
#125 = CARTESIAN_POINT ( 'NONE',  ( 25.99999999999998934, 2.500000000000000000, 0.000000000000000000 ) ) ;
#126 = DIRECTION ( 'NONE',  ( 0.000000000000000000, 1.000000000000000000, 0.000000000000000000 ) ) ;
#127 = ORIENTED_EDGE ( 'NONE', *, *, #976, .T. ) ;
#128 = EDGE_CURVE ( 'NONE', #907, #303, #346, .T. ) ;
#129 = ORIENTED_EDGE ( 'NONE', *, *, #841, .T. ) ;
#130 = CARTESIAN_POINT ( 'NONE',  ( 12.50000000000000000, 5.499999999999997335, -75.55562903500108973 ) ) ;
#131 = DIRECTION ( 'NONE',  ( 0.000000000000000000, 1.000000000000000000, 0.000000000000000000 ) ) ;
#132 = DIRECTION ( 'NONE',  ( 0.000000000000000000, 1.000000000000000000, 0.000000000000000000 ) ) ;
#133 = CC_DESIGN_PERSON_AND_ORGANIZATION_ASSIGNMENT ( #975, #421, ( #479 ) ) ;
#134 = DIRECTION ( 'NONE',  ( -0.000000000000000000, -1.000000000000000000, 0.000000000000000000 ) ) ;
#135 = ORIENTED_EDGE ( 'NONE', *, *, #752, .F. ) ;
#136 = CARTESIAN_POINT ( 'NONE',  ( 0.000000000000000000, -23.49999999999938538, 0.000000000000000000 ) ) ;
#137 = VECTOR ( 'NONE', #195, 1000.000000000000000 ) ;
#138 = CARTESIAN_POINT ( 'NONE',  ( -12.27647076653975944, 6.641560986369665187, -72.83206952151898861 ) ) ;
#139 = DIRECTION ( 'NONE',  ( 0.000000000000000000, 0.000000000000000000, -1.000000000000000000 ) ) ;
#140 = APPROVAL_PERSON_ORGANIZATION ( #22, #111, #115 ) ;
#141 = ORIENTED_EDGE ( 'NONE', *, *, #950, .T. ) ;
#142 = CARTESIAN_POINT ( 'NONE',  ( 31.99999999999993960, 7.500000000000000000, 0.000000000000000000 ) ) ;
#143 = VECTOR ( 'NONE', #11, 1000.000000000000000 ) ;
#144 = LINE ( 'NONE', #392, #203 ) ;
#145 = VERTEX_POINT ( 'NONE', #716 ) ;
#146 = CARTESIAN_POINT ( 'NONE',  ( 1.530808498934191324E-15, 15.00000000000000000, -63.05562903500108973 ) ) ;
#147 = EDGE_CURVE ( 'NONE', #566, #682, #942, .T. ) ;
#148 = VERTEX_POINT ( 'NONE', #611 ) ;
#149 = CARTESIAN_POINT ( 'NONE',  ( 0.000000000000000000, -2.500000000000000000, 0.000000000000000000 ) ) ;
#150 = ADVANCED_FACE ( 'NONE', ( #311 ), #234, .F. ) ;
#151 = ORIENTED_EDGE ( 'NONE', *, *, #841, .F. ) ;
#152 = DIRECTION ( 'NONE',  ( 0.000000000000000000, 0.000000000000000000, 1.000000000000000000 ) ) ;
#153 = DIRECTION ( 'NONE',  ( 0.000000000000000000, 1.000000000000000000, 0.000000000000000000 ) ) ;
#154 = DIRECTION ( 'NONE',  ( 0.000000000000000000, 1.000000000000000000, 0.000000000000000000 ) ) ;
#155 = DIRECTION ( 'NONE',  ( 0.000000000000000000, -1.000000000000000000, 0.000000000000000000 ) ) ;
#156 = FACE_OUTER_BOUND ( 'NONE', #678, .T. ) ;
#157 = AXIS2_PLACEMENT_3D ( 'NONE', #383, #1010, #542 ) ;
#158 = DIRECTION ( 'NONE',  ( -0.3420201433256728207, 0.000000000000000000, 0.9396926207859068736 ) ) ;
#159 = PLANE ( 'NONE',  #274 ) ;
#160 = CARTESIAN_POINT ( 'NONE',  ( 10.62061475842820002, 7.500000000000000000, -74.87158874834975109 ) ) ;
#161 = DIRECTION ( 'NONE',  ( 0.000000000000000000, 0.000000000000000000, 1.000000000000000000 ) ) ;
#162 = EDGE_CURVE ( 'NONE', #533, #500, #947, .T. ) ;
#163 = UNCERTAINTY_MEASURE_WITH_UNIT (LENGTH_MEASURE( 1.000000000000000082E-05 ), #499, 'distance_accuracy_value', 'NONE');
#164 = DIRECTION ( 'NONE',  ( -1.000000000000000000, 0.000000000000000000, -0.000000000000000000 ) ) ;
#165 = FACE_OUTER_BOUND ( 'NONE', #673, .T. ) ;
#166 = CYLINDRICAL_SURFACE ( 'NONE', #239, 30.00000000000000000 ) ;
#167 = DIRECTION ( 'NONE',  ( 0.000000000000000000, 0.000000000000000000, 1.000000000000000000 ) ) ;
#168 = CARTESIAN_POINT ( 'NONE',  ( 12.50000000000000000, -5.499999999999971578, -75.55562903500108973 ) ) ;
#169 = VECTOR ( 'NONE', #260, 1000.000000000000000 ) ;
#170 = PERSON_AND_ORGANIZATION ( #236, #358 ) ;
#171 = ORIENTED_EDGE ( 'NONE', *, *, #4, .T. ) ;
#172 = CONICAL_SURFACE ( 'NONE', #496, 25.00000000000000000, 0.7853981633974466137 ) ;
#173 = LOCAL_TIME ( 21, 41, 38.00000000000000000, #575 ) ;
#174 = DIRECTION ( 'NONE',  ( 0.3420201433256728207, 0.000000000000000000, 0.9396926207859068736 ) ) ;
#175 = EDGE_CURVE ( 'NONE', #968, #470, #549, .T. ) ;
#176 = VECTOR ( 'NONE', #800, 1000.000000000000000 ) ;
#177 = ORIENTED_EDGE ( 'NONE', *, *, #593, .F. ) ;
#178 = PRODUCT_DEFINITION ( 'UNKNOWN', '', #911, #117 ) ;
#179 = LINE ( 'NONE', #646, #545 ) ;
#180 = ADVANCED_FACE ( 'NONE', ( #213 ), #16, .F. ) ;
#181 = ORIENTED_EDGE ( 'NONE', *, *, #189, .T. ) ;
#182 = DIRECTION ( 'NONE',  ( -0.3420201433256728207, 0.000000000000000000, -0.9396926207859068736 ) ) ;
#183 = PERSON_AND_ORGANIZATION ( #236, #358 ) ;
#184 = EDGE_LOOP ( 'NONE', ( #226, #939, #124, #177, #754 ) ) ;
#185 = ORIENTED_EDGE ( 'NONE', *, *, #4, .F. ) ;
#186 = VECTOR ( 'NONE', #132, 1000.000000000000000 ) ;
#187 = APPROVAL_ROLE ( '' ) ;
#188 = ORIENTED_EDGE ( 'NONE', *, *, #1006, .F. ) ;
#189 = EDGE_CURVE ( 'NONE', #303, #907, #465, .T. ) ;
#190 = DIRECTION ( 'NONE',  ( -3.552713678800501718E-15, 0.000000000000000000, 1.000000000000000000 ) ) ;
#191 = ORIENTED_EDGE ( 'NONE', *, *, #349, .T. ) ;
#192 = SHAPE_DEFINITION_REPRESENTATION ( #368, #995 ) ;
#193 = ORIENTED_EDGE ( 'NONE', *, *, #764, .T. ) ;
#194 = CARTESIAN_POINT ( 'NONE',  ( 0.000000000000000000, -15.00000000000000000, -75.55562903500108973 ) ) ;
#195 = DIRECTION ( 'NONE',  ( -0.000000000000000000, -1.000000000000000000, -0.000000000000000000 ) ) ;
#196 = ORIENTED_EDGE ( 'NONE', *, *, #175, .F. ) ;
#197 = VERTEX_POINT ( 'NONE', #655 ) ;
#198 = DIRECTION ( 'NONE',  ( 1.000000000000000000, 0.000000000000000000, 0.000000000000000000 ) ) ;
#199 = PLANE ( 'NONE',  #838 ) ;
#200 = VERTEX_POINT ( 'NONE', #574 ) ;
#201 = EDGE_CURVE ( 'NONE', #659, #485, #3, .T. ) ;
#202 = CIRCLE ( 'NONE', #481, 30.00000000000000000 ) ;
#203 = VECTOR ( 'NONE', #793, 999.9999999999998863 ) ;
#204 = EDGE_LOOP ( 'NONE', ( #266, #853, #215, #1041, #25, #334 ) ) ;
#205 = CARTESIAN_POINT ( 'NONE',  ( -12.50000000000000000, 7.500000000000000000, -75.55562903500108973 ) ) ;
#206 = CARTESIAN_POINT ( 'NONE',  ( -40.00000000000000000, -7.500000000000000000, 0.000000000000000000 ) ) ;
#207 = EDGE_CURVE ( 'NONE', #210, #145, #411, .T. ) ;
#208 = ORIENTED_EDGE ( 'NONE', *, *, #61, .F. ) ;
#209 = EDGE_CURVE ( 'NONE', #453, #470, #570, .T. ) ;
#210 = VERTEX_POINT ( 'NONE', #737 ) ;
#211 = DIRECTION ( 'NONE',  ( -0.7071067811865463515, -0.7071067811865487940, -0.000000000000000000 ) ) ;
#212 = DIRECTION ( 'NONE',  ( 0.000000000000000000, 0.000000000000000000, 1.000000000000000000 ) ) ;
#213 = FACE_OUTER_BOUND ( 'NONE', #832, .T. ) ;
#214 = CARTESIAN_POINT ( 'NONE',  ( 1.224646799147353256E-15, -15.00000000000000000, -85.55562903500107552 ) ) ;
#215 = ORIENTED_EDGE ( 'NONE', *, *, #349, .F. ) ;
#216 = FACE_OUTER_BOUND ( 'NONE', #449, .T. ) ;
#217 = AXIS2_PLACEMENT_3D ( 'NONE', #803, #410, #493 ) ;
#218 = CARTESIAN_POINT ( 'NONE',  ( 0.000000000000000000, -15.00000000000000000, -75.55562903500108973 ) ) ;
#219 = CIRCLE ( 'NONE', #378, 30.00000000000000000 ) ;
#220 = VERTEX_POINT ( 'NONE', #89 ) ;
#221 = DIRECTION ( 'NONE',  ( 0.000000000000000000, -0.000000000000000000, 1.000000000000000000 ) ) ;
#222 = AXIS2_PLACEMENT_3D ( 'NONE', #60, #388, #711 ) ;
#223 = ADVANCED_FACE ( 'NONE', ( #897 ), #885, .F. ) ;
#224 = CARTESIAN_POINT ( 'NONE',  ( 1.530808498934191719E-15, -15.00000000000000000, -63.05562903500108973 ) ) ;
#225 = CARTESIAN_POINT ( 'NONE',  ( 0.000000000000000000, 7.500000000000000000, 0.000000000000000000 ) ) ;
#226 = ORIENTED_EDGE ( 'NONE', *, *, #518, .F. ) ;
#227 = CARTESIAN_POINT ( 'NONE',  ( 0.000000000000000000, 7.500000000000000000, 0.000000000000000000 ) ) ;
#228 = ORIENTED_EDGE ( 'NONE', *, *, #522, .F. ) ;
#229 = CARTESIAN_POINT ( 'NONE',  ( 37.26383885339459567, 7.500000000000000000, -7.517540966287317161 ) ) ;
#230 = CARTESIAN_POINT ( 'NONE',  ( 30.99999999999997868, -7.500000000000000000, 0.000000000000000000 ) ) ;
#231 = AXIS2_PLACEMENT_3D ( 'NONE', #874, #893, #814 ) ;
#232 = CARTESIAN_POINT ( 'NONE',  ( 0.000000000000000000, 15.00000000000000000, -75.55562903500108973 ) ) ;
#233 = CARTESIAN_POINT ( 'NONE',  ( -30.00000000000000000, 2.499999999999998668, 0.000000000000000000 ) ) ;
#234 = CYLINDRICAL_SURFACE ( 'NONE', #498, 9.999999999999994671 ) ;
#235 = EDGE_CURVE ( 'NONE', #968, #927, #587, .T. ) ;
#236 = PERSON ( 'UNSPECIFIED', 'UNSPECIFIED', 'UNSPECIFIED', ('UNSPECIFIED'), ('UNSPECIFIED'), ('UNSPECIFIED') ) ;
#237 = CARTESIAN_POINT ( 'NONE',  ( 25.00000000000000000, 2.500000000000000000, 0.000000000000000000 ) ) ;
#238 = ORIENTED_EDGE ( 'NONE', *, *, #924, .F. ) ;
#239 = AXIS2_PLACEMENT_3D ( 'NONE', #709, #796, #808 ) ;
#240 = VECTOR ( 'NONE', #957, 1000.000000000000000 ) ;
#241 = LINE ( 'NONE', #956, #55 ) ;
#242 = CYLINDRICAL_SURFACE ( 'NONE', #780, 30.00000000000000000 ) ;
#243 = ORIENTED_EDGE ( 'NONE', *, *, #672, .T. ) ;
#244 = DIRECTION ( 'NONE',  ( 0.000000000000000000, 0.000000000000000000, 1.000000000000000000 ) ) ;
#245 = DIRECTION ( 'NONE',  ( -0.4437126062796550308, 0.6336872742246449919, 0.6336872742246408841 ) ) ;
#246 = DIRECTION ( 'NONE',  ( -0.000000000000000000, 1.000000000000000000, -0.000000000000000000 ) ) ;
#247 = FACE_OUTER_BOUND ( 'NONE', #932, .T. ) ;
#248 = CALENDAR_DATE ( 2026, 30, 9 ) ;
#249 = ORIENTED_EDGE ( 'NONE', *, *, #672, .F. ) ;
#250 = ADVANCED_FACE ( 'NONE', ( #165 ), #159, .F. ) ;
#251 = DIRECTION ( 'NONE',  ( 0.000000000000000000, 1.000000000000000000, 0.000000000000000000 ) ) ;
#252 = AXIS2_PLACEMENT_3D ( 'NONE', #38, #918, #445 ) ;
#253 = COORDINATED_UNIVERSAL_TIME_OFFSET ( 7, 0, .AHEAD. ) ;
#254 = ORIENTED_EDGE ( 'NONE', *, *, #769, .F. ) ;
#255 = LOCAL_TIME ( 21, 41, 38.00000000000000000, #105 ) ;
#256 = DIRECTION ( 'NONE',  ( 0.000000000000000000, 1.000000000000000000, 0.000000000000000000 ) ) ;
#257 = EDGE_CURVE ( 'NONE', #275, #427, #1030, .T. ) ;
#258 = AXIS2_PLACEMENT_3D ( 'NONE', #69, #883, #1031 ) ;
#259 = CARTESIAN_POINT ( 'NONE',  ( 37.26383885339459567, 5.499999999999997335, -7.517540966287310056 ) ) ;
#260 = DIRECTION ( 'NONE',  ( 0.3420201433256728207, 0.000000000000000000, -0.9396926207859068736 ) ) ;
#261 = APPLICATION_PROTOCOL_DEFINITION ( 'international standard', 'config_control_design', 1994, #791 ) ;
#262 = ORIENTED_EDGE ( 'NONE', *, *, #367, .T. ) ;
#263 = DIRECTION ( 'NONE',  ( 0.000000000000000000, 1.000000000000000000, -0.000000000000000000 ) ) ;
#264 = PERSON_AND_ORGANIZATION ( #236, #358 ) ;
#265 = ORIENTED_EDGE ( 'NONE', *, *, #162, .T. ) ;
#266 = ORIENTED_EDGE ( 'NONE', *, *, #101, .F. ) ;
#267 = VECTOR ( 'NONE', #371, 1000.000000000000000 ) ;
#268 = EDGE_CURVE ( 'NONE', #991, #982, #360, .T. ) ;
#269 = PERSON_AND_ORGANIZATION ( #236, #358 ) ;
#270 = ORIENTED_EDGE ( 'NONE', *, *, #958, .F. ) ;
#271 = CARTESIAN_POINT ( 'NONE',  ( -32.00000000000000000, 7.500000000000000000, 0.000000000000000000 ) ) ;
#272 = VECTOR ( 'NONE', #625, 1000.000000000000000 ) ;
#273 = DIRECTION ( 'NONE',  ( 0.000000000000000000, -1.000000000000000000, 0.000000000000000000 ) ) ;
#274 = AXIS2_PLACEMENT_3D ( 'NONE', #8, #263, #501 ) ;
#275 = VERTEX_POINT ( 'NONE', #901 ) ;
#276 = CARTESIAN_POINT ( 'NONE',  ( 0.000000000000000000, -23.50000000000007816, 0.000000000000000000 ) ) ;
#277 = CARTESIAN_POINT ( 'NONE',  ( -31.00000000000003197, 7.500000000000000000, 0.000000000000000000 ) ) ;
#278 = LINE ( 'NONE', #671, #674 ) ;
#279 = ORIENTED_EDGE ( 'NONE', *, *, #582, .T. ) ;
#280 = CARTESIAN_POINT ( 'NONE',  ( 0.000000000000000000, 2.500000000000000000, 0.000000000000000000 ) ) ;
#281 = EDGE_CURVE ( 'NONE', #148, #210, #817, .T. ) ;
#282 = DIRECTION ( 'NONE',  ( 1.000000000000000000, 0.000000000000000000, 0.000000000000000000 ) ) ;
#283 = MANIFOLD_SOLID_BREP ( 'Chamfer3', #743 ) ;
#284 = EDGE_LOOP ( 'NONE', ( #886, #452, #386, #181 ) ) ;
#285 = ORIENTED_EDGE ( 'NONE', *, *, #29, .T. ) ;
#286 = EDGE_CURVE ( 'NONE', #438, #453, #732, .T. ) ;
#287 = LINE ( 'NONE', #136, #446 ) ;
#288 = ADVANCED_FACE ( 'NONE', ( #494 ), #484, .F. ) ;
#289 = ORIENTED_EDGE ( 'NONE', *, *, #769, .T. ) ;
#290 = CIRCLE ( 'NONE', #825, 9.999999999999994671 ) ;
#291 = AXIS2_PLACEMENT_3D ( 'NONE', #280, #531, #691 ) ;
#292 = AXIS2_PLACEMENT_3D ( 'NONE', #418, #636, #715 ) ;
#293 = ORIENTED_EDGE ( 'NONE', *, *, #286, .T. ) ;
#294 = CARTESIAN_POINT ( 'NONE',  ( -25.99999999999998934, 2.500000000000000000, 0.000000000000000000 ) ) ;
#295 = DIRECTION ( 'NONE',  ( 0.000000000000000000, 0.000000000000000000, -1.000000000000000000 ) ) ;
#296 = DIRECTION ( 'NONE',  ( 0.4437126062796565851, 0.6336872742246416612, -0.6336872742246432155 ) ) ;
#297 = CARTESIAN_POINT ( 'NONE',  ( -12.27647076653975056, -6.641560986369674957, -72.83206952151897440 ) ) ;
#298 = ORIENTED_EDGE ( 'NONE', *, *, #29, .F. ) ;
#299 = DIRECTION ( 'NONE',  ( -0.000000000000000000, -1.000000000000000000, -0.000000000000000000 ) ) ;
#300 = CARTESIAN_POINT ( 'NONE',  ( 0.000000000000000000, -23.50000000000007816, 0.000000000000000000 ) ) ;
#301 = EDGE_CURVE ( 'NONE', #827, #731, #179, .T. ) ;
#302 = EDGE_CURVE ( 'NONE', #666, #338, #811, .T. ) ;
#303 = VERTEX_POINT ( 'NONE', #345 ) ;
#304 = CARTESIAN_POINT ( 'NONE',  ( 0.000000000000000000, 1.500000000000009548, -25.00000000000000000 ) ) ;
#305 = VECTOR ( 'NONE', #434, 1000.000000000000000 ) ;
#306 = ORIENTED_EDGE ( 'NONE', *, *, #895, .F. ) ;
#307 = DIRECTION ( 'NONE',  ( -0.000000000000000000, -1.000000000000000000, 0.000000000000000000 ) ) ;
#308 = APPROVAL_PERSON_ORGANIZATION ( #170, #955, #423 ) ;
#309 = ORIENTED_EDGE ( 'NONE', *, *, #905, .F. ) ;
#310 = CARTESIAN_POINT ( 'NONE',  ( 0.000000000000000000, -7.500000000000000000, -30.99999999999998224 ) ) ;
#311 = FACE_OUTER_BOUND ( 'NONE', #867, .T. ) ;
#312 = ORIENTED_EDGE ( 'NONE', *, *, #428, .F. ) ;
#313 = CARTESIAN_POINT ( 'NONE',  ( 0.000000000000000000, -7.500000000000000000, 0.000000000000000000 ) ) ;
#314 = CARTESIAN_POINT ( 'NONE',  ( 0.000000000000000000, -15.00000000000000000, -75.55562903500108973 ) ) ;
#315 = ADVANCED_FACE ( 'NONE', ( #662 ), #1003, .F. ) ;
#316 = DIRECTION ( 'NONE',  ( 0.000000000000000000, 0.000000000000000000, -1.000000000000000000 ) ) ;
#317 = DIRECTION ( 'NONE',  ( 0.000000000000000000, 0.000000000000000000, -1.000000000000000000 ) ) ;
#318 = ORIENTED_EDGE ( 'NONE', *, *, #286, .F. ) ;
#319 = CARTESIAN_POINT ( 'NONE',  ( -37.76902023801291364, -4.778526212514152327, -8.239014753773092892 ) ) ;
#320 = CARTESIAN_POINT ( 'NONE',  ( 31.99999999999993960, -7.500000000000000000, 0.000000000000000000 ) ) ;
#321 = CC_DESIGN_PERSON_AND_ORGANIZATION_ASSIGNMENT ( #426, #992, ( #911 ) ) ;
#322 = VECTOR ( 'NONE', #603, 1000.000000000000000 ) ;
#323 = CARTESIAN_POINT ( 'NONE',  ( -12.50000000000000000, -5.500000000000005329, -75.55562903500108973 ) ) ;
#324 = CARTESIAN_POINT ( 'NONE',  ( 0.000000000000000000, -7.500000000000000000, 0.000000000000000000 ) ) ;
#325 = ORIENTED_EDGE ( 'NONE', *, *, #301, .T. ) ;
#326 = ORIENTED_EDGE ( 'NONE', *, *, #606, .F. ) ;
#327 = CARTESIAN_POINT ( 'NONE',  ( -12.50000000000000000, 5.499999999999998224, -75.55562903500108973 ) ) ;
#328 = CARTESIAN_POINT ( 'NONE',  ( 0.000000000000000000, 6.499999999999988454, 0.000000000000000000 ) ) ;
#329 = AXIS2_PLACEMENT_3D ( 'NONE', #763, #154, #1022 ) ;
#330 = AXIS2_PLACEMENT_3D ( 'NONE', #422, #341, #97 ) ;
#331 = FACE_OUTER_BOUND ( 'NONE', #6, .T. ) ;
#332 = DIRECTION ( 'NONE',  ( -0.3420201433256728207, 0.000000000000000000, 0.9396926207859068736 ) ) ;
#333 = FACE_OUTER_BOUND ( 'NONE', #436, .T. ) ;
#334 = ORIENTED_EDGE ( 'NONE', *, *, #207, .T. ) ;
#335 = CARTESIAN_POINT ( 'NONE',  ( 37.26383885339459567, -5.499999999999971578, -7.517540966287315385 ) ) ;
#336 = CARTESIAN_POINT ( 'NONE',  ( 12.49999999999999822, -5.968893388994898075, -74.18467648105034584 ) ) ;
#337 = PRODUCT_RELATED_PRODUCT_CATEGORY ( 'detail', '', ( #479 ) ) ;
#338 = VERTEX_POINT ( 'NONE', #1050 ) ;
#339 = DATE_TIME_ROLE ( 'creation_date' ) ;
#340 = ADVANCED_FACE ( 'NONE', ( #966 ), #242, .F. ) ;
#341 = DIRECTION ( 'NONE',  ( 0.000000000000000000, 1.000000000000000000, 0.000000000000000000 ) ) ;
#342 = PERSON_AND_ORGANIZATION_ROLE ( 'classification_officer' ) ;
#343 = ORIENTED_EDGE ( 'NONE', *, *, #816, .T. ) ;
#344 = AXIS2_PLACEMENT_3D ( 'NONE', #940, #609, #364 ) ;
#345 = CARTESIAN_POINT ( 'NONE',  ( 0.000000000000000000, 15.00000000000000000, -65.55562903500108973 ) ) ;
#346 = CIRCLE ( 'NONE', #71, 9.999999999999994671 ) ;
#347 = APPROVAL_STATUS ( 'not_yet_approved' ) ;
#348 = VERTEX_POINT ( 'NONE', #679 ) ;
#349 = EDGE_CURVE ( 'NONE', #708, #920, #35, .T. ) ;
#350 = ORIENTED_EDGE ( 'NONE', *, *, #209, .T. ) ;
#351 = DATE_AND_TIME ( #508, #640 ) ;
#352 = ORIENTED_EDGE ( 'NONE', *, *, #128, .T. ) ;
#353 = LINE ( 'NONE', #206, #459 ) ;
#354 = DIRECTION ( 'NONE',  ( 0.000000000000000000, 0.000000000000000000, 1.000000000000000000 ) ) ;
#355 = AXIS2_PLACEMENT_3D ( 'NONE', #532, #126, #112 ) ;
#356 = ORIENTED_EDGE ( 'NONE', *, *, #492, .T. ) ;
#357 = DIRECTION ( 'NONE',  ( 0.000000000000000000, -1.000000000000000000, 0.000000000000000000 ) ) ;
#358 = ORGANIZATION ( 'UNSPECIFIED', 'UNSPECIFIED', '' ) ;
#359 = ORIENTED_EDGE ( 'NONE', *, *, #1001, .T. ) ;
#360 = CIRCLE ( 'NONE', #330, 9.999999999999994671 ) ;
#361 = EDGE_CURVE ( 'NONE', #485, #915, #1008, .T. ) ;
#362 = ORIENTED_EDGE ( 'NONE', *, *, #189, .F. ) ;
#363 = LINE ( 'NONE', #903, #813 ) ;
#364 = DIRECTION ( 'NONE',  ( 0.000000000000000000, 0.000000000000000000, 1.000000000000000000 ) ) ;
#365 = CARTESIAN_POINT ( 'NONE',  ( -25.00000000000000000, -1.500000000000016431, 0.000000000000000000 ) ) ;
#366 = DIRECTION ( 'NONE',  ( 0.000000000000000000, 1.000000000000000000, 0.000000000000000000 ) ) ;
#367 = EDGE_CURVE ( 'NONE', #470, #275, #363, .T. ) ;
#368 = PRODUCT_DEFINITION_SHAPE ( 'NONE', 'NONE',  #178 ) ;
#369 = ORIENTED_EDGE ( 'NONE', *, *, #568, .T. ) ;
#370 = DIRECTION ( 'NONE',  ( 0.000000000000000000, 0.000000000000000000, 1.000000000000000000 ) ) ;
#371 = DIRECTION ( 'NONE',  ( -0.000000000000000000, -1.000000000000000000, -0.000000000000000000 ) ) ;
#372 = ORIENTED_EDGE ( 'NONE', *, *, #639, .F. ) ;
#373 = CIRCLE ( 'NONE', #440, 12.49999999999999645 ) ;
#374 = ORIENTED_EDGE ( 'NONE', *, *, #1009, .T. ) ;
#375 = DIRECTION ( 'NONE',  ( -0.000000000000000000, 1.000000000000000000, -0.000000000000000000 ) ) ;
#376 = FACE_BOUND ( 'NONE', #689, .T. ) ;
#377 = DIRECTION ( 'NONE',  ( 0.3420201433256728207, 0.000000000000000000, -0.9396926207859068736 ) ) ;
#378 = AXIS2_PLACEMENT_3D ( 'NONE', #999, #447, #591 ) ;
#379 = LINE ( 'NONE', #726, #747 ) ;
#380 = AXIS2_PLACEMENT_3D ( 'NONE', #314, #396, #221 ) ;
#381 = AXIS2_PLACEMENT_3D ( 'NONE', #149, #701, #464 ) ;
#382 = ORIENTED_EDGE ( 'NONE', *, *, #367, .F. ) ;
#383 = CARTESIAN_POINT ( 'NONE',  ( 0.000000000000000000, -6.500000000000012434, 0.000000000000000000 ) ) ;
#384 = FACE_OUTER_BOUND ( 'NONE', #19, .T. ) ;
#385 = EDGE_CURVE ( 'NONE', #517, #27, #762, .T. ) ;
#386 = ORIENTED_EDGE ( 'NONE', *, *, #639, .T. ) ;
#387 = DIRECTION ( 'NONE',  ( -0.7071067811865549002, 0.7071067811865401342, 0.000000000000000000 ) ) ;
#388 = DIRECTION ( 'NONE',  ( 0.000000000000000000, 1.000000000000000000, 0.000000000000000000 ) ) ;
#389 = ORIENTED_EDGE ( 'NONE', *, *, #66, .F. ) ;
#390 = CARTESIAN_POINT ( 'NONE',  ( 25.00000000000000000, -2.500000000000000000, 0.000000000000000000 ) ) ;
#391 = CONICAL_SURFACE ( 'NONE', #774, 30.00000000000000000, 0.7853981633974587151 ) ;
#392 = CARTESIAN_POINT ( 'NONE',  ( 0.000000000000000000, 23.50000000000007461, 0.000000000000000000 ) ) ;
#393 = CC_DESIGN_APPROVAL ( #111, ( #415 ) ) ;
#394 = CIRCLE ( 'NONE', #344, 25.00000000000000000 ) ;
#395 = EDGE_LOOP ( 'NONE', ( #21, #23 ) ) ;
#396 = DIRECTION ( 'NONE',  ( 0.000000000000000000, 1.000000000000000000, 0.000000000000000000 ) ) ;
#397 = ADVANCED_FACE ( 'NONE', ( #331 ), #877, .F. ) ;
#398 = CARTESIAN_POINT ( 'NONE',  ( -30.00000000000000000, -15.00000000000000000, 0.000000000000000000 ) ) ;
#399 = CARTESIAN_POINT ( 'NONE',  ( -25.00000000000000000, 1.500000000000009548, 0.000000000000000000 ) ) ;
#400 = EDGE_CURVE ( 'NONE', #453, #731, #379, .T. ) ;
#401 = ORIENTED_EDGE ( 'NONE', *, *, #175, .T. ) ;
#402 = FACE_BOUND ( 'NONE', #395, .T. ) ;
#403 = ORIENTED_EDGE ( 'NONE', *, *, #661, .F. ) ;
#404 = ADVANCED_FACE ( 'NONE', ( #964 ), #645, .F. ) ;
#405 = CARTESIAN_POINT ( 'NONE',  ( 12.50000000000000000, 5.499999999999997335, -75.55562903500108973 ) ) ;
#406 = DIRECTION ( 'NONE',  ( 0.000000000000000000, 0.000000000000000000, -1.000000000000000000 ) ) ;
#407 = ORIENTED_EDGE ( 'NONE', *, *, #556, .F. ) ;
#408 = DIRECTION ( 'NONE',  ( 0.000000000000000000, 0.000000000000000000, 1.000000000000000000 ) ) ;
#409 = AXIS2_PLACEMENT_3D ( 'NONE', #48, #590, #190 ) ;
#410 = DIRECTION ( 'NONE',  ( 0.000000000000000000, 1.000000000000000000, 0.000000000000000000 ) ) ;
#411 = LINE ( 'NONE', #878, #104 ) ;
#412 = CARTESIAN_POINT ( 'NONE',  ( -30.00000000000000000, 6.499999999999988454, 0.000000000000000000 ) ) ;
#413 = ORIENTED_EDGE ( 'NONE', *, *, #584, .T. ) ;
#414 = DIRECTION ( 'NONE',  ( 1.000000000000000000, 0.000000000000000000, 0.000000000000000000 ) ) ;
#415 = SECURITY_CLASSIFICATION ( '', '', #432 ) ;
#416 = ORIENTED_EDGE ( 'NONE', *, *, #584, .F. ) ;
#417 = VECTOR ( 'NONE', #637, 1000.000000000000000 ) ;
#418 = CARTESIAN_POINT ( 'NONE',  ( 0.000000000000000000, 2.500000000000000000, 0.000000000000000000 ) ) ;
#419 = CARTESIAN_POINT ( 'NONE',  ( 25.00000000000000000, 2.500000000000000000, 1.530808498934191521E-15 ) ) ;
#420 = EDGE_CURVE ( 'NONE', #220, #530, #1024, .T. ) ;
#421 = PERSON_AND_ORGANIZATION_ROLE ( 'design_owner' ) ;
#422 = CARTESIAN_POINT ( 'NONE',  ( 0.000000000000000000, -15.00000000000000000, -75.55562903500108973 ) ) ;
#423 = APPROVAL_ROLE ( '' ) ;
#424 = ORIENTED_EDGE ( 'NONE', *, *, #654, .F. ) ;
#425 = DIRECTION ( 'NONE',  ( 0.6644630243886719967, 0.7071067811865494601, 0.2418447626479775514 ) ) ;
#426 = PERSON_AND_ORGANIZATION ( #236, #358 ) ;
#427 = VERTEX_POINT ( 'NONE', #76 ) ;
#428 = EDGE_CURVE ( 'NONE', #717, #197, #241, .T. ) ;
#429 = CIRCLE ( 'NONE', #929, 31.00000000000003197 ) ;
#430 = AXIS2_PLACEMENT_3D ( 'NONE', #324, #77, #406 ) ;
#431 = ORIENTED_EDGE ( 'NONE', *, *, #522, .T. ) ;
#432 = SECURITY_CLASSIFICATION_LEVEL ( 'unclassified' ) ;
#433 = ORIENTED_EDGE ( 'NONE', *, *, #818, .F. ) ;
#434 = DIRECTION ( 'NONE',  ( 0.3420201433256728207, 0.000000000000000000, -0.9396926207859068736 ) ) ;
#435 = CARTESIAN_POINT ( 'NONE',  ( 0.000000000000000000, -15.00000000000000000, -75.55562903500108973 ) ) ;
#436 = EDGE_LOOP ( 'NONE', ( #468, #318, #254, #1052 ) ) ;
#437 = CARTESIAN_POINT ( 'NONE',  ( -12.50000000000000000, 7.500000000000000000, -75.55562903500108973 ) ) ;
#438 = VERTEX_POINT ( 'NONE', #405 ) ;
#439 = EDGE_CURVE ( 'NONE', #197, #659, #630, .T. ) ;
#440 = AXIS2_PLACEMENT_3D ( 'NONE', #232, #256, #680 ) ;
#441 = VERTEX_POINT ( 'NONE', #233 ) ;
#442 = DIRECTION ( 'NONE',  ( 0.000000000000000000, -0.7071067811865487940, -0.7071067811865463515 ) ) ;
#443 = DIRECTION ( 'NONE',  ( 0.000000000000000000, 0.000000000000000000, -1.000000000000000000 ) ) ;
#444 =( GEOMETRIC_REPRESENTATION_CONTEXT ( 3 ) GLOBAL_UNCERTAINTY_ASSIGNED_CONTEXT ( ( #163 ) ) GLOBAL_UNIT_ASSIGNED_CONTEXT ( ( #499, #109, #744 ) ) REPRESENTATION_CONTEXT ( 'NONE', 'WORKASPACE' ) );
#445 = DIRECTION ( 'NONE',  ( 0.000000000000000000, 0.000000000000000000, 1.000000000000000000 ) ) ;
#446 = VECTOR ( 'NONE', #387, 1000.000000000000000 ) ;
#447 = DIRECTION ( 'NONE',  ( 0.000000000000000000, 1.000000000000000000, 0.000000000000000000 ) ) ;
#448 = EDGE_CURVE ( 'NONE', #441, #529, #564, .T. ) ;
#449 = EDGE_LOOP ( 'NONE', ( #298, #835, #748, #151, #952 ) ) ;
#450 = CYLINDRICAL_SURFACE ( 'NONE', #745, 9.999999999999994671 ) ;
#451 = LINE ( 'NONE', #42, #267 ) ;
#452 = ORIENTED_EDGE ( 'NONE', *, *, #268, .F. ) ;
#453 = VERTEX_POINT ( 'NONE', #1 ) ;
#454 = DIRECTION ( 'NONE',  ( 0.9396926207859068736, -0.000000000000000000, 0.3420201433256728207 ) ) ;
#455 = CARTESIAN_POINT ( 'NONE',  ( 0.000000000000000000, 7.500000000000000000, -75.55562903500108973 ) ) ;
#456 = DIRECTION ( 'NONE',  ( 0.000000000000000000, 0.000000000000000000, 1.000000000000000000 ) ) ;
#457 = DIRECTION ( 'NONE',  ( -0.000000000000000000, -1.000000000000000000, -0.000000000000000000 ) ) ;
#458 = CARTESIAN_POINT ( 'NONE',  ( -40.00000000000000000, 7.500000000000000000, 0.000000000000000000 ) ) ;
#459 = VECTOR ( 'NONE', #282, 1000.000000000000000 ) ;
#460 = ORIENTED_EDGE ( 'NONE', *, *, #895, .T. ) ;
#461 = LINE ( 'NONE', #602, #695 ) ;
#462 = EDGE_CURVE ( 'NONE', #27, #220, #889, .T. ) ;
#463 = FACE_OUTER_BOUND ( 'NONE', #750, .T. ) ;
#464 = DIRECTION ( 'NONE',  ( 0.000000000000000000, 0.000000000000000000, 1.000000000000000000 ) ) ;
#465 = CIRCLE ( 'NONE', #622, 9.999999999999994671 ) ;
#466 = FACE_OUTER_BOUND ( 'NONE', #1046, .T. ) ;
#467 = LINE ( 'NONE', #936, #795 ) ;
#468 = ORIENTED_EDGE ( 'NONE', *, *, #400, .F. ) ;
#469 = LINE ( 'NONE', #237, #123 ) ;
#470 = VERTEX_POINT ( 'NONE', #335 ) ;
#471 = PLANE ( 'NONE',  #881 ) ;
#472 = ADVANCED_FACE ( 'NONE', ( #799 ), #391, .F. ) ;
#473 = ORIENTED_EDGE ( 'NONE', *, *, #990, .T. ) ;
#474 = CARTESIAN_POINT ( 'NONE',  ( 0.000000000000000000, -2.500000000000000000, -25.99999999999998224 ) ) ;
#475 = VERTEX_POINT ( 'NONE', #88 ) ;
#476 = DIRECTION ( 'NONE',  ( 0.000000000000000000, 0.000000000000000000, 1.000000000000000000 ) ) ;
#477 = DIRECTION ( 'NONE',  ( -0.6644630243886769927, 0.7071067811865439090, -0.2418447626479793833 ) ) ;
#478 = ADVANCED_FACE ( 'NONE', ( #884 ), #488, .F. ) ;
#479 = PRODUCT ( 'gear shift fork', 'gear shift fork', '', ( #503 ) ) ;
#480 = EDGE_CURVE ( 'NONE', #210, #566, #1044, .T. ) ;
#481 = AXIS2_PLACEMENT_3D ( 'NONE', #328, #618, #408 ) ;
#482 = DIRECTION ( 'NONE',  ( -0.000000000000000000, -1.000000000000000000, 0.000000000000000000 ) ) ;
#483 = CARTESIAN_POINT ( 'NONE',  ( -12.50000000000000000, -5.968893388994926497, -74.18467648105034584 ) ) ;
#484 = PLANE ( 'NONE',  #697 ) ;
#485 = VERTEX_POINT ( 'NONE', #978 ) ;
#486 = DIRECTION ( 'NONE',  ( -0.8191520442889931308, -0.000000000000000000, -0.5735764363510443831 ) ) ;
#487 = FACE_OUTER_BOUND ( 'NONE', #512, .T. ) ;
#488 = PLANE ( 'NONE',  #217 ) ;
#489 = CARTESIAN_POINT ( 'NONE',  ( 11.83539467537122469, -7.500000000000000000, -71.53400835694175441 ) ) ;
#490 = CARTESIAN_POINT ( 'NONE',  ( -32.00000000000000000, 7.500000000000000000, 0.000000000000000000 ) ) ;
#491 = VECTOR ( 'NONE', #68, 1000.000000000000000 ) ;
#492 = EDGE_CURVE ( 'NONE', #834, #805, #980, .T. ) ;
#493 = DIRECTION ( 'NONE',  ( 0.000000000000000000, -0.000000000000000000, 1.000000000000000000 ) ) ;
#494 = FACE_OUTER_BOUND ( 'NONE', #667, .T. ) ;
#495 = DIRECTION ( 'NONE',  ( -0.3420201433256728207, 0.000000000000000000, -0.9396926207859068736 ) ) ;
#496 = AXIS2_PLACEMENT_3D ( 'NONE', #1045, #631, #317 ) ;
#497 = ORIENTED_EDGE ( 'NONE', *, *, #162, .F. ) ;
#498 = AXIS2_PLACEMENT_3D ( 'NONE', #218, #1034, #456 ) ;
#499 =( LENGTH_UNIT ( ) NAMED_UNIT ( * ) SI_UNIT ( .MILLI., .METRE. ) );
#500 = VERTEX_POINT ( 'NONE', #612 ) ;
#501 = DIRECTION ( 'NONE',  ( 0.000000000000000000, 0.000000000000000000, 1.000000000000000000 ) ) ;
#502 = EDGE_CURVE ( 'NONE', #982, #907, #937, .T. ) ;
#503 = MECHANICAL_CONTEXT ( 'NONE', #37, 'mechanical' ) ;
#504 = EDGE_LOOP ( 'NONE', ( #52, #758, #514, #888 ) ) ;
#505 = CARTESIAN_POINT ( 'NONE',  ( 0.000000000000000000, -7.500000000000000000, -75.55562903500108973 ) ) ;
#506 = VECTOR ( 'NONE', #935, 1000.000000000000000 ) ;
#507 = EDGE_CURVE ( 'NONE', #960, #96, #116, .T. ) ;
#508 = CALENDAR_DATE ( 2026, 30, 9 ) ;
#509 = ORIENTED_EDGE ( 'NONE', *, *, #606, .T. ) ;
#510 = VECTOR ( 'NONE', #1014, 1000.000000000000000 ) ;
#511 = VECTOR ( 'NONE', #296, 1000.000000000000114 ) ;
#512 = EDGE_LOOP ( 'NONE', ( #67, #74 ) ) ;
#513 = APPROVAL_DATE_TIME ( #821, #98 ) ;
#514 = ORIENTED_EDGE ( 'NONE', *, *, #1037, .F. ) ;
#515 = LINE ( 'NONE', #833, #540 ) ;
#516 = ORIENTED_EDGE ( 'NONE', *, *, #439, .F. ) ;
#517 = VERTEX_POINT ( 'NONE', #790 ) ;
#518 = EDGE_CURVE ( 'NONE', #740, #717, #72, .T. ) ;
#519 = CARTESIAN_POINT ( 'NONE',  ( 12.27647076653975411, 6.641560986369666963, -72.83206952151898861 ) ) ;
#520 =( BOUNDED_CURVE ( )  B_SPLINE_CURVE ( 3, ( #922, #519, #598, #130 ),
 .UNSPECIFIED., .F., .F. ) 
 B_SPLINE_CURVE_WITH_KNOTS ( ( 4, 4 ),
 ( 5.606563753758850410, 5.934119456780716284 ),
 .UNSPECIFIED. ) 
 CURVE ( )  GEOMETRIC_REPRESENTATION_ITEM ( )  RATIONAL_B_SPLINE_CURVE ( ( 1.000000000000000000, 0.9910789062361591295, 0.9910789062361591295, 1.000000000000000000 ) ) 
 REPRESENTATION_ITEM ( '' )  );
#521 = DIRECTION ( 'NONE',  ( 1.000000000000000000, 0.000000000000000000, 0.000000000000000000 ) ) ;
#522 = EDGE_CURVE ( 'NONE', #145, #348, #830, .T. ) ;
#523 = EDGE_LOOP ( 'NONE', ( #788, #831, #238, #416 ) ) ;
#524 = CIRCLE ( 'NONE', #706, 12.49999999999999645 ) ;
#525 = ORIENTED_EDGE ( 'NONE', *, *, #361, .F. ) ;
#526 = FACE_OUTER_BOUND ( 'NONE', #39, .T. ) ;
#527 = LINE ( 'NONE', #767, #322 ) ;
#528 = CIRCLE ( 'NONE', #899, 30.99999999999998224 ) ;
#529 = VERTEX_POINT ( 'NONE', #412 ) ;
#530 = VERTEX_POINT ( 'NONE', #908 ) ;
#531 = DIRECTION ( 'NONE',  ( -0.000000000000000000, 1.000000000000000000, -0.000000000000000000 ) ) ;
#532 = CARTESIAN_POINT ( 'NONE',  ( 0.000000000000000000, 15.00000000000000000, -75.55562903500108973 ) ) ;
#533 = VERTEX_POINT ( 'NONE', #728 ) ;
#534 = CARTESIAN_POINT ( 'NONE',  ( -21.47232229321074470, 7.500000000000000000, 15.03508193257451886 ) ) ;
#535 = ADVANCED_FACE ( 'NONE', ( #333 ), #12, .T. ) ;
#536 = ORIENTED_EDGE ( 'NONE', *, *, #518, .T. ) ;
#537 = FACE_OUTER_BOUND ( 'NONE', #284, .T. ) ;
#538 = CARTESIAN_POINT ( 'NONE',  ( 0.000000000000000000, 23.50000000000008882, 0.000000000000000000 ) ) ;
#539 = CARTESIAN_POINT ( 'NONE',  ( 0.000000000000000000, -1.500000000000016431, 0.000000000000000000 ) ) ;
#540 = VECTOR ( 'NONE', #28, 1000.000000000000000 ) ;
#541 = ORIENTED_EDGE ( 'NONE', *, *, #783, .T. ) ;
#542 = DIRECTION ( 'NONE',  ( 0.000000000000000000, 0.000000000000000000, 1.000000000000000000 ) ) ;
#543 = LINE ( 'NONE', #300, #910 ) ;
#544 = AXIS2_PLACEMENT_3D ( 'NONE', #227, #871, #787 ) ;
#545 = VECTOR ( 'NONE', #741, 1000.000000000000000 ) ;
#546 = ORIENTED_EDGE ( 'NONE', *, *, #147, .F. ) ;
#547 = LINE ( 'NONE', #971, #70 ) ;
#548 = EDGE_CURVE ( 'NONE', #500, #148, #524, .T. ) ;
#549 = LINE ( 'NONE', #866, #511 ) ;
#550 = ORIENTED_EDGE ( 'NONE', *, *, #1006, .T. ) ;
#551 = PLANE ( 'NONE',  #380 ) ;
#552 = CC_DESIGN_PERSON_AND_ORGANIZATION_ASSIGNMENT ( #981, #730, ( #178 ) ) ;
#553 = ORIENTED_EDGE ( 'NONE', *, *, #281, .T. ) ;
#554 = DIRECTION ( 'NONE',  ( -0.000000000000000000, 1.000000000000000000, -0.000000000000000000 ) ) ;
#555 = DIRECTION ( 'NONE',  ( -0.7071067811865463515, 0.7071067811865487940, 0.000000000000000000 ) ) ;
#556 = EDGE_CURVE ( 'NONE', #348, #220, #773, .T. ) ;
#557 = DIRECTION ( 'NONE',  ( 0.000000000000000000, 1.000000000000000000, 0.000000000000000000 ) ) ;
#558 = ORIENTED_EDGE ( 'NONE', *, *, #719, .T. ) ;
#559 = DIRECTION ( 'NONE',  ( -0.000000000000000000, 1.000000000000000000, -0.000000000000000000 ) ) ;
#560 = DIRECTION ( 'NONE',  ( 0.000000000000000000, 1.000000000000000000, 0.000000000000000000 ) ) ;
#561 = AXIS2_PLACEMENT_3D ( 'NONE', #45, #58, #370 ) ;
#562 = AXIS2_PLACEMENT_3D ( 'NONE', #458, #316, #164 ) ;
#563 = CARTESIAN_POINT ( 'NONE',  ( 0.000000000000000000, -15.00000000000000000, -88.05562903500107552 ) ) ;
#564 = LINE ( 'NONE', #810, #668 ) ;
#565 = CARTESIAN_POINT ( 'NONE',  ( 0.000000000000000000, -1.500000000000016431, 0.000000000000000000 ) ) ;
#566 = VERTEX_POINT ( 'NONE', #271 ) ;
#567 = DIRECTION ( 'NONE',  ( -0.000000000000000000, -1.000000000000000000, -0.000000000000000000 ) ) ;
#568 = EDGE_CURVE ( 'NONE', #809, #960, #527, .T. ) ;
#569 = DIRECTION ( 'NONE',  ( 0.7071067811865463515, 0.7071067811865487940, 0.000000000000000000 ) ) ;
#570 = LINE ( 'NONE', #973, #34 ) ;
#571 = CYLINDRICAL_SURFACE ( 'NONE', #231, 12.49999999999999645 ) ;
#572 = CALENDAR_DATE ( 2026, 30, 9 ) ;
#573 = CIRCLE ( 'NONE', #1015, 25.00000000000000000 ) ;
#574 = CARTESIAN_POINT ( 'NONE',  ( 25.99999999999998224, -2.500000000000000000, 0.000000000000000000 ) ) ;
#575 = COORDINATED_UNIVERSAL_TIME_OFFSET ( 7, 0, .AHEAD. ) ;
#576 = VECTOR ( 'NONE', #644, 1000.000000000000000 ) ;
#577 = ORIENTED_EDGE ( 'NONE', *, *, #101, .T. ) ;
#578 = CARTESIAN_POINT ( 'NONE',  ( 37.26383885339459567, -7.500000000000000000, -7.517540966287317161 ) ) ;
#579 = ADVANCED_FACE ( 'NONE', ( #376, #998 ), #846, .T. ) ;
#580 = APPLICATION_PROTOCOL_DEFINITION ( 'international standard', 'config_control_design', 1994, #37 ) ;
#581 = ORIENTED_EDGE ( 'NONE', *, *, #661, .T. ) ;
#582 = EDGE_CURVE ( 'NONE', #708, #683, #107, .T. ) ;
#583 = CARTESIAN_POINT ( 'NONE',  ( 0.000000000000000000, -1.500000000000016431, -25.00000000000000000 ) ) ;
#584 = EDGE_CURVE ( 'NONE', #798, #1025, #756, .T. ) ;
#585 = ORIENTED_EDGE ( 'NONE', *, *, #257, .F. ) ;
#586 = AXIS2_PLACEMENT_3D ( 'NONE', #984, #742, #651 ) ;
#587 = LINE ( 'NONE', #578, #660 ) ;
#588 = CALENDAR_DATE ( 2026, 30, 9 ) ;
#589 = ORIENTED_EDGE ( 'NONE', *, *, #938, .T. ) ;
#590 = DIRECTION ( 'NONE',  ( -0.000000000000000000, -1.000000000000000000, 0.000000000000000000 ) ) ;
#591 = DIRECTION ( 'NONE',  ( 0.000000000000000000, 0.000000000000000000, 1.000000000000000000 ) ) ;
#592 = ORIENTED_EDGE ( 'NONE', *, *, #1009, .F. ) ;
#593 = EDGE_CURVE ( 'NONE', #475, #798, #839, .T. ) ;
#594 = LINE ( 'NONE', #856, #103 ) ;
#595 = CARTESIAN_POINT ( 'NONE',  ( 30.00000000000000000, -15.00000000000000000, 0.000000000000000000 ) ) ;
#596 = ORIENTED_EDGE ( 'NONE', *, *, #281, .F. ) ;
#597 = EDGE_LOOP ( 'NONE', ( #249, #293, #350, #262 ) ) ;
#598 = CARTESIAN_POINT ( 'NONE',  ( 12.49999999999999645, 5.968893388994924720, -74.18467648105037426 ) ) ;
#599 = LINE ( 'NONE', #24, #506 ) ;
#600 = ORIENTED_EDGE ( 'NONE', *, *, #771, .T. ) ;
#601 = EDGE_LOOP ( 'NONE', ( #326, #424, #369, #91, #592, #617, #93, #407, #1005, #902 ) ) ;
#602 = CARTESIAN_POINT ( 'NONE',  ( 0.000000000000000000, 23.50000000000008882, 0.000000000000000000 ) ) ;
#603 = DIRECTION ( 'NONE',  ( -0.000000000000000000, -1.000000000000000000, -0.000000000000000000 ) ) ;
#604 = AXIS2_PLACEMENT_3D ( 'NONE', #778, #299, #443 ) ;
#605 = ORIENTED_EDGE ( 'NONE', *, *, #480, .T. ) ;
#606 = EDGE_CURVE ( 'NONE', #1017, #500, #451, .T. ) ;
#607 = DATE_AND_TIME ( #849, #792 ) ;
#608 = ORIENTED_EDGE ( 'NONE', *, *, #209, .F. ) ;
#609 = DIRECTION ( 'NONE',  ( -0.000000000000000000, 1.000000000000000000, -0.000000000000000000 ) ) ;
#610 = CARTESIAN_POINT ( 'NONE',  ( -32.00000000000000000, 7.500000000000000000, 0.000000000000000000 ) ) ;
#611 = CARTESIAN_POINT ( 'NONE',  ( -11.83539467537125134, 7.500000000000000000, -71.53400835694182547 ) ) ;
#612 = CARTESIAN_POINT ( 'NONE',  ( 1.530808498934191719E-15, 7.500000000000000000, -63.05562903500108973 ) ) ;
#613 = EDGE_LOOP ( 'NONE', ( #1013, #900, #577, #431 ) ) ;
#614 = CARTESIAN_POINT ( 'NONE',  ( -30.00000000000000000, 2.500000000000000000, 0.000000000000000000 ) ) ;
#615 = CARTESIAN_POINT ( 'NONE',  ( -37.26383885339461699, 7.500000000000000000, -7.517540966287247883 ) ) ;
#616 = VECTOR ( 'NONE', #649, 999.9999999999998863 ) ;
#617 = ORIENTED_EDGE ( 'NONE', *, *, #385, .T. ) ;
#618 = DIRECTION ( 'NONE',  ( 0.000000000000000000, 1.000000000000000000, 0.000000000000000000 ) ) ;
#619 = ADVANCED_FACE ( 'NONE', ( #931 ), #913, .F. ) ;
#620 = CARTESIAN_POINT ( 'NONE',  ( 30.00000000000000000, 2.499999999999998668, 0.000000000000000000 ) ) ;
#621 = CIRCLE ( 'NONE', #381, 25.99999999999998224 ) ;
#622 = AXIS2_PLACEMENT_3D ( 'NONE', #14, #251, #83 ) ;
#623 = ADVANCED_FACE ( 'NONE', ( #852 ), #199, .F. ) ;
#624 = ORIENTED_EDGE ( 'NONE', *, *, #147, .T. ) ;
#625 = DIRECTION ( 'NONE',  ( 0.000000000000000000, -0.7071067811865487940, -0.7071067811865463515 ) ) ;
#626 = EDGE_CURVE ( 'NONE', #1025, #927, #353, .T. ) ;
#627 = DIRECTION ( 'NONE',  ( 0.000000000000000000, 0.000000000000000000, 1.000000000000000000 ) ) ;
#628 = PLANE ( 'NONE',  #46 ) ;
#629 = LINE ( 'NONE', #310, #272 ) ;
#630 = LINE ( 'NONE', #972, #642 ) ;
#631 = DIRECTION ( 'NONE',  ( 0.000000000000000000, -1.000000000000000000, 0.000000000000000000 ) ) ;
#632 = ORIENTED_EDGE ( 'NONE', *, *, #257, .T. ) ;
#633 = VECTOR ( 'NONE', #36, 1000.000000000000000 ) ;
#634 = DIRECTION ( 'NONE',  ( 0.4437126062796575288, -0.6336872742246407730, 0.6336872742246435486 ) ) ;
#635 = DIRECTION ( 'NONE',  ( 0.000000000000000000, -1.000000000000000000, 0.000000000000000000 ) ) ;
#636 = DIRECTION ( 'NONE',  ( -0.000000000000000000, -1.000000000000000000, -0.000000000000000000 ) ) ;
#637 = DIRECTION ( 'NONE',  ( 0.3420201433256728207, 0.000000000000000000, 0.9396926207859068736 ) ) ;
#638 = ORIENTED_EDGE ( 'NONE', *, *, #861, .F. ) ;
#639 = EDGE_CURVE ( 'NONE', #991, #303, #599, .T. ) ;
#640 = LOCAL_TIME ( 21, 41, 38.00000000000000000, #253 ) ;
#641 = AXIS2_PLACEMENT_3D ( 'NONE', #887, #635, #152 ) ;
#642 = VECTOR ( 'NONE', #569, 999.9999999999998863 ) ;
#643 = DIRECTION ( 'NONE',  ( 0.000000000000000000, 0.000000000000000000, -1.000000000000000000 ) ) ;
#644 = DIRECTION ( 'NONE',  ( 0.000000000000000000, -1.000000000000000000, 0.000000000000000000 ) ) ;
#645 = PLANE ( 'NONE',  #562 ) ;
#646 = CARTESIAN_POINT ( 'NONE',  ( 21.47232229321072339, 7.500000000000000000, 15.03508193257447800 ) ) ;
#647 = FACE_OUTER_BOUND ( 'NONE', #601, .T. ) ;
#648 = ORIENTED_EDGE ( 'NONE', *, *, #439, .T. ) ;
#649 = DIRECTION ( 'NONE',  ( 0.5735764363510448272, -0.000000000000000000, 0.8191520442889927978 ) ) ;
#650 = CARTESIAN_POINT ( 'NONE',  ( 12.27647076653974700, -6.641560986369650976, -72.83206952151894598 ) ) ;
#651 = DIRECTION ( 'NONE',  ( 0.3420201433256728207, 0.000000000000000000, 0.9396926207859068736 ) ) ;
#652 = ORIENTED_EDGE ( 'NONE', *, *, #783, .F. ) ;
#653 = APPROVAL_STATUS ( 'not_yet_approved' ) ;
#654 = EDGE_CURVE ( 'NONE', #809, #1017, #99, .T. ) ;
#655 = CARTESIAN_POINT ( 'NONE',  ( -25.99999999999998224, -2.500000000000000000, 0.000000000000000000 ) ) ;
#656 = CARTESIAN_POINT ( 'NONE',  ( 0.000000000000000000, 0.000000000000000000, 0.000000000000000000 ) ) ;
#657 = CC_DESIGN_PERSON_AND_ORGANIZATION_ASSIGNMENT ( #269, #987, ( #911 ) ) ;
#658 = VECTOR ( 'NONE', #789, 1000.000000000000000 ) ;
#659 = VERTEX_POINT ( 'NONE', #365 ) ;
#660 = VECTOR ( 'NONE', #989, 1000.000000000000000 ) ;
#661 = EDGE_CURVE ( 'NONE', #920, #27, #1004, .T. ) ;
#662 = FACE_OUTER_BOUND ( 'NONE', #523, .T. ) ;
#663 = ORIENTED_EDGE ( 'NONE', *, *, #568, .F. ) ;
#664 = APPROVAL_DATE_TIME ( #819, #955 ) ;
#665 = ORIENTED_EDGE ( 'NONE', *, *, #400, .T. ) ;
#666 = VERTEX_POINT ( 'NONE', #669 ) ;
#667 = EDGE_LOOP ( 'NONE', ( #30, #403, #733, #777 ) ) ;
#668 = VECTOR ( 'NONE', #559, 1000.000000000000000 ) ;
#669 = CARTESIAN_POINT ( 'NONE',  ( 25.00000000000000000, 1.500000000000009548, 1.530808498934191521E-15 ) ) ;
#670 = EDGE_CURVE ( 'NONE', #427, #517, #872, .T. ) ;
#671 = CARTESIAN_POINT ( 'NONE',  ( 30.00000000000000000, -15.00000000000000000, 0.000000000000000000 ) ) ;
#672 = EDGE_CURVE ( 'NONE', #438, #275, #515, .T. ) ;
#673 = EDGE_LOOP ( 'NONE', ( #864, #114, #933, #969, #925, #127, #102, #191, #581, #943 ) ) ;
#674 = VECTOR ( 'NONE', #273, 1000.000000000000000 ) ;
#675 = CARTESIAN_POINT ( 'NONE',  ( 0.000000000000000000, 15.00000000000000000, -75.55562903500108973 ) ) ;
#676 = VECTOR ( 'NONE', #442, 1000.000000000000000 ) ;
#677 = ORIENTED_EDGE ( 'NONE', *, *, #685, .F. ) ;
#678 = EDGE_LOOP ( 'NONE', ( #196, #994, #585, #382 ) ) ;
#679 = CARTESIAN_POINT ( 'NONE',  ( -12.50000000000000000, 5.499999999999998224, -75.55562903500108973 ) ) ;
#680 = DIRECTION ( 'NONE',  ( 0.000000000000000000, 0.000000000000000000, 1.000000000000000000 ) ) ;
#681 = DIRECTION ( 'NONE',  ( -0.000000000000000000, -1.000000000000000000, 0.000000000000000000 ) ) ;
#682 = VERTEX_POINT ( 'NONE', #277 ) ;
#683 = VERTEX_POINT ( 'NONE', #761 ) ;
#684 = LINE ( 'NONE', #53, #510 ) ;
#685 = EDGE_CURVE ( 'NONE', #110, #441, #84, .T. ) ;
#686 = DIRECTION ( 'NONE',  ( 0.8191520442889927978, 0.000000000000000000, -0.5735764363510448272 ) ) ;
#687 = VECTOR ( 'NONE', #59, 1000.000000000000000 ) ;
#688 = ORIENTED_EDGE ( 'NONE', *, *, #990, .F. ) ;
#689 = EDGE_LOOP ( 'NONE', ( #362, #33 ) ) ;
#690 = ADVANCED_FACE ( 'NONE', ( #647 ), #571, .T. ) ;
#691 = DIRECTION ( 'NONE',  ( 0.000000000000000000, 0.000000000000000000, 1.000000000000000000 ) ) ;
#692 = CIRCLE ( 'NONE', #898, 25.99999999999998224 ) ;
#693 = CARTESIAN_POINT ( 'NONE',  ( -40.00000000000000000, -7.500000000000000000, 0.000000000000000000 ) ) ;
#694 = EDGE_CURVE ( 'NONE', #348, #148, #90, .T. ) ;
#695 = VECTOR ( 'NONE', #766, 999.9999999999998863 ) ;
#696 = CARTESIAN_POINT ( 'NONE',  ( -40.00000000000000000, 7.500000000000000000, 0.000000000000000000 ) ) ;
#697 = AXIS2_PLACEMENT_3D ( 'NONE', #2, #425, #332 ) ;
#698 = DIRECTION ( 'NONE',  ( 0.000000000000000000, 0.000000000000000000, 1.000000000000000000 ) ) ;
#699 = ORIENTED_EDGE ( 'NONE', *, *, #976, .F. ) ;
#700 = LINE ( 'NONE', #614, #633 ) ;
#701 = DIRECTION ( 'NONE',  ( 0.000000000000000000, 1.000000000000000000, 0.000000000000000000 ) ) ;
#702 = ORIENTED_EDGE ( 'NONE', *, *, #670, .T. ) ;
#703 = CYLINDRICAL_SURFACE ( 'NONE', #604, 12.49999999999999645 ) ;
#704 = CARTESIAN_POINT ( 'NONE',  ( 0.000000000000000000, 15.00000000000000000, -75.55562903500108973 ) ) ;
#705 = CC_DESIGN_DATE_AND_TIME_ASSIGNMENT ( #749, #894, ( #415 ) ) ;
#706 = AXIS2_PLACEMENT_3D ( 'NONE', #455, #681, #751 ) ;
#707 = ADVANCED_FACE ( 'NONE', ( #463 ), #822, .F. ) ;
#708 = VERTEX_POINT ( 'NONE', #953 ) ;
#709 = CARTESIAN_POINT ( 'NONE',  ( 0.000000000000000000, -15.00000000000000000, 0.000000000000000000 ) ) ;
#710 = CC_DESIGN_APPROVAL ( #955, ( #911 ) ) ;
#711 = DIRECTION ( 'NONE',  ( 0.000000000000000000, -0.000000000000000000, 1.000000000000000000 ) ) ;
#712 = CIRCLE ( 'NONE', #258, 30.99999999999998224 ) ;
#713 = ORIENTED_EDGE ( 'NONE', *, *, #1001, .F. ) ;
#714 = CARTESIAN_POINT ( 'NONE',  ( 35.86342377697516071, -7.500000000000000000, -5.517540966287283410 ) ) ;
#715 = DIRECTION ( 'NONE',  ( 0.000000000000000000, 0.000000000000000000, -1.000000000000000000 ) ) ;
#716 = CARTESIAN_POINT ( 'NONE',  ( -37.26383885339461699, 5.499999999999998224, -7.517540966287247883 ) ) ;
#717 = VERTEX_POINT ( 'NONE', #807 ) ;
#718 = FACE_OUTER_BOUND ( 'NONE', #184, .T. ) ;
#719 = EDGE_CURVE ( 'NONE', #731, #533, #85, .T. ) ;
#720 = CARTESIAN_POINT ( 'NONE',  ( -11.83539467537123002, -7.500000000000000000, -71.53400835694176862 ) ) ;
#721 = CARTESIAN_POINT ( 'NONE',  ( 40.00000000000000000, 7.500000000000000000, 0.000000000000000000 ) ) ;
#722 = ORIENTED_EDGE ( 'NONE', *, *, #993, .F. ) ;
#723 = VECTOR ( 'NONE', #521, 1000.000000000000000 ) ;
#724 = CARTESIAN_POINT ( 'NONE',  ( 0.000000000000000000, -7.500000000000000000, -30.99999999999998224 ) ) ;
#725 = LINE ( 'NONE', #944, #842 ) ;
#726 = CARTESIAN_POINT ( 'NONE',  ( 36.70148878936966241, 6.303119123028517734, -6.714421843258799427 ) ) ;
#727 = DIRECTION ( 'NONE',  ( -0.9396926207859068736, 0.000000000000000000, 0.3420201433256728207 ) ) ;
#728 = CARTESIAN_POINT ( 'NONE',  ( 11.83539467537125134, 7.500000000000000000, -71.53400835694182547 ) ) ;
#729 = VECTOR ( 'NONE', #836, 999.9999999999998863 ) ;
#730 = PERSON_AND_ORGANIZATION_ROLE ( 'creator' ) ;
#731 = VERTEX_POINT ( 'NONE', #974 ) ;
#732 = LINE ( 'NONE', #259, #417 ) ;
#733 = ORIENTED_EDGE ( 'NONE', *, *, #739, .F. ) ;
#734 = ADVANCED_FACE ( 'NONE', ( #247 ), #628, .F. ) ;
#735 = CARTESIAN_POINT ( 'NONE',  ( 40.00000000000000000, -5.499999999999969802, 0.000000000000000000 ) ) ;
#736 = ORIENTED_EDGE ( 'NONE', *, *, #626, .T. ) ;
#737 = CARTESIAN_POINT ( 'NONE',  ( -35.86342377697521755, 7.500000000000000000, -5.517540966287268311 ) ) ;
#738 = CARTESIAN_POINT ( 'NONE',  ( -12.49999999999999822, 5.499999999999998224, -75.55562903500108973 ) ) ;
#739 = EDGE_CURVE ( 'NONE', #530, #920, #1047, .T. ) ;
#740 = VERTEX_POINT ( 'NONE', #801 ) ;
#741 = DIRECTION ( 'NONE',  ( 0.5735764363510442720, -0.000000000000000000, -0.8191520442889930198 ) ) ;
#742 = DIRECTION ( 'NONE',  ( 0.6644630243886759935, 0.7071067811865451302, -0.2418447626479789947 ) ) ;
#743 = CLOSED_SHELL ( 'NONE', ( #31, #315, #150, #619, #812, #917, #404, #896, #873, #223, #47, #250, #690, #579, #921, #340, #397, #113, #478, #848, #707, #180, #829, #472, #734, #623, #535, #1043, #288, #81 ) ) ;
#744 =( NAMED_UNIT ( * ) SI_UNIT ( $, .STERADIAN. ) SOLID_ANGLE_UNIT ( ) );
#745 = AXIS2_PLACEMENT_3D ( 'NONE', #194, #860, #1026 ) ;
#746 = VERTEX_POINT ( 'NONE', #724 ) ;
#747 = VECTOR ( 'NONE', #245, 1000.000000000000114 ) ;
#748 = ORIENTED_EDGE ( 'NONE', *, *, #816, .F. ) ;
#749 = DATE_AND_TIME ( #572, #965 ) ;
#750 = EDGE_LOOP ( 'NONE', ( #997, #433, #306, #699 ) ) ;
#751 = DIRECTION ( 'NONE',  ( 0.000000000000000000, 0.000000000000000000, 1.000000000000000000 ) ) ;
#752 = EDGE_CURVE ( 'NONE', #977, #485, #1053, .T. ) ;
#753 = EDGE_LOOP ( 'NONE', ( #768, #193 ) ) ;
#754 = ORIENTED_EDGE ( 'NONE', *, *, #18, .T. ) ;
#755 = VECTOR ( 'NONE', #1016, 999.9999999999998863 ) ;
#756 = LINE ( 'NONE', #538, #755 ) ;
#757 = VERTEX_POINT ( 'NONE', #1027 ) ;
#758 = ORIENTED_EDGE ( 'NONE', *, *, #361, .T. ) ;
#759 = DIRECTION ( 'NONE',  ( 0.000000000000000000, 0.000000000000000000, 1.000000000000000000 ) ) ;
#760 = AXIS2_PLACEMENT_3D ( 'NONE', #735, #92, #495 ) ;
#761 = CARTESIAN_POINT ( 'NONE',  ( -30.99999999999998224, -7.500000000000000000, 0.000000000000000000 ) ) ;
#762 = CIRCLE ( 'NONE', #1020, 12.49999999999999645 ) ;
#763 = CARTESIAN_POINT ( 'NONE',  ( 0.000000000000000000, -15.00000000000000000, -75.55562903500108973 ) ) ;
#764 = EDGE_CURVE ( 'NONE', #1017, #809, #373, .T. ) ;
#765 = ORIENTED_EDGE ( 'NONE', *, *, #428, .T. ) ;
#766 = DIRECTION ( 'NONE',  ( 0.7071067811865462405, 0.7071067811865489050, 0.000000000000000000 ) ) ;
#767 = CARTESIAN_POINT ( 'NONE',  ( 0.000000000000000000, 15.00000000000000000, -88.05562903500107552 ) ) ;
#768 = ORIENTED_EDGE ( 'NONE', *, *, #654, .T. ) ;
#769 = EDGE_CURVE ( 'NONE', #533, #438, #520, .T. ) ;
#770 = ORIENTED_EDGE ( 'NONE', *, *, #13, .F. ) ;
#771 = EDGE_CURVE ( 'NONE', #977, #44, #573, .T. ) ;
#772 = DIRECTION ( 'NONE',  ( 0.000000000000000000, 0.000000000000000000, 1.000000000000000000 ) ) ;
#773 = LINE ( 'NONE', #437, #137 ) ;
#774 = AXIS2_PLACEMENT_3D ( 'NONE', #890, #82, #167 ) ;
#775 = CARTESIAN_POINT ( 'NONE',  ( 0.000000000000000000, 7.500000000000000000, -75.55562903500108973 ) ) ;
#776 = CARTESIAN_POINT ( 'NONE',  ( 0.000000000000000000, 2.500000000000000000, 0.000000000000000000 ) ) ;
#777 = ORIENTED_EDGE ( 'NONE', *, *, #420, .F. ) ;
#778 = CARTESIAN_POINT ( 'NONE',  ( 0.000000000000000000, 15.00000000000000000, -75.55562903500108973 ) ) ;
#779 = FACE_OUTER_BOUND ( 'NONE', #504, .T. ) ;
#780 = AXIS2_PLACEMENT_3D ( 'NONE', #804, #246, #759 ) ;
#781 = PLANE ( 'NONE',  #794 ) ;
#782 = FACE_OUTER_BOUND ( 'NONE', #1032, .T. ) ;
#783 = EDGE_CURVE ( 'NONE', #441, #834, #700, .T. ) ;
#784 = ORIENTED_EDGE ( 'NONE', *, *, #448, .F. ) ;
#785 = DIRECTION ( 'NONE',  ( -0.000000000000000000, -1.000000000000000000, -0.000000000000000000 ) ) ;
#786 = EDGE_LOOP ( 'NONE', ( #343, #850, #589, #914 ) ) ;
#787 = DIRECTION ( 'NONE',  ( 0.000000000000000000, 0.000000000000000000, 1.000000000000000000 ) ) ;
#788 = ORIENTED_EDGE ( 'NONE', *, *, #797, .F. ) ;
#789 = DIRECTION ( 'NONE',  ( 1.000000000000000000, 0.000000000000000000, 0.000000000000000000 ) ) ;
#790 = CARTESIAN_POINT ( 'NONE',  ( 1.530808498934191719E-15, -7.500000000000000000, -63.05562903500108973 ) ) ;
#791 = APPLICATION_CONTEXT ( 'configuration controlled 3d designs of mechanical parts and assemblies' ) ;
#792 = LOCAL_TIME ( 21, 41, 38.00000000000000000, #926 ) ;
#793 = DIRECTION ( 'NONE',  ( 0.7071067811865463515, -0.7071067811865487940, 0.000000000000000000 ) ) ;
#794 = AXIS2_PLACEMENT_3D ( 'NONE', #851, #837, #844 ) ;
#795 = VECTOR ( 'NONE', #49, 1000.000000000000000 ) ;
#796 = DIRECTION ( 'NONE',  ( -0.000000000000000000, 1.000000000000000000, -0.000000000000000000 ) ) ;
#797 = EDGE_CURVE ( 'NONE', #757, #798, #845, .T. ) ;
#798 = VERTEX_POINT ( 'NONE', #1019 ) ;
#799 = FACE_OUTER_BOUND ( 'NONE', #122, .T. ) ;
#800 = DIRECTION ( 'NONE',  ( -0.000000000000000000, -1.000000000000000000, -0.000000000000000000 ) ) ;
#801 = CARTESIAN_POINT ( 'NONE',  ( -30.00000000000000000, -6.500000000000012434, 0.000000000000000000 ) ) ;
#802 = CARTESIAN_POINT ( 'NONE',  ( 1.224646799147353848E-15, -15.00000000000000000, -85.55562903500107552 ) ) ;
#803 = CARTESIAN_POINT ( 'NONE',  ( 0.000000000000000000, -2.500000000000000000, 0.000000000000000000 ) ) ;
#804 = CARTESIAN_POINT ( 'NONE',  ( 0.000000000000000000, -15.00000000000000000, 0.000000000000000000 ) ) ;
#805 = VERTEX_POINT ( 'NONE', #125 ) ;
#806 = VECTOR ( 'NONE', #554, 1000.000000000000000 ) ;
#807 = CARTESIAN_POINT ( 'NONE',  ( -30.00000000000000000, -2.500000000000000444, 0.000000000000000000 ) ) ;
#808 = DIRECTION ( 'NONE',  ( 0.000000000000000000, 0.000000000000000000, 1.000000000000000000 ) ) ;
#809 = VERTEX_POINT ( 'NONE', #120 ) ;
#810 = CARTESIAN_POINT ( 'NONE',  ( -30.00000000000000000, -15.00000000000000000, 0.000000000000000000 ) ) ;
#811 = LINE ( 'NONE', #419, #176 ) ;
#812 = ADVANCED_FACE ( 'NONE', ( #526 ), #703, .T. ) ;
#813 = VECTOR ( 'NONE', #182, 1000.000000000000000 ) ;
#814 = DIRECTION ( 'NONE',  ( 0.000000000000000000, 0.000000000000000000, -1.000000000000000000 ) ) ;
#815 = ORIENTED_EDGE ( 'NONE', *, *, #235, .F. ) ;
#816 = EDGE_CURVE ( 'NONE', #666, #977, #394, .T. ) ;
#817 = LINE ( 'NONE', #94, #143 ) ;
#818 = EDGE_CURVE ( 'NONE', #740, #757, #15, .T. ) ;
#819 = DATE_AND_TIME ( #248, #173 ) ;
#820 = DIRECTION ( 'NONE',  ( 0.000000000000000000, 0.000000000000000000, 1.000000000000000000 ) ) ;
#821 = DATE_AND_TIME ( #588, #255 ) ;
#822 = CONICAL_SURFACE ( 'NONE', #892, 30.99999999999998224, 0.7853981633974466137 ) ;
#823 = ORIENTED_EDGE ( 'NONE', *, *, #95, .T. ) ;
#824 = ORIENTED_EDGE ( 'NONE', *, *, #448, .T. ) ;
#825 = AXIS2_PLACEMENT_3D ( 'NONE', #435, #366, #354 ) ;
#826 = CONICAL_SURFACE ( 'NONE', #291, 25.99999999999998934, 0.7853981633974466137 ) ;
#827 = VERTEX_POINT ( 'NONE', #142 ) ;
#828 = AXIS2_PLACEMENT_3D ( 'NONE', #775, #307, #946 ) ;
#829 = ADVANCED_FACE ( 'NONE', ( #216 ), #826, .F. ) ;
#830 = LINE ( 'NONE', #738, #169 ) ;
#831 = ORIENTED_EDGE ( 'NONE', *, *, #1023, .T. ) ;
#832 = EDGE_LOOP ( 'NONE', ( #525, #948, #516, #208 ) ) ;
#833 = CARTESIAN_POINT ( 'NONE',  ( 12.50000000000000000, 7.500000000000000000, -75.55562903500108973 ) ) ;
#834 = VERTEX_POINT ( 'NONE', #294 ) ;
#835 = ORIENTED_EDGE ( 'NONE', *, *, #771, .F. ) ;
#836 = DIRECTION ( 'NONE',  ( -0.5735764363510448272, -0.000000000000000000, -0.8191520442889927978 ) ) ;
#837 = DIRECTION ( 'NONE',  ( 0.000000000000000000, 0.000000000000000000, -1.000000000000000000 ) ) ;
#838 = AXIS2_PLACEMENT_3D ( 'NONE', #610, #686, #357 ) ;
#839 = LINE ( 'NONE', #595, #941 ) ;
#840 = EDGE_LOOP ( 'NONE', ( #546, #141, #279, #460, #536, #765, #648, #688, #285, #652, #824, #87 ) ) ;
#841 = EDGE_CURVE ( 'NONE', #805, #666, #934, .T. ) ;
#842 = VECTOR ( 'NONE', #954, 1000.000000000000000 ) ;
#843 = ORIENTED_EDGE ( 'NONE', *, *, #548, .T. ) ;
#844 = DIRECTION ( 'NONE',  ( -1.000000000000000000, 0.000000000000000000, -0.000000000000000000 ) ) ;
#845 = CIRCLE ( 'NONE', #561, 30.00000000000000000 ) ;
#846 = PLANE ( 'NONE',  #355 ) ;
#847 = EDGE_LOOP ( 'NONE', ( #722, #1002, #43, #312, #108 ) ) ;
#848 = ADVANCED_FACE ( 'NONE', ( #537 ), #450, .F. ) ;
#849 = CALENDAR_DATE ( 2026, 30, 9 ) ;
#850 = ORIENTED_EDGE ( 'NONE', *, *, #752, .T. ) ;
#851 = CARTESIAN_POINT ( 'NONE',  ( -40.00000000000000000, 7.500000000000000000, 0.000000000000000000 ) ) ;
#852 = FACE_OUTER_BOUND ( 'NONE', #204, .T. ) ;
#853 = ORIENTED_EDGE ( 'NONE', *, *, #739, .T. ) ;
#854 = DIRECTION ( 'NONE',  ( 0.000000000000000000, 0.000000000000000000, 1.000000000000000000 ) ) ;
#855 = ORIENTED_EDGE ( 'NONE', *, *, #993, .T. ) ;
#856 = CARTESIAN_POINT ( 'NONE',  ( -40.00000000000000000, 7.500000000000000000, 0.000000000000000000 ) ) ;
#857 = CARTESIAN_POINT ( 'NONE',  ( -12.50000000000000000, 5.968893388994920279, -74.18467648105037426 ) ) ;
#858 = AXIS2_PLACEMENT_3D ( 'NONE', #675, #131, #212 ) ;
#859 = DIRECTION ( 'NONE',  ( 0.000000000000000000, -1.000000000000000000, 0.000000000000000000 ) ) ;
#860 = DIRECTION ( 'NONE',  ( -0.000000000000000000, 1.000000000000000000, -0.000000000000000000 ) ) ;
#861 = EDGE_CURVE ( 'NONE', #1012, #827, #594, .T. ) ;
#862 = PLANE ( 'NONE',  #544 ) ;
#863 = AXIS2_PLACEMENT_3D ( 'NONE', #721, #727, #174 ) ;
#864 = ORIENTED_EDGE ( 'NONE', *, *, #670, .F. ) ;
#865 = LINE ( 'NONE', #146, #985 ) ;
#866 = CARTESIAN_POINT ( 'NONE',  ( 40.91911426955665831, -0.2797257003146489396, -12.73781526597264779 ) ) ;
#867 = EDGE_LOOP ( 'NONE', ( #770, #1029, #352, #372 ) ) ;
#868 = DIRECTION ( 'NONE',  ( 0.000000000000000000, 1.000000000000000000, -0.000000000000000000 ) ) ;
#869 = ORIENTED_EDGE ( 'NONE', *, *, #66, .T. ) ;
#870 = CARTESIAN_POINT ( 'NONE',  ( 0.000000000000000000, -15.00000000000000000, -75.55562903500108973 ) ) ;
#871 = DIRECTION ( 'NONE',  ( 0.000000000000000000, 1.000000000000000000, -0.000000000000000000 ) ) ;
#872 = CIRCLE ( 'NONE', #409, 12.49999999999999645 ) ;
#873 = ADVANCED_FACE ( 'NONE', ( #466 ), #781, .F. ) ;
#874 = CARTESIAN_POINT ( 'NONE',  ( 0.000000000000000000, 15.00000000000000000, -75.55562903500108973 ) ) ;
#875 = DIRECTION ( 'NONE',  ( 0.000000000000000000, 0.000000000000000000, 1.000000000000000000 ) ) ;
#876 = ORIENTED_EDGE ( 'NONE', *, *, #905, .T. ) ;
#877 = CYLINDRICAL_SURFACE ( 'NONE', #292, 25.00000000000000000 ) ;
#878 = CARTESIAN_POINT ( 'NONE',  ( -33.55139475782594616, 10.80191963522800869, -2.215621331059296484 ) ) ;
#879 = EDGE_CURVE ( 'NONE', #529, #682, #287, .T. ) ;
#880 = AXIS2_PLACEMENT_3D ( 'NONE', #205, #454, #1054 ) ;
#881 = AXIS2_PLACEMENT_3D ( 'NONE', #1028, #477, #377 ) ;
#882 = EDGE_CURVE ( 'NONE', #427, #968, #684, .T. ) ;
#883 = DIRECTION ( 'NONE',  ( 0.000000000000000000, 1.000000000000000000, -0.000000000000000000 ) ) ;
#884 = FACE_OUTER_BOUND ( 'NONE', #847, .T. ) ;
#885 = PLANE ( 'NONE',  #863 ) ;
#886 = ORIENTED_EDGE ( 'NONE', *, *, #502, .F. ) ;
#887 = CARTESIAN_POINT ( 'NONE',  ( 0.000000000000000000, -1.500000000000016431, 0.000000000000000000 ) ) ;
#888 = ORIENTED_EDGE ( 'NONE', *, *, #95, .F. ) ;
#889 =( BOUNDED_CURVE ( )  B_SPLINE_CURVE ( 3, ( #720, #297, #483, #7 ),
 .UNSPECIFIED., .F., .T. ) 
 B_SPLINE_CURVE_WITH_KNOTS ( ( 4, 4 ),
 ( 2.464971100169053297, 2.792526803190923168 ),
 .UNSPECIFIED. ) 
 CURVE ( )  GEOMETRIC_REPRESENTATION_ITEM ( )  RATIONAL_B_SPLINE_CURVE ( ( 1.000000000000000000, 0.9910789062361589075, 0.9910789062361589075, 1.000000000000000000 ) ) 
 REPRESENTATION_ITEM ( '' )  );
#890 = CARTESIAN_POINT ( 'NONE',  ( 0.000000000000000000, 6.499999999999988454, 0.000000000000000000 ) ) ;
#891 = DIRECTION ( 'NONE',  ( 0.000000000000000000, -1.000000000000000000, 0.000000000000000000 ) ) ;
#892 = AXIS2_PLACEMENT_3D ( 'NONE', #313, #79, #643 ) ;
#893 = DIRECTION ( 'NONE',  ( -0.000000000000000000, -1.000000000000000000, -0.000000000000000000 ) ) ;
#894 = DATE_TIME_ROLE ( 'classification_date' ) ;
#895 = EDGE_CURVE ( 'NONE', #683, #740, #461, .T. ) ;
#896 = ADVANCED_FACE ( 'NONE', ( #41 ), #928, .F. ) ;
#897 = FACE_OUTER_BOUND ( 'NONE', #597, .T. ) ;
#898 = AXIS2_PLACEMENT_3D ( 'NONE', #949, #557, #875 ) ;
#899 = AXIS2_PLACEMENT_3D ( 'NONE', #86, #868, #244 ) ;
#900 = ORIENTED_EDGE ( 'NONE', *, *, #420, .T. ) ;
#901 = CARTESIAN_POINT ( 'NONE',  ( 12.50000000000000000, -5.499999999999971578, -75.55562903500108973 ) ) ;
#902 = ORIENTED_EDGE ( 'NONE', *, *, #548, .F. ) ;
#903 = CARTESIAN_POINT ( 'NONE',  ( 40.00000000000000000, -5.499999999999971578, 0.000000000000000000 ) ) ;
#904 = ORIENTED_EDGE ( 'NONE', *, *, #861, .T. ) ;
#905 = EDGE_CURVE ( 'NONE', #682, #1012, #429, .T. ) ;
#906 = AXIS2_PLACEMENT_3D ( 'NONE', #1021, #923, #295 ) ;
#907 = VERTEX_POINT ( 'NONE', #1048 ) ;
#908 = CARTESIAN_POINT ( 'NONE',  ( -37.26383885339461699, -5.500000000000005329, -7.517540966287247883 ) ) ;
#909 = ORIENTED_EDGE ( 'NONE', *, *, #302, .T. ) ;
#910 = VECTOR ( 'NONE', #555, 999.9999999999998863 ) ;
#911 = PRODUCT_DEFINITION_FORMATION_WITH_SPECIFIED_SOURCE ( 'ANY', '', #479, .NOT_KNOWN. ) ;
#912 = AXIS2_PLACEMENT_3D ( 'NONE', #539, #859, #139 ) ;
#913 = CYLINDRICAL_SURFACE ( 'NONE', #906, 25.00000000000000000 ) ;
#914 = ORIENTED_EDGE ( 'NONE', *, *, #302, .F. ) ;
#915 = VERTEX_POINT ( 'NONE', #474 ) ;
#916 = CARTESIAN_POINT ( 'NONE',  ( 0.000000000000000000, 1.500000000000009548, 0.000000000000000000 ) ) ;
#917 = ADVANCED_FACE ( 'NONE', ( #718 ), #166, .F. ) ;
#918 = DIRECTION ( 'NONE',  ( 0.000000000000000000, 1.000000000000000000, 0.000000000000000000 ) ) ;
#919 = ORIENTED_EDGE ( 'NONE', *, *, #593, .T. ) ;
#920 = VERTEX_POINT ( 'NONE', #75 ) ;
#921 = ADVANCED_FACE ( 'NONE', ( #402, #487 ), #551, .F. ) ;
#922 = CARTESIAN_POINT ( 'NONE',  ( 11.83539467537125134, 7.500000000000000000, -71.53400835694182547 ) ) ;
#923 = DIRECTION ( 'NONE',  ( -0.000000000000000000, -1.000000000000000000, -0.000000000000000000 ) ) ;
#924 = EDGE_CURVE ( 'NONE', #1025, #746, #528, .T. ) ;
#925 = ORIENTED_EDGE ( 'NONE', *, *, #924, .T. ) ;
#926 = COORDINATED_UNIVERSAL_TIME_OFFSET ( 7, 0, .AHEAD. ) ;
#927 = VERTEX_POINT ( 'NONE', #320 ) ;
#928 = PLANE ( 'NONE',  #880 ) ;
#929 = AXIS2_PLACEMENT_3D ( 'NONE', #225, #482, #161 ) ;
#930 = AXIS2_PLACEMENT_3D ( 'NONE', #565, #891, #820 ) ;
#931 = FACE_OUTER_BOUND ( 'NONE', #786, .T. ) ;
#932 = EDGE_LOOP ( 'NONE', ( #608, #665, #9, #389, #815, #401 ) ) ;
#933 = ORIENTED_EDGE ( 'NONE', *, *, #235, .T. ) ;
#934 = LINE ( 'NONE', #276, #986 ) ;
#935 = DIRECTION ( 'NONE',  ( -0.000000000000000000, 1.000000000000000000, -0.000000000000000000 ) ) ;
#936 = CARTESIAN_POINT ( 'NONE',  ( 31.99999999999993960, 7.500000000000000000, 0.000000000000000000 ) ) ;
#937 = LINE ( 'NONE', #214, #806 ) ;
#938 = EDGE_CURVE ( 'NONE', #485, #338, #54, .T. ) ;
#939 = ORIENTED_EDGE ( 'NONE', *, *, #818, .T. ) ;
#940 = CARTESIAN_POINT ( 'NONE',  ( 0.000000000000000000, 1.500000000000009548, 0.000000000000000000 ) ) ;
#941 = VECTOR ( 'NONE', #1011, 1000.000000000000000 ) ;
#942 = LINE ( 'NONE', #696, #240 ) ;
#943 = ORIENTED_EDGE ( 'NONE', *, *, #385, .F. ) ;
#944 = CARTESIAN_POINT ( 'NONE',  ( 0.000000000000000000, -23.49999999999938538, 0.000000000000000000 ) ) ;
#945 = AXIS2_PLACEMENT_3D ( 'NONE', #656, #10, #17 ) ;
#946 = DIRECTION ( 'NONE',  ( 0.000000000000000000, 0.000000000000000000, 1.000000000000000000 ) ) ;
#947 = CIRCLE ( 'NONE', #828, 12.49999999999999645 ) ;
#948 = ORIENTED_EDGE ( 'NONE', *, *, #201, .F. ) ;
#949 = CARTESIAN_POINT ( 'NONE',  ( 0.000000000000000000, -2.500000000000000000, 0.000000000000000000 ) ) ;
#950 = EDGE_CURVE ( 'NONE', #566, #708, #962, .T. ) ;
#951 = CARTESIAN_POINT ( 'NONE',  ( -11.83539467537123002, -7.500000000000000000, -71.53400835694176862 ) ) ;
#952 = ORIENTED_EDGE ( 'NONE', *, *, #492, .F. ) ;
#953 = CARTESIAN_POINT ( 'NONE',  ( -32.00000000000000000, -7.500000000000000000, 0.000000000000000000 ) ) ;
#954 = DIRECTION ( 'NONE',  ( -0.7071067811865549002, -0.7071067811865401342, 0.000000000000000000 ) ) ;
#955 = APPROVAL ( #347, 'UNSPECIFIED' ) ;
#956 = CARTESIAN_POINT ( 'NONE',  ( -30.00000000000000000, -2.500000000000000000, 0.000000000000000000 ) ) ;
#957 = DIRECTION ( 'NONE',  ( 1.000000000000000000, 0.000000000000000000, 0.000000000000000000 ) ) ;
#958 = EDGE_CURVE ( 'NONE', #805, #110, #469, .T. ) ;
#959 = VECTOR ( 'NONE', #457, 1000.000000000000000 ) ;
#960 = VERTEX_POINT ( 'NONE', #563 ) ;
#961 = CARTESIAN_POINT ( 'NONE',  ( -11.83539467537125134, 7.500000000000000000, -71.53400835694182547 ) ) ;
#962 = LINE ( 'NONE', #490, #576 ) ;
#963 = CIRCLE ( 'NONE', #329, 12.49999999999999645 ) ;
#964 = FACE_OUTER_BOUND ( 'NONE', #840, .T. ) ;
#965 = LOCAL_TIME ( 21, 41, 38.00000000000000000, #100 ) ;
#966 = FACE_OUTER_BOUND ( 'NONE', #62, .T. ) ;
#967 = VECTOR ( 'NONE', #158, 1000.000000000000000 ) ;
#968 = VERTEX_POINT ( 'NONE', #714 ) ;
#969 = ORIENTED_EDGE ( 'NONE', *, *, #626, .F. ) ;
#970 = CARTESIAN_POINT ( 'NONE',  ( 0.000000000000000000, 2.500000000000000000, -25.00000000000000000 ) ) ;
#971 = CARTESIAN_POINT ( 'NONE',  ( -25.00000000000000000, 2.500000000000000000, 0.000000000000000000 ) ) ;
#972 = CARTESIAN_POINT ( 'NONE',  ( 0.000000000000000000, 23.50000000000007461, 0.000000000000000000 ) ) ;
#973 = CARTESIAN_POINT ( 'NONE',  ( 37.26383885339459567, 7.500000000000000000, -7.517540966287315385 ) ) ;
#974 = CARTESIAN_POINT ( 'NONE',  ( 35.86342377697519623, 7.500000000000000000, -5.517540966287342918 ) ) ;
#975 = PERSON_AND_ORGANIZATION ( #236, #358 ) ;
#976 = EDGE_CURVE ( 'NONE', #746, #683, #712, .T. ) ;
#977 = VERTEX_POINT ( 'NONE', #304 ) ;
#978 = CARTESIAN_POINT ( 'NONE',  ( 0.000000000000000000, -1.500000000000016431, -25.00000000000000000 ) ) ;
#979 = DIRECTION ( 'NONE',  ( -0.4437126062796547532, -0.6336872742246465462, -0.6336872742246395518 ) ) ;
#980 = CIRCLE ( 'NONE', #1033, 25.99999999999998934 ) ;
#981 = PERSON_AND_ORGANIZATION ( #236, #358 ) ;
#982 = VERTEX_POINT ( 'NONE', #802 ) ;
#983 = DIRECTION ( 'NONE',  ( 0.000000000000000000, -1.000000000000000000, 0.000000000000000000 ) ) ;
#984 = CARTESIAN_POINT ( 'NONE',  ( 33.44150362080764438, 7.500000000000000000, -12.17171190707957784 ) ) ;
#985 = VECTOR ( 'NONE', #785, 1000.000000000000000 ) ;
#986 = VECTOR ( 'NONE', #211, 999.9999999999998863 ) ;
#987 = PERSON_AND_ORGANIZATION_ROLE ( 'creator' ) ;
#988 = ORIENTED_EDGE ( 'NONE', *, *, #207, .F. ) ;
#989 = DIRECTION ( 'NONE',  ( -0.5735764363510442720, -0.000000000000000000, 0.8191520442889930198 ) ) ;
#990 = EDGE_CURVE ( 'NONE', #44, #659, #547, .T. ) ;
#991 = VERTEX_POINT ( 'NONE', #1036 ) ;
#992 = PERSON_AND_ORGANIZATION_ROLE ( 'design_supplier' ) ;
#993 = EDGE_CURVE ( 'NONE', #200, #475, #80, .T. ) ;
#994 = ORIENTED_EDGE ( 'NONE', *, *, #882, .F. ) ;
#995 = ADVANCED_BREP_SHAPE_REPRESENTATION ( 'gear shift fork', ( #283, #945 ), #444 ) ;
#996 = APPROVAL_STATUS ( 'not_yet_approved' ) ;
#997 = ORIENTED_EDGE ( 'NONE', *, *, #1023, .F. ) ;
#998 = FACE_OUTER_BOUND ( 'NONE', #753, .T. ) ;
#999 = CARTESIAN_POINT ( 'NONE',  ( 0.000000000000000000, -2.500000000000000000, 0.000000000000000000 ) ) ;
#1000 = CC_DESIGN_SECURITY_CLASSIFICATION ( #415, ( #911 ) ) ;
#1001 = EDGE_CURVE ( 'NONE', #57, #529, #202, .T. ) ;
#1002 = ORIENTED_EDGE ( 'NONE', *, *, #1037, .T. ) ;
#1003 = CONICAL_SURFACE ( 'NONE', #430, 30.99999999999998224, 0.7853981633974466137 ) ;
#1004 = LINE ( 'NONE', #121, #305 ) ;
#1005 = ORIENTED_EDGE ( 'NONE', *, *, #694, .T. ) ;
#1006 = EDGE_CURVE ( 'NONE', #1012, #57, #725, .T. ) ;
#1007 = ORIENTED_EDGE ( 'NONE', *, *, #201, .T. ) ;
#1008 = LINE ( 'NONE', #583, #676 ) ;
#1009 = EDGE_CURVE ( 'NONE', #517, #96, #865, .T. ) ;
#1010 = DIRECTION ( 'NONE',  ( -0.000000000000000000, -1.000000000000000000, -0.000000000000000000 ) ) ;
#1011 = DIRECTION ( 'NONE',  ( 0.000000000000000000, -1.000000000000000000, 0.000000000000000000 ) ) ;
#1012 = VERTEX_POINT ( 'NONE', #1042 ) ;
#1013 = ORIENTED_EDGE ( 'NONE', *, *, #556, .T. ) ;
#1014 = DIRECTION ( 'NONE',  ( 0.3420201433256728207, 0.000000000000000000, 0.9396926207859068736 ) ) ;
#1015 = AXIS2_PLACEMENT_3D ( 'NONE', #916, #375, #772 ) ;
#1016 = DIRECTION ( 'NONE',  ( 0.7071067811865462405, -0.7071067811865489050, 0.000000000000000000 ) ) ;
#1017 = VERTEX_POINT ( 'NONE', #63 ) ;
#1018 = EDGE_LOOP ( 'NONE', ( #541, #356, #106, #64 ) ) ;
#1019 = CARTESIAN_POINT ( 'NONE',  ( 30.00000000000000000, -6.500000000000012434, 0.000000000000000000 ) ) ;
#1020 = AXIS2_PLACEMENT_3D ( 'NONE', #505, #134, #854 ) ;
#1021 = CARTESIAN_POINT ( 'NONE',  ( 0.000000000000000000, 2.500000000000000000, 0.000000000000000000 ) ) ;
#1022 = DIRECTION ( 'NONE',  ( 0.000000000000000000, 0.000000000000000000, 1.000000000000000000 ) ) ;
#1023 = EDGE_CURVE ( 'NONE', #757, #746, #629, .T. ) ;
#1024 = LINE ( 'NONE', #323, #967 ) ;
#1025 = VERTEX_POINT ( 'NONE', #230 ) ;
#1026 = DIRECTION ( 'NONE',  ( 0.000000000000000000, 0.000000000000000000, 1.000000000000000000 ) ) ;
#1027 = CARTESIAN_POINT ( 'NONE',  ( 0.000000000000000000, -6.500000000000012434, -30.00000000000000000 ) ) ;
#1028 = CARTESIAN_POINT ( 'NONE',  ( -33.44150362080765149, 7.500000000000000000, -12.17171190707957962 ) ) ;
#1029 = ORIENTED_EDGE ( 'NONE', *, *, #502, .T. ) ;
#1030 =( BOUNDED_CURVE ( )  B_SPLINE_CURVE ( 3, ( #168, #336, #650, #489 ),
 .UNSPECIFIED., .F., .F. ) 
 B_SPLINE_CURVE_WITH_KNOTS ( ( 4, 4 ),
 ( 3.490658503988663508, 3.818214207010535155 ),
 .UNSPECIFIED. ) 
 CURVE ( )  GEOMETRIC_REPRESENTATION_ITEM ( )  RATIONAL_B_SPLINE_CURVE ( ( 1.000000000000000000, 0.9910789062361589075, 0.9910789062361589075, 1.000000000000000000 ) ) 
 REPRESENTATION_ITEM ( '' )  );
#1031 = DIRECTION ( 'NONE',  ( 0.000000000000000000, 0.000000000000000000, 1.000000000000000000 ) ) ;
#1032 = EDGE_LOOP ( 'NONE', ( #1035, #228, #988, #596 ) ) ;
#1033 = AXIS2_PLACEMENT_3D ( 'NONE', #776, #50, #698 ) ;
#1034 = DIRECTION ( 'NONE',  ( -0.000000000000000000, 1.000000000000000000, -0.000000000000000000 ) ) ;
#1035 = ORIENTED_EDGE ( 'NONE', *, *, #694, .F. ) ;
#1036 = CARTESIAN_POINT ( 'NONE',  ( 0.000000000000000000, -15.00000000000000000, -65.55562903500108973 ) ) ;
#1037 = EDGE_CURVE ( 'NONE', #200, #915, #692, .T. ) ;
#1038 = APPROVAL_PERSON_ORGANIZATION ( #183, #98, #187 ) ;
#1039 = LINE ( 'NONE', #615, #186 ) ;
#1040 = CC_DESIGN_DATE_AND_TIME_ASSIGNMENT ( #351, #339, ( #178 ) ) ;
#1041 = ORIENTED_EDGE ( 'NONE', *, *, #950, .F. ) ;
#1042 = CARTESIAN_POINT ( 'NONE',  ( 31.00000000000003553, 7.500000000000000000, 0.000000000000000000 ) ) ;
#1043 = ADVANCED_FACE ( 'NONE', ( #156 ), #5, .F. ) ;
#1044 = LINE ( 'NONE', #534, #616 ) ;
#1045 = CARTESIAN_POINT ( 'NONE',  ( 0.000000000000000000, -1.500000000000016431, 0.000000000000000000 ) ) ;
#1046 = EDGE_LOOP ( 'NONE', ( #736, #869, #638, #550, #171, #270, #129, #909, #823, #855, #919, #413 ) ) ;
#1047 = LINE ( 'NONE', #319, #26 ) ;
#1048 = CARTESIAN_POINT ( 'NONE',  ( 1.224646799147353848E-15, 15.00000000000000000, -85.55562903500107552 ) ) ;
#1049 = DIRECTION ( 'NONE',  ( 1.000000000000000000, 0.000000000000000000, 0.000000000000000000 ) ) ;
#1050 = CARTESIAN_POINT ( 'NONE',  ( 25.00000000000000000, -1.500000000000016431, 1.530808498934191521E-15 ) ) ;
#1051 = AXIS2_PLACEMENT_3D ( 'NONE', #870, #153, #476 ) ;
#1052 = ORIENTED_EDGE ( 'NONE', *, *, #719, .F. ) ;
#1053 = LINE ( 'NONE', #970, #959 ) ;
#1054 = DIRECTION ( 'NONE',  ( 0.3420201433256728207, 0.000000000000000000, -0.9396926207859068736 ) ) ;
#1055 = CC_DESIGN_PERSON_AND_ORGANIZATION_ASSIGNMENT ( #264, #342, ( #415 ) ) ;
ENDSEC;
END-ISO-10303-21;
